<?xml version="1.0" encoding="UTF-8"?>
<svg id="Layer_2" data-name="Layer 2" xmlns="http://www.w3.org/2000/svg" viewBox="0 0 642.84 328.04">
  <defs>
    <style>
      .cls-1 {
        fill: #fff;
      }
    </style>
  </defs>
  <g id="Layer_1-2" data-name="Layer 1">
    <g>
      <path class="cls-1" d="M298.36,148.78v-13.08h2.47c47.71,0,92.41-27.74,92.41-58.84,0-13.61-7.24-25.97-22.26-38.17,32.87,13.61,52.48,31.1,52.48,50.54,0,32.16-58.84,63.44-125.1,59.55ZM290.41,179.88c84.29,3.36,163.09-33.75,163.09-88.88C453.5,39.05,383,1.77,290.41,0v32.87c-53.01,2.83-101.07,32.87-101.07,68.91,0,33.04,45.77,58.13,101.07,60.25v17.85ZM309.84,70.68c-39.4,0-65.2,13.96-65.2,33.75,0,13.08,12.02,22.97,36.05,29.86-39.58-6.01-62.2-18.73-62.2-34.63,0-20.32,40.29-38.7,80.22-38.7v-21.2c34.81,1.41,64.5,16.96,64.5,35.34,0,19.79-28.63,34.99-64.14,34.99-18.02,0-26.15-5.65-26.15-7.42,0-1.59,13.61-5.48,36.93-5.48v-26.51Z"/>
      <path class="cls-1" d="M0,245.58h23.61c19.46,0,31.91,12.45,31.91,32.74s-12.27,32.74-31.82,32.74H0v-65.49ZM45.56,280.91v-5.17c0-13.74-7.84-21.58-21.77-21.58h-14.2v48.33h14.2c13.93,0,21.77-7.84,21.77-21.58Z"/>
      <path class="cls-1" d="M62.35,298.25c0-8.02,5.17-12.36,14.85-13.74l9.41-1.38c5.07-.83,6.92-1.94,6.92-5.9,0-4.34-3.6-6.55-9.13-6.55-6.37,0-9.96,2.58-11.44,8.21h-9.59c2.58-10.05,9.59-15.86,21.03-15.86s18.54,5.63,18.54,16.42v31.64h-8.76v-7.84h-.55c-2.77,5.72-8.12,8.67-14.67,8.67-10.33,0-16.6-5.07-16.6-13.65ZM93.53,291.61v-4.15c-1.48,1.66-3.69,2.31-6.37,2.67l-7.47,1.01c-5.07.74-8.02,2.12-8.02,6.27v.92c0,4.06,3.23,6.09,8.85,6.09,7.66,0,13.01-4.7,13.01-12.82Z"/>
      <path class="cls-1" d="M116.41,299.08v-27.21h-7.29v-8.03h7.29v-11.99h9.41v11.99h10.42v8.03h-10.42v27.12c0,2.86,1.2,4.06,4.06,4.06h6.73v8.02h-6.92c-8.76,0-13.28-4.24-13.28-11.99Z"/>
      <path class="cls-1" d="M142.42,298.25c0-8.02,5.17-12.36,14.85-13.74l9.41-1.38c5.07-.83,6.92-1.94,6.92-5.9,0-4.34-3.6-6.55-9.13-6.55-6.37,0-9.96,2.58-11.44,8.21h-9.59c2.58-10.05,9.59-15.86,21.03-15.86s18.54,5.63,18.54,16.42v31.64h-8.76v-7.84h-.55c-2.77,5.72-8.12,8.67-14.67,8.67-10.33,0-16.6-5.07-16.6-13.65ZM173.6,291.61v-4.15c-1.48,1.66-3.69,2.31-6.37,2.67l-7.47,1.01c-5.07.74-8.02,2.12-8.02,6.27v.92c0,4.06,3.23,6.09,8.85,6.09,7.66,0,13.01-4.7,13.01-12.82Z"/>
      <path class="cls-1" d="M196.38,271.87h-7.29v-8.03h7.29v-6.18c0-7.56,4.7-12.08,13.1-12.08h7.38v7.75h-7.19c-2.86,0-3.97,1.11-3.97,3.87v6.64h10.15v8.03h-10.05v39.2h-9.41v-39.2Z"/>
      <path class="cls-1" d="M219.63,287.45c0-15.03,8.95-24.44,23.15-24.44s23.34,9.41,23.34,24.44-9.04,24.44-23.34,24.44-23.15-9.41-23.15-24.44ZM256.43,289.48v-4.15c0-9.22-4.89-14.2-13.65-14.2s-13.47,4.98-13.47,14.2v4.15c0,9.22,4.7,14.39,13.47,14.39s13.65-5.17,13.65-14.39Z"/>
      <path class="cls-1" d="M276.08,263.84h8.76v8.12h.37c2.12-5.26,6.46-8.12,13-8.12h4.06v9.04h-6.73c-6.09,0-10.05,3.23-10.05,12.45v25.73h-9.41v-47.22Z"/>
      <path class="cls-1" d="M306.79,287.45c0-14.85,8.86-24.44,22.87-24.44s22.23,9.41,22.23,23.15c0,1.11,0,2.68-.09,3.78h-35.69c.18,9.5,5.07,14.11,13.56,14.11,6.46,0,10.33-2.49,12.18-8.21h9.41c-2.4,10.05-10.33,16.05-21.49,16.05-14.11,0-22.97-9.5-22.97-24.44ZM329.58,270.76c-7.75,0-12.54,3.87-13.28,11.99h26.1c-.55-7.75-4.8-11.99-12.82-11.99Z"/>
      <path class="cls-1" d="M361.86,263.84h8.67v7.66h.65c2.86-5.63,7.93-8.49,15.22-8.49,10.79,0,17.62,6.73,17.62,17.52v30.53h-9.41v-28.59c0-7.29-3.5-11.25-10.7-11.25-8.02,0-12.64,4.89-12.64,13.28v26.56h-9.41v-47.22Z"/>
      <path class="cls-1" d="M416,245.58h9.78v10.05h-9.78v-10.05ZM416.28,263.84h9.41v47.22h-9.41v-47.22Z"/>
      <path class="cls-1" d="M438.51,263.84h8.67v7.66h.65c2.86-5.63,7.93-8.49,15.22-8.49,10.79,0,17.62,6.73,17.62,17.52v30.53h-9.41v-28.59c0-7.29-3.5-11.25-10.7-11.25-8.02,0-12.64,4.89-12.64,13.28v26.56h-9.41v-47.22Z"/>
      <path class="cls-1" d="M491.45,313.46h9.87c1.66,5.07,4.98,7.01,11.99,7.01,9.22,0,13.1-4.06,13.1-11.53v-7.29h-.65c-2.67,5.63-8.03,8.39-15.13,8.39-12.54,0-20.57-9.04-20.57-23.52s8.02-23.52,20.57-23.52c7.29,0,12.82,3.14,15.68,9.22h.55v-8.39h8.86v45.01c0,11.99-8.58,19.18-22.32,19.18-12.08,0-19.46-4.98-21.95-14.57ZM526.32,286.81c0-10.15-4.8-15.86-13.56-15.86s-13.1,4.61-13.1,13.65v3.97c0,8.76,3.97,13.56,13.01,13.56s13.65-5.44,13.65-15.31Z"/>
      <path class="cls-1" d="M545.62,287.45c0-14.85,8.85-24.44,22.87-24.44s22.23,9.41,22.23,23.15c0,1.11,0,2.68-.09,3.78h-35.69c.18,9.5,5.07,14.11,13.56,14.11,6.46,0,10.33-2.49,12.18-8.21h9.41c-2.4,10.05-10.33,16.05-21.49,16.05-14.11,0-22.97-9.5-22.97-24.44ZM568.4,270.76c-7.75,0-12.54,3.87-13.28,11.99h26.1c-.55-7.75-4.8-11.99-12.82-11.99Z"/>
      <path class="cls-1" d="M600.68,263.84h8.67v7.66h.65c2.86-5.63,7.93-8.49,15.22-8.49,10.79,0,17.62,6.73,17.62,17.52v30.53h-9.41v-28.59c0-7.29-3.5-11.25-10.7-11.25-8.02,0-12.64,4.89-12.64,13.28v26.56h-9.41v-47.22Z"/>
    </g>
  </g>
</svg>