<svg viewBox="0 0 871.7 114.63" xmlns="http://www.w3.org/2000/svg"><path d="m69.39 94.7v-8.32h1.57c30.37 0 58.82-17.66 58.82-37.45 0-8.66-4.61-16.53-14.17-24.29 20.92 8.66 33.4 19.79 33.4 32.17 0 20.47-37.45 40.38-79.63 37.9zm-5.06 19.79c53.65 2.14 103.81-21.48 103.81-56.57 0-33.06-44.87-56.8-103.81-57.92v20.92c-33.74 1.8-64.33 20.92-64.33 43.86 0 21.03 29.13 37 64.33 38.35zm12.37-69.5c-25.08 0-41.5 8.89-41.5 21.48 0 8.32 7.65 14.62 22.94 19.01-25.19-3.82-39.59-11.92-39.59-22.04 0-12.93 25.64-24.63 51.06-24.63v-13.5c22.16.9 41.05 10.8 41.05 22.49 0 12.6-18.22 22.27-40.83 22.27-11.47 0-16.65-3.6-16.65-4.72 0-1.01 8.66-3.49 23.51-3.49v-16.87z"/><path d="m228.86 24.98h23.61c19.46 0 31.91 12.45 31.91 32.74s-12.27 32.74-31.82 32.74h-23.7zm45.57 35.33v-5.17c0-13.74-7.84-21.58-21.77-21.58h-14.2v48.33h14.2c13.93 0 21.77-7.84 21.77-21.58z"/><path d="m291.22 77.65c0-8.02 5.17-12.36 14.85-13.74l9.41-1.38c5.07-.83 6.92-1.94 6.92-5.9 0-4.34-3.6-6.55-9.13-6.55-6.37 0-9.96 2.58-11.44 8.21h-9.59c2.58-10.05 9.59-15.86 21.03-15.86s18.54 5.63 18.54 16.42v31.64h-8.76v-7.84h-.55c-2.77 5.72-8.12 8.67-14.67 8.67-10.33 0-16.6-5.07-16.6-13.65zm31.17-6.64v-4.15c-1.48 1.66-3.69 2.31-6.37 2.67l-7.47 1.01c-5.07.74-8.02 2.12-8.02 6.27v.92c0 4.06 3.23 6.09 8.85 6.09 7.66 0 13.01-4.7 13.01-12.82z"/><path d="m345.27 78.48v-27.21h-7.29v-8.03h7.29v-11.99h9.41v11.99h10.42v8.03h-10.42v27.12c0 2.86 1.2 4.06 4.06 4.06h6.73v8.02h-6.92c-8.76 0-13.28-4.24-13.28-11.99z"/><path d="m371.28 77.65c0-8.02 5.17-12.36 14.85-13.74l9.41-1.38c5.07-.83 6.92-1.94 6.92-5.9 0-4.34-3.6-6.55-9.13-6.55-6.37 0-9.96 2.58-11.44 8.21h-9.59c2.58-10.05 9.59-15.86 21.03-15.86s18.54 5.63 18.54 16.42v31.64h-8.76v-7.84h-.55c-2.77 5.72-8.12 8.67-14.67 8.67-10.33 0-16.6-5.07-16.6-13.65zm31.18-6.64v-4.15c-1.48 1.66-3.69 2.31-6.37 2.67l-7.47 1.01c-5.07.74-8.02 2.12-8.02 6.27v.92c0 4.06 3.23 6.09 8.85 6.09 7.66 0 13.01-4.7 13.01-12.82z"/><path d="m425.24 51.27h-7.29v-8.03h7.29v-6.18c0-7.56 4.7-12.08 13.1-12.08h7.38v7.75h-7.19c-2.86 0-3.97 1.11-3.97 3.87v6.64h10.15v8.03h-10.05v39.2h-9.41v-39.2z"/><path d="m448.49 66.86c0-15.03 8.95-24.44 23.15-24.44s23.34 9.41 23.34 24.44-9.04 24.44-23.34 24.44-23.15-9.41-23.15-24.44zm36.8 2.03v-4.15c0-9.22-4.89-14.2-13.65-14.2s-13.47 4.98-13.47 14.2v4.15c0 9.22 4.7 14.39 13.47 14.39s13.65-5.17 13.65-14.39z"/><path d="m504.94 43.25h8.76v8.12h.37c2.12-5.26 6.46-8.12 13-8.12h4.06v9.04h-6.73c-6.09 0-10.05 3.23-10.05 12.45v25.73h-9.41z"/><path d="m535.65 66.86c0-14.85 8.86-24.44 22.87-24.44s22.23 9.41 22.23 23.15c0 1.11 0 2.68-.09 3.78h-35.69c.18 9.5 5.07 14.11 13.56 14.11 6.46 0 10.33-2.49 12.18-8.21h9.41c-2.4 10.05-10.33 16.05-21.49 16.05-14.11 0-22.97-9.5-22.97-24.44zm22.79-16.7c-7.75 0-12.54 3.87-13.28 11.99h26.1c-.55-7.75-4.8-11.99-12.82-11.99z"/><path d="m590.72 43.25h8.67v7.66h.65c2.86-5.63 7.93-8.49 15.22-8.49 10.79 0 17.62 6.73 17.62 17.52v30.53h-9.41v-28.59c0-7.29-3.5-11.25-10.7-11.25-8.02 0-12.64 4.89-12.64 13.28v26.56h-9.41z"/><path d="m644.87 24.98h9.78v10.05h-9.78zm.27 18.27h9.41v47.22h-9.41z"/><path d="m667.37 43.25h8.67v7.66h.65c2.86-5.63 7.93-8.49 15.22-8.49 10.79 0 17.62 6.73 17.62 17.52v30.53h-9.41v-28.59c0-7.29-3.5-11.25-10.7-11.25-8.02 0-12.64 4.89-12.64 13.28v26.56h-9.41z"/><path d="m720.32 92.87h9.87c1.66 5.07 4.98 7.01 11.99 7.01 9.22 0 13.1-4.06 13.1-11.53v-7.29h-.65c-2.67 5.63-8.03 8.39-15.13 8.39-12.54 0-20.57-9.04-20.57-23.52s8.02-23.52 20.57-23.52c7.29 0 12.82 3.14 15.68 9.22h.55v-8.39h8.86v45.01c0 11.99-8.58 19.18-22.32 19.18-12.08 0-19.46-4.98-21.95-14.57zm34.86-26.66c0-10.15-4.8-15.86-13.56-15.86s-13.1 4.61-13.1 13.65v3.97c0 8.76 3.97 13.56 13.01 13.56s13.65-5.44 13.65-15.31z"/><path d="m774.48 66.86c0-14.85 8.85-24.44 22.87-24.44s22.23 9.41 22.23 23.15c0 1.11 0 2.68-.09 3.78h-35.69c.18 9.5 5.07 14.11 13.56 14.11 6.46 0 10.33-2.49 12.18-8.21h9.41c-2.4 10.05-10.33 16.05-21.49 16.05-14.11 0-22.97-9.5-22.97-24.44zm22.78-16.7c-7.75 0-12.54 3.87-13.28 11.99h26.1c-.55-7.75-4.8-11.99-12.82-11.99z"/><path d="m829.55 43.25h8.67v7.66h.65c2.86-5.63 7.93-8.49 15.22-8.49 10.79 0 17.62 6.73 17.62 17.52v30.53h-9.41v-28.59c0-7.29-3.5-11.25-10.7-11.25-8.02 0-12.64 4.89-12.64 13.28v26.56h-9.41z"/></svg>