<svg width="106" height="62" viewBox="0 0 106 62" fill="none" xmlns="http://www.w3.org/2000/svg"><path d="M42.293 40.837c-11.309 0-20.474-9.143-20.474-20.42C21.819 9.142 30.984 0 42.293 0h20.673C74.275 0 83.44 9.141 83.44 20.42c0 11.276-9.165 20.42-20.474 20.42H42.293v-.003zm14.95-29.851c0-.667-.53-1.141-1.053-1.141h-6.765c-.574 0-1.144.379-1.144 1.001v7.968h8.963v-7.828zm5.19 24.732V10.657c0-3.893-2.107-5.99-4.958-5.99h-9.427a4.915 4.915 0 00-4.913 4.943v9.204h-9.737v5.17h9.737v11.738h5.146V23.985h8.963v11.737h5.189v-.004zm7.045-11.735v-5.171h-5.212v5.17h5.212zM11.795 45.606H7.74c-1.498 0-2.718 1.23-2.718 2.734v4.026H0v3.057h5.023v6.573h3.029v-6.58h3.438v6.58h3.048V48.34c0-1.56-1.176-2.734-2.74-2.734h-.004zm-.307 6.76H8.049v-3.389c0-.206.205-.333.404-.333h2.681c.166 0 .354.168.354.407v3.315zm88.619.009V48.34a2.729 2.729 0 00-2.718-2.734h-4.05c-1.564 0-2.743 1.175-2.743 2.734v13.656h3.048v-6.58h3.443v6.58h3.024v-6.57h5.027v-3.051h-5.031zm-3.024 0H93.64v-3.322c0-.24.187-.407.358-.407h2.679c.2 0 .408.125.408.334v3.397l-.002-.002zM23.38 45.606v13.03c0 .212-.19.326-.382.326h-2.68a.409.409 0 01-.383-.402V45.606h-3.02v13.66c0 1.584 1.142 2.734 2.715 2.734h4.05c1.539 0 2.748-1.201 2.748-2.734v-13.66h-3.05.002zm4.203 0v3.04h2.97v13.352h3.052V48.646h2.923v-3.04h-8.945zm16.882 0H37.69v16.39h3.026v-6.569h3.085c.197 0 .352.19.352.422v6.145h3.052v-6.872c0-.65-.309-.976-.61-1.212.312-.229.61-.603.61-1.219v-4.353c0-1.56-1.18-2.734-2.741-2.734v.002zm-.309 3.447v2.98c0 .176-.1.359-.328.359H40.72v-3.748h3.084c.203 0 .352.174.352.407v.002zm12.274-3.447h-4.05a2.73 2.73 0 00-2.717 2.734v10.926c0 1.584 1.142 2.734 2.717 2.734h4.05a2.71 2.71 0 002.741-2.734V48.34a2.71 2.71 0 00-2.741-2.734zm-.302 3.367v9.66c0 .215-.193.33-.385.33H53.06a.41.41 0 01-.38-.403V49c0-.176.102-.357.33-.357h2.731c.19 0 .385.114.385.327l.002.002zm11.887-3.367v8.555l-3.154-8.555H61.55v16.39h3.022v-8.194l3.01 8.194h3.483v-16.39h-3.05zm5.586 0v16.39h3.025v-16.39H73.6zm12.227 0h-4.052c-1.498 0-2.718 1.23-2.718 2.734v10.926c0 1.584 1.144 2.734 2.718 2.734h4.052a2.709 2.709 0 002.741-2.734v-2.553h-3.05v1.92c0 .226-.175.33-.352.33H82.46a.39.39 0 01-.377-.403V49c0-.176.097-.357.328-.357h2.756c.18 0 .352.1.352.327v1.767h3.05v-2.4a2.708 2.708 0 00-2.741-2.734v.002z" fill="#fff"/></svg>