<?xml version="1.0" encoding="UTF-8"?> <svg xmlns="http://www.w3.org/2000/svg" id="LOGO" viewBox="0 0 2286.14 568.6"><defs><style>.cls-1,.cls-2{fill:#11133c;}.cls-2{opacity:0.55;isolation:isolate;}</style></defs><g id="Group_8656" data-name="Group 8656"><path id="Path_4905" data-name="Path 4905" class="cls-1" d="M2085.33,709.07,1974.81,992.59,1863.46,709.07h-86.89l154.77,366.45h79l154.83-366.44Zm-437.51,0V902.53c0,69.5-33.94,109.8-93.18,109.8s-93.19-40.3-93.19-109.8V709.07H1384V905.7c0,109,65.54,177.69,170.6,177.69s170.6-68.67,170.6-177.69V709.07Zm-504.67-8.69a190.32,190.32,0,0,0-83.6,19.12A186,186,0,0,0,955.22,888.32c0,94,87.67,203,162.69,203a55.44,55.44,0,0,0,46.59-26.08c30.83-46.6,62.42-73.4,109-94,43.48-19,55.29-37.9,55.29-86,0-104.28-81.31-184.82-185.59-184.82ZM1225.3,946c-31.6,19.73-48.14,36.34-60.8,62.37a30.13,30.13,0,0,1-27.64,16.6c-50.56,0-108.18-66.38-108.18-124.79,0-65.54,48.15-114.53,113.69-114.53a112.58,112.58,0,0,1,112.16,113h0c0,.5,0,1,0,1.52,0,20.51-7.08,32.38-29.2,45.82ZM724.6,700.38a167.4,167.4,0,0,0-116.87,45.81L607,522.7h-75v552.82h77.42V1038.4a172.23,172.23,0,0,0,115.25,44.2c104.28,0,183.25-82.93,183.25-191.11S828.88,700.38,724.6,700.38Zm-6.3,311.17c-63.2,0-110.57-51.33-110.57-120S655.1,771.44,718.3,771.44,828.88,822.77,828.88,891.5s-47.38,120-110.59,120ZM2818.07,709.07H2705.93l-.83-186.37h-75V709.07h-51.55v67.11h51.55v299.35h76.63l-.78-299.35h112.14Z" transform="translate(-531.93 -522.7)" style="fill:#ffffff;fill-opacity:1"></path><path id="Path_5072" data-name="Path 5072" class="cls-2" d="M2399.79,771.66a110.31,110.31,0,0,0-24-4.57A95.89,95.89,0,0,1,2399.79,771.66Z" transform="translate(-531.93 -522.7)"></path><g id="qDpOXt.tif"><g id="Group_8631" data-name="Group 8631"><path id="Path_5073" data-name="Path 5073" class="cls-1" d="M2546.77,916.26H2263.64c5.72,35.56,19.85,65.12,52,83.13a113.81,113.81,0,0,0,55.18,13.54c33.38.47,64.84-6.2,91.75-27.4a306.36,306.36,0,0,0,23.23-22.35l51.78,50.51a180,180,0,0,1-35.6,32.68c-42.7,29.85-90.49,40.83-141.76,38a177.57,177.57,0,0,1-112.29-45.19c-35.06-31.53-53.58-71.77-58.77-118.42a213.12,213.12,0,0,1,17.79-117.86c27.09-56.57,72.59-88.25,133.52-97.63a182.18,182.18,0,0,1,110.76,15.31c48.21,23.79,76.18,64.07,89.56,115.48A230.84,230.84,0,0,1,2546.77,916.26Zm-281.58-62.08H2467.9a98.44,98.44,0,0,0-92.09-84.68c-58.95-3.39-100.56,28.46-110.62,84.68Z" transform="translate(-531.93 -522.7)" style="fill:#ffffff;fill-opacity:1"></path></g></g></g></svg> 