<?xml version="1.0" encoding="UTF-8" standalone="no"?>
<svg
   id="logo-full"
   viewBox="0 0 200 57"
   style="--icon-color: rgb(var(--color-red-500, 255, 106, 76)); --text-color: rgb(var(--color-forest-green-700, 4, 36, 45));"
   version="1.1"
   sodipodi:docname="crayon.svg"
   inkscape:version="1.3.2 (091e20e, 2023-11-25)"
   xmlns:inkscape="http://www.inkscape.org/namespaces/inkscape"
   xmlns:sodipodi="http://sodipodi.sourceforge.net/DTD/sodipodi-0.dtd"
   xmlns="http://www.w3.org/2000/svg"
   xmlns:svg="http://www.w3.org/2000/svg">
  <defs
     id="defs18" />
  <sodipodi:namedview
     id="namedview18"
     pagecolor="#ffffff"
     bordercolor="#000000"
     borderopacity="0.25"
     inkscape:showpageshadow="2"
     inkscape:pageopacity="0.0"
     inkscape:pagecheckerboard="0"
     inkscape:deskcolor="#d1d1d1"
     inkscape:zoom="2.66"
     inkscape:cx="100"
     inkscape:cy="28.383459"
     inkscape:window-width="1392"
     inkscape:window-height="1212"
     inkscape:window-x="1482"
     inkscape:window-y="268"
     inkscape:window-maximized="0"
     inkscape:current-layer="logo-full" />
  <path
     d="M6.06516 34.3275C9.92899 38.1922 15.0058 40.1236 20.081 40.1236C25.1562 40.1236 30.2331 38.1913 34.0977 34.3275L52.218 16.2064L47.6842 11.6725L29.5639 29.7937C24.335 35.0226 15.8271 35.0226 10.5982 29.7937L10.33 29.5255C5.10109 24.2966 5.10109 15.7886 10.33 10.5597L10.5597 10.33C15.7886 5.10109 24.2966 5.10109 29.5255 10.33L31.0869 11.8914L35.6207 7.35756L34.0593 5.79616C26.3308 -1.93233 13.7552 -1.93233 6.02673 5.79616L5.79699 6.0259C-1.9315 13.7544 -1.9315 26.33 5.79699 34.0585L6.06516 34.3267V34.3275Z"
     fill="var(--icon-color)"
     id="path1" />
  <path
     d="M68.8705 5.79616C65.0067 1.93233 59.9307 0 54.8546 0C49.7786 0 44.7026 1.93233 40.8379 5.79616L22.7176 23.9173L27.2515 28.4511L45.3718 10.3308C50.6007 5.10192 59.1086 5.10192 64.3375 10.3308L64.6057 10.599C69.8346 15.8279 69.8346 24.3358 64.6057 29.5647L64.3759 29.7945C59.147 35.0234 50.6391 35.0234 45.4102 29.7945L43.8488 28.2331L39.3149 32.7669L40.8764 34.3283C48.6048 42.0568 61.1804 42.0568 68.9089 34.3283L69.1387 34.0986C76.8672 26.3701 76.8672 13.7945 69.1387 6.066L68.8705 5.79783V5.79616Z"
     fill="var(--icon-color)"
     id="path2" />
  <path
     d="M162.19 15.1855L151.794 40.0635H148.143L150.982 33.0393L143.628 15.1855H147.324L152.87 28.7135L158.493 15.1855H162.19Z"
     fill="currentColor"
     id="path3"
     style="fill:#ffffff" />
  <path
     d="M84.553 20.0618C84.553 12.3935 90.6483 6.17962 98.3166 6.17962C102.485 6.17962 106.103 7.94987 108.502 10.7811L105.906 12.9833C104.097 10.8596 101.345 9.48287 98.3166 9.48287C92.6149 9.48287 88.1312 14.2414 88.1312 20.061C88.1312 25.8805 92.614 30.6391 98.3166 30.6391C101.345 30.6391 104.097 29.2632 105.906 27.1395L108.502 29.3417C106.104 32.1729 102.485 33.9424 98.3166 33.9424C90.6483 33.9424 84.553 27.7293 84.553 20.061"
     fill="currentColor"
     id="path4"
     style="fill:#ffffff" />
  <path
     d="M122.717 15.5004L122.166 18.7251C121.183 18.2531 120.2 18.0961 119.492 18.0961C115.835 18.0961 114.38 21.9891 114.38 26.8262V33.5505H110.92V15.1855H114.38V19.3542C115.324 16.1295 117.094 14.7928 119.531 14.7928C120.829 14.7928 122.166 15.147 122.717 15.5013"
     fill="currentColor"
     id="path5"
     style="fill:#ffffff" />
  <path
     d="M138.369 24.3091C138.369 20.3375 135.145 18.0175 132.117 18.0175C128.774 18.0175 126.1 20.6132 126.1 24.3091C126.1 28.005 128.774 30.7193 132.117 30.7193C135.459 30.7193 138.369 28.2414 138.369 24.3091ZM141.791 15.1855V33.5505H138.37V30.6408C137.151 32.7644 134.477 33.944 131.842 33.944C126.809 33.944 122.64 30.1295 122.64 24.3492C122.64 18.5689 126.769 14.7937 131.803 14.7937C134.556 14.7937 137.151 15.8947 138.37 18.0576V15.1871H141.791V15.1855Z"
     fill="currentColor"
     id="path6"
     style="fill:#ffffff" />
  <path
     d="M177.739 24.3091C177.739 20.5338 174.907 18.0175 171.525 18.0175C168.144 18.0175 165.391 20.5347 165.391 24.3091C165.391 28.0835 168.183 30.7193 171.525 30.7193C174.868 30.7193 177.739 28.1236 177.739 24.3091ZM161.93 24.3091C161.93 18.4887 166.295 14.792 171.525 14.792C176.754 14.792 181.16 18.4887 181.16 24.3091C181.16 30.1295 176.755 33.9432 171.525 33.9432C166.294 33.9432 161.93 30.1287 161.93 24.3091Z"
     fill="currentColor"
     id="path7"
     style="fill:#ffffff" />
  <path
     d="M200 22.9323V33.5497H196.579V23.1287C196.579 20.061 194.692 18.1738 192.135 18.1738C189.579 18.1738 186.512 19.6291 186.512 23.6007V33.5497H183.091V15.1846H186.512V17.9766C187.613 15.7352 190.601 14.7911 192.607 14.7911C197.169 14.7911 200.04 17.7803 200.001 22.9315"
     fill="currentColor"
     id="path8"
     style="fill:#ffffff" />
  <path
     d="M111.587 51.2715C111.587 48.5522 113.749 46.279 116.468 46.279C117.987 46.279 119.312 46.9482 120.164 48.0084L119.104 48.8588C118.49 48.1061 117.541 47.6174 116.482 47.6174C114.53 47.6174 113.023 49.2907 113.023 51.2707C113.023 53.2506 114.515 54.8822 116.482 54.8822C117.541 54.8822 118.49 54.3943 119.104 53.6416L120.164 54.4921C119.312 55.5522 117.988 56.2214 116.468 56.2214C113.749 56.2214 111.587 53.99 111.587 51.2707V51.2715Z"
     fill="currentColor"
     id="path9"
     style="fill:#ffffff" />
  <path
     d="M121.476 51.2715C121.476 48.538 123.596 46.279 126.329 46.279C129.063 46.279 131.21 48.538 131.21 51.2715C131.21 54.005 129.076 56.2222 126.329 56.2222C123.582 56.2222 121.476 53.9908 121.476 51.2715ZM129.774 51.2715C129.774 49.2916 128.296 47.6182 126.329 47.6182C124.363 47.6182 122.912 49.2916 122.912 51.2715C122.912 53.2515 124.377 54.883 126.329 54.883C128.282 54.883 129.774 53.2373 129.774 51.2715Z"
     fill="currentColor"
     id="path10"
     style="fill:#ffffff" />
  <path
     d="M138.834 46.4469H140.27V56.0551H138.917L134.72 49.0551V56.0551H133.283V46.4469H134.678L138.833 53.3918V46.4469H138.834Z"
     fill="currentColor"
     id="path11"
     style="fill:#ffffff" />
  <path
     d="M142.893 53.2941H144.315C144.343 54.117 145.109 54.9114 146.309 54.9114C147.509 54.9114 148.122 54.1863 148.122 53.3918C148.122 52.5414 147.355 52.137 146.574 51.9273L145.347 51.6207C143.297 51.1053 142.962 49.8914 142.962 49.0969C142.962 47.4094 144.454 46.2799 146.155 46.2799C147.856 46.2799 149.237 47.3676 149.237 49.1245H147.815C147.815 48.218 147.104 47.5906 146.114 47.5906C145.208 47.5906 144.399 48.1905 144.399 49.0693C144.399 49.3759 144.497 50.0033 145.71 50.3241L146.923 50.6592C148.541 51.0919 149.559 51.914 149.559 53.3225C149.559 54.9265 148.248 56.2231 146.31 56.2231C144.26 56.2231 142.893 54.8421 142.893 53.2949V53.2941Z"
     fill="currentColor"
     id="path12"
     style="fill:#ffffff" />
  <path
     d="M151.916 52.7502V46.4469H153.353V52.736C153.353 54.2005 154.328 54.8555 155.458 54.8555C156.587 54.8555 157.577 54.2005 157.577 52.736V46.4469H159.013V52.7502C159.013 54.9532 157.368 56.2222 155.457 56.2222C153.546 56.2222 151.915 54.9532 151.915 52.7502H151.916Z"
     fill="currentColor"
     id="path13"
     style="fill:#ffffff" />
  <path
     d="M163.566 54.7435H167.429V56.0543H162.129V46.4461H163.566V54.7435Z"
     fill="currentColor"
     id="path14"
     style="fill:#ffffff" />
  <path
     d="M174.484 46.4469V47.7577H171.625V56.0551H170.189V47.7577H167.33V46.4469H174.484Z"
     fill="currentColor"
     id="path15"
     style="fill:#ffffff" />
  <path
     d="M176.617 56.0551V46.4469H178.053V56.0551H176.617Z"
     fill="currentColor"
     id="path16"
     style="fill:#ffffff" />
  <path
     d="M186.826 46.4469H188.262V56.0551H186.91L182.712 49.0551V56.0551H181.276V46.4469H182.67L186.826 53.3918V46.4469Z"
     fill="currentColor"
     id="path17"
     style="fill:#ffffff" />
  <path
     d="M190.56 51.2715C190.56 48.538 192.693 46.279 195.426 46.279C196.737 46.279 197.908 46.7945 198.745 47.604L197.741 48.5246C197.141 47.9666 196.319 47.604 195.426 47.604C193.488 47.604 191.996 49.2916 191.996 51.2715C191.996 53.2515 193.488 54.8972 195.44 54.8972C197.058 54.8972 198.424 53.8237 198.424 52.4152H195.663V51.188H200C200 54.6048 198.173 56.2222 195.454 56.2222C192.736 56.2222 190.56 53.9908 190.56 51.2715Z"
     fill="currentColor"
     id="path18"
     style="fill:#ffffff" />
</svg>
