<?xml version="1.0" encoding="UTF-8"?> <svg xmlns="http://www.w3.org/2000/svg" width="305" height="65" viewBox="0 0 305 65" fill="none"><path d="M33.386 0.106445C15.8405 0.106445 1.61696 14.5901 1.61694 32.4566C1.61696 50.3232 15.8405 64.8068 33.386 64.8068C40.4206 64.8068 47.1295 62.6447 52.6665 58.2352C52.7228 58.1904 52.7107 58.1002 52.6449 58.0716C43.027 53.8961 36.5343 43.6949 36.5343 32.4403C36.5343 21.1961 43.0146 11.0028 52.6184 6.82059C52.6842 6.79195 52.6962 6.7018 52.6398 6.65698C47.2556 2.37695 40.7523 0.106445 33.386 0.106445ZM31.842 60.4587C31.9211 60.5107 31.8836 60.6353 31.7894 60.6338C18.1847 60.4154 6.83159 46.5674 6.83159 32.4406C6.83159 18.294 18.1847 4.46093 31.8457 4.24281C31.9399 4.24131 31.9774 4.36616 31.8981 4.41805C23.0739 9.42743 16.5015 21.0053 16.5015 32.4568C16.5015 43.8839 23.0492 55.4433 31.842 60.4587ZM21.7605 32.4568C21.7605 18.3667 31.2753 5.89782 45.1031 5.89782C45.1974 5.89652 45.235 6.02223 45.1556 6.07405C36.371 11.8092 31.2753 21.3845 31.2753 32.4403C31.2753 43.5212 36.3966 53.2091 45.2134 58.9399C45.2929 58.9916 45.2553 59.1175 45.1609 59.1162C31.2753 59.1162 21.7605 46.5677 21.7605 32.4568Z" fill="#0054F6"></path><path d="M58.9727 13.0211C59.0008 13.0592 58.997 13.1124 58.9641 13.1461C54.1346 18.0879 50.7626 24.9285 50.7626 32.359C50.7626 39.8314 54.1685 46.7072 59.046 51.6553C59.0791 51.6889 59.083 51.7421 59.0551 51.7803C58.0728 53.1212 56.9909 54.382 55.8204 55.5513C55.7845 55.5871 55.7272 55.5877 55.6907 55.5525C48.1463 48.9694 45.5036 40.297 45.5036 32.359C45.5036 24.421 48.1047 15.8397 55.5908 9.26218C55.6272 9.22683 55.6845 9.22711 55.7205 9.26281C56.8966 10.4274 57.9844 11.684 58.9727 13.0211Z" fill="#0054F6"></path><path d="M65.1551 32.4568C65.1551 36.8986 64.276 41.1314 62.6853 44.9845C62.6536 45.0611 62.548 45.0622 62.5148 44.9862C60.841 41.152 59.7231 36.9067 59.7231 32.4402C59.7231 27.98 60.8384 23.7403 62.5078 19.9104C62.5409 19.8344 62.6465 19.8354 62.6782 19.9121C64.2734 23.7697 65.1551 28.0084 65.1551 32.4568Z" fill="#0054F6"></path><path d="M300.109 34.039L296.974 36.9279V34.7993C296.974 32.772 296.393 31.1839 295.232 30.0351C294.07 28.8864 292.511 28.312 290.553 28.312C289.292 28.312 288.181 28.5823 287.218 29.1229C286.256 29.6297 285.509 30.3899 284.979 31.4036C284.481 32.3834 284.232 33.5491 284.232 34.9006V37.232C284.265 39.4958 284.829 41.2866 285.924 42.6043C287.052 43.922 288.645 44.5809 290.702 44.5809C292.361 44.5809 293.722 44.2092 294.784 43.4659C295.845 42.7225 296.542 41.6582 296.874 40.2729H303.394C302.963 43.1111 301.669 45.4087 299.512 47.1657C297.355 48.8889 294.435 49.7505 290.752 49.7505C288.031 49.7505 285.692 49.1761 283.734 48.0273C281.777 46.8785 280.283 45.2904 279.255 43.2632C278.226 41.2359 277.712 38.9214 277.712 36.3197C277.712 33.6167 278.243 31.3022 279.305 29.3763C280.366 27.4166 281.843 25.913 283.734 24.8656C285.659 23.8181 287.882 23.2944 290.404 23.2944C293.058 23.2944 295.364 23.8013 297.322 24.8149C299.28 25.7947 300.773 27.2307 301.801 29.1229C302.83 31.015 303.344 33.2788 303.344 35.9143V37.8909H283.336V34.039H300.109Z" fill="white"></path><path d="M275.652 23.8013L269.214 49.2436H254.468L247.929 23.8013H254.599L259.96 45.3638H263.82L269.132 23.8013H275.652Z" fill="white"></path><path d="M240.546 21.0989C239.304 21.0989 238.31 20.7861 237.564 20.1606C236.85 19.5038 236.492 18.6124 236.492 17.4865C236.492 16.3605 236.85 15.4848 237.564 14.8592C238.31 14.2024 239.288 13.874 240.5 13.874C241.711 13.874 242.705 14.2024 243.482 14.8592C244.258 15.4848 244.647 16.3605 244.647 17.4865C244.647 18.6124 244.258 19.5038 243.482 20.1606C242.736 20.7861 241.758 21.0989 240.546 21.0989Z" fill="white"></path><path d="M243.886 23.6686H237.067V49.2436H243.886V23.6686Z" fill="white"></path><path d="M233.43 46.8326C233.43 46.8326 228.876 49.7441 223.109 49.7441C217.342 49.7441 213.578 46.1531 213.578 40.039V23.7948L214.633 16.3003H220.148V40.0124C220.148 42.139 221.413 44.2165 224.422 44.0152C227.555 43.8057 228.575 43.0905 231.682 41.9261L233.43 46.8326ZM230.696 23.8012V29.6803H209.923V23.8012H230.696Z" fill="white"></path><path d="M182.902 14.3647H189.472V34.0898H189.273L200.073 23.8013H208.236L193.056 38.4484L193.155 33.8364L208.186 49.2437H200.073L189.273 38.1443H189.472V49.2437H182.902V14.3647Z" fill="white"></path><path d="M151.406 23.8013H156.917L157.976 30.9474H157.777C158.341 28.616 159.502 26.7577 161.261 25.3724C163.02 23.9871 165.293 23.2944 168.08 23.2944C170.137 23.2944 171.896 23.7506 173.356 24.6628C174.815 25.5751 175.944 26.8929 176.74 28.616C177.536 30.3392 177.935 32.4341 177.935 34.9006V49.2436H171.265V35.8636C171.265 33.4308 170.834 31.7077 169.971 30.694C169.142 29.6804 167.731 29.1735 165.74 29.1735C164.115 29.1735 162.721 29.5452 161.56 30.2886C160.431 30.9981 159.552 32.1131 158.922 33.6336C158.291 35.1202 157.976 37.0124 157.976 39.31V49.2436H151.406V23.8013Z" fill="white"></path><path d="M129.508 49.7505C127.484 49.7505 125.725 49.3112 124.232 48.4327C122.772 47.5205 121.644 46.2027 120.848 44.4795C120.084 42.7226 119.703 40.6108 119.703 38.1443V23.8013H126.323V37.1813C126.323 39.6141 126.737 41.3373 127.567 42.3509C128.43 43.3645 129.873 43.8714 131.897 43.8714C133.523 43.8714 134.9 43.5166 136.028 42.807C137.189 42.0637 138.085 40.9487 138.716 39.462C139.346 37.9416 139.661 36.0325 139.661 33.7349V23.8013H146.231V49.2436H140.72L139.661 42.0975H139.86C139.296 44.4289 138.118 46.2872 136.327 47.6725C134.568 49.0578 132.295 49.7505 129.508 49.7505Z" fill="white"></path><path d="M90.8923 15.6694H116.738V21.7513H97.8604V31.9761H113.077V37.9059H97.8604V49.2436H90.8923V15.6694Z" fill="white"></path></svg> 