<?xml version="1.0" encoding="UTF-8" standalone="no"?> <svg xmlns="http://www.w3.org/2000/svg" xmlns:svg="http://www.w3.org/2000/svg" version="1.1" id="svg226" width="735.32001" height="350.25333" viewBox="0 0 735.32001 350.25333"><defs id="defs230"></defs><g id="g234" transform="matrix(1.3333333,0,0,-1.3333333,0,350.25333)"><g id="g236" transform="scale(0.1)"><path d="M 1265.33,770.07 V 925.301 C 1344.11,867.102 1430.83,838 1525.49,838 c 127,0 190.52,42.32 190.52,127 0,24.102 -5.45,44.52 -16.33,61.29 -10.88,16.75 -25.57,31.6 -44.09,44.53 -18.53,12.93 -40.29,24.55 -65.27,34.83 -24.98,10.29 -51.89,21.04 -80.69,32.19 -40,15.89 -75.12,31.92 -105.39,48.07 -30.3,16.16 -55.58,34.41 -75.86,54.66 -20.27,20.31 -35.57,43.36 -45.84,69.25 -10.31,25.88 -15.45,56.16 -15.45,90.83 0,42.37 9.71,79.84 29.1,112.47 19.4,32.63 45.29,59.96 77.61,82.02 32.33,22.03 69.23,38.64 110.69,49.82 41.44,11.16 84.22,16.74 128.32,16.74 78.19,0 148.16,-13.5 209.9,-40.55 v -146.43 c -66.46,43.54 -142.87,65.28 -229.31,65.28 -27.03,0 -51.44,-3.08 -73.2,-9.26 -21.75,-6.16 -40.42,-14.85 -55.99,-26.02 -15.59,-11.16 -27.67,-24.56 -36.15,-40.11 -8.53,-15.6 -12.8,-32.81 -12.8,-51.59 0,-23.53 4.27,-43.23 12.8,-59.11 8.48,-15.85 21.01,-29.97 37.48,-42.32 16.45,-12.33 36.43,-23.53 59.95,-33.51 23.52,-10 50.28,-20.9 80.27,-32.64 39.97,-15.31 75.83,-31.01 107.6,-47.19 31.75,-16.17 58.76,-34.36 81.12,-54.7 22.34,-20.25 39.54,-43.62 51.6,-70.09 12.05,-26.44 18.1,-57.9 18.1,-94.358 0,-44.692 -9.88,-83.512 -29.55,-116.411 -19.72,-32.961 -46.02,-60.3 -78.96,-82.011 -32.91,-21.758 -70.84,-37.93 -113.76,-48.5 -42.91,-10.598 -87.89,-15.918 -134.94,-15.918 -92.9,0 -173.44,17.98 -241.64,53.808" style="fill:#ffffff;fill-opacity:1;fill-rule:nonzero;stroke:none" id="path238"></path><path d="m 2092.91,1869.86 c -25.9,0 -47.94,8.81 -66.16,26.44 -18.22,17.67 -27.35,39.99 -27.35,67.04 0,27.04 9.13,49.52 27.35,67.48 18.22,17.91 40.26,26.88 66.16,26.88 26.44,0 48.94,-8.97 67.45,-26.88 18.52,-17.96 27.78,-40.44 27.78,-67.48 0,-25.89 -9.26,-47.93 -27.78,-66.15 -18.51,-18.23 -41.01,-27.33 -67.45,-27.33 m 70.54,-1094.469 c 0,-148.192 -29.85,-262.391 -89.52,-342.629 -59.67,-80.282 -145.07,-120.391 -256.19,-120.391 -41.15,0 -81.14,9.418 -119.95,28.188 v 134.953 c 43.51,-26.453 84.66,-39.723 123.48,-39.723 131.69,0 197.54,105.313 197.54,315.77 v 889.011 h 144.64 V 775.391" style="fill:#ffffff;fill-opacity:1;fill-rule:nonzero;stroke:none" id="path240"></path><path d="m 3003.9,1275.43 c -0.61,83.47 -20.76,148.46 -60.43,194.9 -39.71,46.44 -94.82,69.67 -165.37,69.67 -68.2,0 -126.13,-24.38 -173.73,-73.21 -47.62,-48.81 -77.04,-112.57 -88.21,-191.36 z m 148.15,-122.6 H 2514.4 c 2.34,-100.51 29.4,-178.139 81.14,-232.83 51.72,-54.68 122.88,-81.988 213.44,-81.988 101.71,0 195.19,33.5 280.44,100.508 V 802.711 c -79.37,-57.621 -184.31,-86.449 -314.83,-86.449 -127.6,0 -227.87,41.039 -300.76,123.07 -67.81,76.277 -104.1,181.468 -108.82,315.478 -0.37,10.06 -0.54,20.28 -0.54,30.65 0,33.9 1.34,66.29 5.98,97.16 14.58,97.09 53.07,179.21 113.52,246.35 79.66,88.48 178.6,132.74 296.77,132.74 118.17,0 209.6,-38.23 274.29,-114.65 64.68,-76.43 97.02,-182.56 97.02,-318.38 v -75.85" style="fill:#ffffff;fill-opacity:1;fill-rule:nonzero;stroke:none" id="path242"></path><path d="m 3771.97,1947.45 c -28.24,15.89 -60.27,23.82 -96.14,23.82 -101.12,0 -151.7,-63.8 -151.7,-191.38 v -139.32 h 211.66 V 1517.08 H 3524.13 V 737.43 h -143.74 v 779.65 h -154.37 v 123.49 h 154.37 v 146.37 c 0,94.66 27.31,169.48 82,224.48 54.68,54.96 122.89,82.44 204.61,82.44 44.09,0 79.06,-5.29 104.97,-15.87 v -130.54" style="fill:#ffffff;fill-opacity:1;fill-rule:nonzero;stroke:none" id="path244"></path><path d="m 5510.1,737.43 h -144.62 v 515.08 c 0,191.64 -69.96,287.49 -209.93,287.49 -72.28,0 -132.13,-27.19 -179.49,-81.56 -47.3,-54.41 -70.95,-123.03 -70.95,-205.93 V 737.43 h -144.65 v 903.14 h 144.65 v -149.93 h 3.53 c 68.19,114.03 166.96,171.06 296.32,171.06 98.77,0 174.33,-31.9 226.65,-95.69 52.34,-63.79 78.49,-155.92 78.49,-276.47 V 737.43" style="fill:#ffffff;fill-opacity:1;fill-rule:nonzero;stroke:none" id="path246"></path><path d="m 3524.12,1142.63 h -143.73 v 132.76 h 143.73 v -132.76" style="fill:#9d9d9d;fill-opacity:1;fill-rule:nonzero;stroke:none" id="path248"></path><path d="m 2370.45,1282.89 h 778.96 c 0,0 7.4,-75.49 2.64,-132.78 h -787.04 c -3.87,66.4 5.44,132.78 5.44,132.78" style="fill:#9d9d9d;fill-opacity:1;fill-rule:nonzero;stroke:none" id="path250"></path><path d="m 2163.45,1142.63 h -144.63 v 132.76 h 144.63 v -132.76" style="fill:#9d9d9d;fill-opacity:1;fill-rule:nonzero;stroke:none" id="path252"></path><path d="M 517.262,720.98 H 133.66 v 1231.96 c 0,0 79.504,-47.72 191.797,-47.72 110.375,0 191.805,47.72 191.805,47.72 V 720.98" style="fill:#9d9d9d;fill-opacity:1;fill-rule:nonzero;stroke:none" id="path254"></path><path d="m 650.906,2323.15 c 0,-167.73 -145.691,-303.72 -325.445,-303.72 C 145.719,2019.43 0,2155.42 0,2323.15 c 0,167.73 145.719,303.71 325.461,303.71 179.754,0 325.445,-135.98 325.445,-303.71" style="fill:#9d9d9d;fill-opacity:1;fill-rule:nonzero;stroke:none" id="path256"></path><path d="M 1610,2616.53 V 1981.96 H 1118.72 V 726.461 H 620.621 V 2011.47 c 95.524,59.6 145.317,179.94 145.317,301.93 0,145.15 -39.286,228.07 -140.985,303.13 H 1610" style="fill:#ffffff;fill-opacity:1;fill-rule:nonzero;stroke:none" id="path258"></path><path d="m 956.941,1231.58 c 0,-79.09 -64.089,-143.15 -143.152,-143.15 -79.055,0 -143.141,64.06 -143.141,143.15 0,79.04 64.086,143.14 143.141,143.14 79.063,0 143.152,-64.1 143.152,-143.14" style="fill:#9d9d9d;fill-opacity:1;fill-rule:nonzero;stroke:none" id="path260"></path><path d="m 874.324,1231.58 c 0,-33.9 -27.457,-61.36 -61.34,-61.36 -33.871,0 -61.343,27.46 -61.343,61.36 0,33.87 27.472,61.33 61.343,61.33 33.883,0 61.34,-27.46 61.34,-61.33" style="fill:#d4d4d2;fill-opacity:1;fill-rule:nonzero;stroke:none" id="path262"></path><path d="M 1118.72,1168.1 H 929.203 v 126.94 H 1118.72 V 1168.1" style="fill:#9d9d9d;fill-opacity:1;fill-rule:nonzero;stroke:none" id="path264"></path><path d="m 4421.73,1275.43 c -0.61,83.47 -20.76,148.46 -60.44,194.9 -39.71,46.43 -94.81,69.67 -165.37,69.67 -68.2,0 -126.11,-24.38 -173.73,-73.21 -47.61,-48.81 -77.04,-112.57 -88.19,-191.36 z m 148.15,-122.6 h -637.66 c 2.36,-100.51 29.41,-178.139 81.15,-232.83 51.72,-54.68 122.87,-81.988 213.44,-81.988 101.7,0 195.19,33.5 280.44,100.508 V 802.711 c -79.37,-57.621 -184.31,-86.449 -314.83,-86.449 -127.61,0 -227.87,41.039 -300.76,123.07 -67.81,76.277 -104.09,181.468 -108.83,315.478 -0.36,10.06 -0.54,20.28 -0.54,30.65 0,33.9 1.35,66.29 5.98,97.16 14.6,97.09 53.08,179.21 113.53,246.35 79.67,88.48 178.6,132.74 296.77,132.74 118.17,0 209.59,-38.23 274.29,-114.65 64.67,-76.43 97.02,-182.56 97.02,-318.38 v -75.85" style="fill:#ffffff;fill-opacity:1;fill-rule:nonzero;stroke:none" id="path266"></path><path d="m 3788.27,1282.89 h 778.97 c 0,0 7.4,-75.49 2.64,-132.78 h -787.05 c -3.85,66.4 5.44,132.78 5.44,132.78" style="fill:#9d9d9d;fill-opacity:1;fill-rule:nonzero;stroke:none" id="path268"></path><path d="m 5349.92,373.672 h -111.36 v 47.66 h 276.36 v -47.66 H 5403.07 V 90.2891 h -53.15 V 373.672" style="fill:#ffffff;fill-opacity:1;fill-rule:nonzero;stroke:none" id="path270"></path><path d="m 5135.77,421.332 h 53.18 V 90.2891 h -53.18 V 421.332" style="fill:#ffffff;fill-opacity:1;fill-rule:nonzero;stroke:none" id="path272"></path><path d="m 4756.25,255.809 c 0,96.812 77.23,171.031 174.03,171.031 62.21,0 113.87,-30.098 141.96,-76.238 l -40.12,-29.59 c -23.07,35.617 -57.2,57.168 -101.32,57.168 -68.21,0 -119.38,-51.649 -119.38,-122.371 0,-70.719 51.17,-122.387 119.38,-122.387 44.12,0 78.25,21.57 101.32,57.18 l 40.12,-29.59 c -27.61,-46.153 -79.75,-76.2503 -141.96,-76.2503 -96.8,0 -174.03,73.7383 -174.03,171.0473" style="fill:#ffffff;fill-opacity:1;fill-rule:nonzero;stroke:none" id="path274"></path><path d="m 4498.55,421.332 h 217.7 v -47.66 h -164.51 v -84.774 h 123.87 V 242.762 H 4551.74 V 137.93 h 170.54 V 90.2891 H 4498.55 V 421.332" style="fill:#ffffff;fill-opacity:1;fill-rule:nonzero;stroke:none" id="path276"></path><path d="M 4269.96,381.699 V 336.57 h 58.17 v -45.648 h -58.17 V 90.2891 h -52.67 V 290.922 h -35.13 v 45.648 h 35.13 v 49.649 c 0,59.691 35.59,85.769 87.77,85.769 14.04,0 24.57,-1.508 34.12,-4.527 v -44.629 c -8.05,1.008 -14.57,1.5 -21.09,1.5 -30.08,0 -48.13,-10.023 -48.13,-42.633" style="fill:#ffffff;fill-opacity:1;fill-rule:nonzero;stroke:none" id="path278"></path><path d="m 4094.06,213.172 c 0,46.137 -33.11,80.75 -76.26,80.75 -44.13,0 -76.75,-34.613 -76.75,-80.75 0,-45.652 32.62,-79.75 76.26,-79.75 43.64,0 76.75,34.609 76.75,79.75 z m -206.65,0.5 c 0,72.238 57.16,128.41 129.9,128.41 73.23,0 130.91,-56.684 130.91,-128.41 0,-71.731 -57.68,-128.9103 -130.91,-128.9103 -72.74,0 -129.9,57.1793 -129.9,128.9103" style="fill:#ffffff;fill-opacity:1;fill-rule:nonzero;stroke:none" id="path280"></path><path d="M 3709.46,134.93 V 90.2891 c -13.56,-3.0196 -27.08,-5.5274 -43.64,-5.5274 -54.68,0 -90.79,26.0903 -90.79,85.7773 v 120.383 h -40.12 v 45.648 h 40.12 v 64.692 h 53.15 V 336.57 h 73.23 v -45.648 h -73.23 V 175.051 c 0,-32.602 18.09,-42.629 48.66,-42.629 9.03,0 19.58,1 32.62,2.508" style="fill:#ffffff;fill-opacity:1;fill-rule:nonzero;stroke:none" id="path282"></path><path d="m 3515.9,336.57 v -46.66 h -16.03 c -39.14,0 -72.22,-22.558 -72.22,-68.211 V 90.2891 h -52.67 V 336.57 h 49.15 v -32.101 c 17.57,22.562 43.64,34.59 71.73,34.59 8.51,0 14.54,-0.989 20.04,-2.489" style="fill:#ffffff;fill-opacity:1;fill-rule:nonzero;stroke:none" id="path284"></path><path d="m 3248.72,183.57 v 4.52 h -63.22 c -28.06,0 -43.64,-10.02 -43.64,-30.098 0,-21.562 19.07,-32.594 43.15,-32.594 34.61,0 63.71,24.571 63.71,58.172 z m 53.16,55.68 V 90.2891 h -49.15 v 27.5819 c -17.56,-21.0702 -44.65,-33.1093 -78.77,-33.1093 -51.65,0 -85.74,28.5973 -85.74,71.2263 0,43.153 35.59,70.231 90.76,70.231 h 69.74 v 16.051 c 0,34.101 -19.06,52.66 -52.66,52.66 -28.62,0 -48.66,-13.539 -68.24,-36.61 l -30.58,31.09 c 25.59,36.11 62.19,52.672 103.84,52.672 59.18,0 100.8,-34.621 100.8,-102.832" style="fill:#ffffff;fill-opacity:1;fill-rule:nonzero;stroke:none" id="path286"></path><path d="m 2991.52,213.172 c 0,47.66 -32.63,80.75 -75.25,80.75 -36.6,0 -74.24,-24.063 -74.24,-80.25 0,-55.68 37.12,-80.762 74.24,-80.762 42.14,0 75.25,32.61 75.25,80.262 z m 54.16,0.5 c 0,-73.731 -50.68,-128.9103 -120.88,-128.9103 -33.6,0 -63.19,13.0469 -82.25,35.6173 V 0 h -52.67 v 336.57 h 49.15 v -34.609 c 18.05,25.578 49.66,40.121 85.77,40.121 70.2,0 120.88,-55.184 120.88,-128.41" style="fill:#ffffff;fill-opacity:1;fill-rule:nonzero;stroke:none" id="path288"></path><path d="m 2523.22,183.57 v 4.52 H 2460 c -28.06,0 -43.64,-10.02 -43.64,-30.098 0,-21.562 19.06,-32.594 43.15,-32.594 34.61,0 63.71,24.571 63.71,58.172 z m 53.16,55.68 V 90.2891 h -49.15 v 27.5819 c -17.57,-21.0702 -44.65,-33.1093 -78.77,-33.1093 -51.65,0 -85.74,28.5973 -85.74,71.2263 0,43.153 35.59,70.231 90.76,70.231 h 69.74 v 16.051 c 0,34.101 -19.06,52.66 -52.66,52.66 -28.62,0 -48.66,-13.539 -68.25,-36.61 l -30.57,31.09 c 25.59,36.11 62.19,52.672 103.83,52.672 59.19,0 100.81,-34.621 100.81,-102.832" style="fill:#ffffff;fill-opacity:1;fill-rule:nonzero;stroke:none" id="path290"></path></g></g></svg> 