<svg xmlns="http://www.w3.org/2000/svg" width="69" height="24" viewBox="0 0 69 24">
    <g fill="#FFF" fill-rule="nonzero">
        <path d="M.051 7.512H2.38v13.249H.051zM10.631 18.61h-.103L7.625 7.512H5.192l3.71 13.249h3.401l3.701-13.25h-2.428zM31.867 20.76h2.328V9.711h4.011v-2.2h-6.34zM.05 4.528l2.328 1.155.002-2.984L.052 1.543zM23.323 7.2c-3.239 0-5.718 2.134-5.718 6.27v1.411c0 3.941 2.556 6.213 5.879 6.213 2.84 0 5.222-1.582 5.222-4.547h-2.294c-.085 1.892-1.494 2.375-2.928 2.375-1.564 0-3.582-.982-3.582-3.71v-.339H28.8v-1.898c0-3.42-2.018-5.775-5.477-5.775zm-3.393 5.478c.084-.988.366-1.668.76-2.205.674-.903 1.837-1.158 2.653-1.158 1.52 0 3.104.822 3.132 3.363H19.93z"></path>
        <g>
            <path d="M47.124 15.873v8.053l21.818-6.748V9.124zM62.533 3.021L56.548.051l-.004 8.086 5.985 2.97z"></path>
        </g>
    </g>
</svg>