<?xml version="1.0" encoding="UTF-8"?> <svg xmlns="http://www.w3.org/2000/svg" width="355" height="116" viewBox="0 0 355 116" fill="none"><g clip-path="url(#clip0_430_2897)"><path d="M94.9151 92.3314C93.9216 92.3314 92.7073 93.2078 87.4086 93.2078C53.0655 93.2078 60.9889 54.8657 34.3791 47.9336C58.9099 42.4562 81.3311 17.8016 81.3311 10.9061C81.3311 5.09393 76.9156 0.821528 72.7453 0.821528C71.2551 0.821528 50.594 40.4782 23.4015 43.5699C28.6879 29.992 33.8456 18.6963 33.8456 13.4257C33.8456 4.87484 26.4495 0.383331 22.0339 0.383331C21.5924 0.383331 21.3716 0.492881 21.3716 0.821528C21.3716 25.9204 0.0543213 61.3169 0.0543213 75.7834C0.0543213 85.6428 6.90456 90.6881 11.0932 90.6881C11.7555 90.6881 11.9763 90.469 11.9763 89.8118C11.9763 77.0311 16.1588 62.9175 20.8687 50.1368C47.546 55.0056 39.1013 101.643 76.5783 101.643C89.3895 101.643 95.6817 94.7415 95.6817 92.9887C95.6878 92.5505 95.3566 92.3314 94.9151 92.3314Z" fill="white"></path><path d="M353.877 56.3868C346.727 63.3066 338.006 68.3337 332.18 70.1047C338.061 53.5446 345.794 35.0796 345.794 34.4649C345.794 32.8217 338.178 28.7684 337.074 28.7684C336.804 28.7684 335.97 30.2168 334.817 32.5478C332.211 30.4055 328.378 28.2206 324.391 28.2206C310.899 28.2206 295.126 46.1927 295.126 62.7406C295.126 74.9127 301.645 79.7268 308.268 79.7268C313.138 79.7268 317.467 76.4586 320.92 72.3748C321.871 76.6351 325.078 79.7268 328.145 79.7268C334.89 79.7268 354.981 63.1788 354.981 57.4823C354.99 57.3361 354.968 57.1897 354.915 57.0528C354.863 56.9158 354.782 56.7915 354.678 56.6879C354.573 56.5844 354.448 56.504 354.31 56.4521C354.172 56.4002 354.025 56.3779 353.877 56.3868ZM311.801 71.9488C309.348 71.9488 306.833 69.204 306.833 63.5075C306.833 50.1182 318.43 36.5463 327.151 34.3553C329.806 34.3553 331.321 36.1812 332.241 38.0983C328.887 45.5719 324.655 55.9243 322.343 62.9537C318.737 68.8936 314.622 71.9488 311.801 71.9488Z" fill="white"></path><path d="M287.728 28.7745C287.612 28.7745 286.784 30.4543 285.533 33.1748C282.945 30.856 278.787 28.2268 274.365 28.2268C262.425 28.2268 248.473 42.31 245.633 57.3426C230.767 69.5148 222.789 71.9492 217.049 71.9492C213.467 71.9492 208.193 70.239 208.015 61.8524C210.513 63.3074 213.374 64.0331 216.27 63.946C227.094 63.946 241.451 56.0341 241.451 40.0581C241.451 35.1223 230.412 28.2207 225.438 28.2207C215.356 28.2207 199.386 42.6569 196.688 58.2616C190.604 63.24 183.742 68.1819 179.725 70.0564C183.693 57.3852 192.984 35.3171 198.982 20.7592C224.929 19.122 251.613 17.1806 254.593 16.365C255.82 16.0364 256.911 14.9409 256.911 14.174C256.911 13.6263 256.69 13.4072 255.807 13.4072C254.581 13.4072 228.21 13.8819 201.735 14.0158C203.409 9.859 204.458 7.07766 204.458 6.4934C204.458 5.06317 197.056 0.790741 195.731 0.790741C195.449 0.790741 193.082 6.18909 189.807 14.0523C182.393 14.0523 175.26 14.0523 169.011 13.9428C144.161 13.9428 137.538 11.9709 135.435 11.9709C134.993 11.9709 134.662 12.2995 134.662 12.9568C134.662 18.982 141.512 23.3701 148.687 23.3701C152.533 23.4127 168.398 22.5972 186.741 21.5017C181.761 33.6738 175.757 48.8099 171.556 59.844C166.35 63.8243 160.671 67.7072 156.568 69.5817C161.958 54.4639 167.68 38.9931 167.68 37.575C167.68 33.8503 161.499 28.1538 158.96 28.1538C156.316 28.1538 147.479 33.0226 139.415 38.634C140.304 36.1204 140.85 34.5198 140.85 34.3737C140.837 33.0348 133.233 28.7745 132.129 28.7745C131.178 28.7745 126.554 40.3807 119.753 58.2373C113.621 63.52 107.083 67.975 102.434 69.886C107.696 53.4536 116.117 35.0858 116.117 34.4711C116.117 33.047 108.5 28.7745 107.396 28.7745C107.144 28.7745 106.347 30.2535 105.237 32.6331C102.631 30.4665 98.7548 28.2268 94.695 28.2268C81.3318 28.2268 65.4297 45.8764 65.4297 62.747C65.4297 74.9192 71.9488 79.7333 78.5721 79.7333C83.7788 79.7333 88.3844 75.9964 91.923 71.5232C92.4504 76.2034 95.1795 79.7333 98.4482 79.7333C103.354 79.7333 110.401 73.7324 116.3 67.342L113.688 74.2558C113.688 76.5563 119.655 79.7333 122.887 79.7333C124.114 79.8063 131.687 60.0448 136.606 46.6128C140.745 43.2107 148.454 37.5385 152.815 37.5385C153.698 37.5385 155.133 38.2019 155.133 39.5165C155.133 43.3507 146.406 65.1571 144.419 69.7582C144.419 76.1181 149.276 79.7333 152.263 79.7333C155.985 79.7333 162.406 74.3958 168.367 68.5714L167.938 69.7886C167.938 76.1486 172.801 79.7637 175.782 79.7637C180.731 79.7637 189.433 71.158 196.363 63.593C196.792 73.0264 204.618 79.7637 212.774 79.7637C226.217 79.7637 238.035 69.6913 245.143 62.2967C245.143 62.461 245.143 62.6192 245.143 62.7775C245.143 74.9496 251.772 79.7637 258.285 79.7637C261.633 79.7637 264.743 78.2118 267.484 75.9173C260.738 94.9059 251.11 107.821 238.531 107.821C230.357 107.821 226.935 102.775 226.935 99.16C226.935 93.3539 232.896 89.5197 239.525 89.5197C240.077 89.5197 240.518 89.3006 240.518 88.972C240.518 87.5478 229.253 84.1457 208.628 84.1457C182.785 84.1457 159.929 88.0956 138.507 95.5449C136.299 96.3118 131.436 100.803 131.436 106.615C131.436 109.135 132.981 112.093 133.644 112.093C134.306 112.093 145.13 103.439 165.448 97.0786C185.24 90.6866 206.054 87.9876 226.836 89.118C223.488 90.6334 219.232 94.0843 219.232 101.022C219.232 107.821 224.862 115.818 238.446 115.818C261.523 115.818 270.581 100.256 277.204 82.9528C280.406 74.6271 296.528 35.0615 296.528 34.5137C296.449 33.0348 289.053 28.7745 287.728 28.7745ZM82.1045 71.9857C79.6514 71.9857 77.137 69.2409 77.137 63.5443C77.137 50.1549 88.734 36.583 97.4547 34.392C100.251 34.392 101.784 36.3943 102.692 38.4453C100.079 44.6166 96.9334 52.6502 94.7195 59.138C90.7087 67.5976 85.4836 71.9492 82.1045 71.9492V71.9857ZM228.094 34.3555C238.807 36.2178 225.027 58.6998 214.178 58.6998C212.431 58.6998 210.162 58.1277 208.917 56.168C211.578 47.8361 219.686 38.3053 228.094 34.3555ZM256.807 63.5078C256.807 50.1184 268.404 36.5465 277.125 34.3555C280.344 34.3555 281.896 37.009 282.742 39.34C279.866 45.8034 276.235 54.1778 273.194 61.4264C269.391 68.3767 264.829 71.9492 261.774 71.9492C259.346 71.9492 256.807 69.2044 256.807 63.5078V63.5078Z" fill="white"></path></g><defs><clipPath id="clip0_430_2897"><rect width="355" height="116" fill="white"></rect></clipPath></defs></svg> 