<?xml version="1.0" encoding="UTF-8"?> <svg xmlns="http://www.w3.org/2000/svg" viewBox="0 0 1918 165.84"><defs><style>.cls-1{fill:#fff;}</style></defs><g id="Layer_2" data-name="Layer 2"><g id="Layer_1-2" data-name="Layer 1"><path class="cls-1" d="M270.55,12.13a41.41,41.41,0,0,0-58.56,0L154.05,70.07A41.39,41.39,0,0,0,94.94,12.13L12.13,94.94a41.4,41.4,0,0,0,58.55,58.55l57.95-57.94a41.39,41.39,0,0,0,59.11,57.94l82.81-82.81A41.4,41.4,0,0,0,270.55,12.13Z"></path><path class="cls-1" d="M506,51.92V3.58h23V162.93H501.54l-49-77.21Q431,52.15,421.41,34.47q.9,26.63.9,80.12v48.34H399V3.58h27.53L475.8,80.8q19.92,31.55,31.11,51.47Q506,105.42,506,51.92Z"></path><path class="cls-1" d="M648.8,149.06q-15.88,16.56-41.4,16.56T566,149.06q-15.88-16.56-15.89-43.87,0-27.52,15.89-44.09,15.68-16.33,41.41-16.34T648.8,61.1q15.68,16.33,15.67,44.09Q664.47,132.72,648.8,149.06ZM582.56,135.4q9.16,11,24.84,11t24.73-11q9.06-11,9.07-30.21T632.13,75q-9.06-11-24.73-11T582.56,75q-9.18,11-9.18,30.21T582.56,135.4Z"></path><path class="cls-1" d="M741.68,45.66a58.16,58.16,0,0,1,6.49.22V67.14h-5.59q-17.24,0-26.64,8.51t-9.39,24.62v62.66H684.16V47.45h21.49V68Q716.62,45.66,741.68,45.66Z"></path><path class="cls-1" d="M803.45,165.84q-48.12,0-50.58-39.61h22.38q1.35,12.09,7.84,17t20.59,4.92q25.52,0,25.51-16.11a12.39,12.39,0,0,0-5.37-10.74q-5.37-3.81-19.25-6.27l-11.86-2.24Q756,106.08,756,78.33q0-15.43,11.86-24.5t32.67-9.07q47.69,0,48.79,38.72H827.62Q827,71.84,820.46,67t-19.92-4.81q-10.74,0-16.56,4a13.05,13.05,0,0,0-5.81,11.41,12.06,12.06,0,0,0,5.14,10.41q5.15,3.69,16.34,5.93l12.09,2Q833,100,842.4,108.1t9.4,22.38q0,16.78-12.76,26.08T803.45,165.84Z"></path><path class="cls-1" d="M972.2,162.93H946.46l-36.7-58.41-19.25,18.8v39.61H868.36V3.58h22.15v94l50.81-50.13h28L925.65,90Z"></path><path class="cls-1" d="M1088.58,44.76q19,0,29.77,10.63t10.74,30.1v77.44h-22.38V88.63q0-24.18-24.4-24.17-11.19,0-20.14,8.5-9,8.73-9,24.84v65.13h-22.38V3.58h22.38V63.34Q1066.42,44.77,1088.58,44.76Z"></path><path class="cls-1" d="M1258.67,106.09v6.49h-87.06q1.56,17,10.07,25.62t23.06,8.62q21.93,0,28.64-19.25H1256q-4.71,17.69-18.24,27.87t-33.46,10.18q-24.84,0-40.06-16.56T1149,105.19q0-27.3,15.22-43.87t39.61-16.56q25.52,0,40.29,17.24Q1258.67,79.23,1258.67,106.09Zm-54.83-42.53q-13.2,0-21.6,8.06t-10.4,23.28h63.78q-1.56-14.12-10-22.72T1203.84,63.56Z"></path><path class="cls-1" d="M1301,162.93h-22.38V3.58H1301Z"></path><path class="cls-1" d="M1368.78,165.84q-48.12,0-50.58-39.61h22.38q1.35,12.09,7.84,17t20.59,4.92q25.52,0,25.51-16.11a12.39,12.39,0,0,0-5.37-10.74q-5.37-3.81-19.25-6.27L1358,112.8q-36.7-6.72-36.71-34.47,0-15.43,11.87-24.5t32.67-9.07q47.69,0,48.79,38.72H1393q-.66-11.64-7.16-16.45t-19.92-4.81q-10.74,0-16.56,4a13.06,13.06,0,0,0-5.82,11.41,12.07,12.07,0,0,0,5.15,10.41q5.14,3.69,16.34,5.93l12.08,2q21.27,4,30.66,12.09t9.41,22.38q0,16.78-12.76,26.08T1368.78,165.84Z"></path><path class="cls-1" d="M1538,106.09v6.49h-87.06q1.56,17,10.07,25.62t23,8.62q21.93,0,28.65-19.25h22.6q-4.69,17.69-18.24,27.87t-33.46,10.18q-24.84,0-40.06-16.56t-15.22-43.87q0-27.3,15.22-43.87t39.62-16.56q25.51,0,40.28,17.24Q1538,79.23,1538,106.09Zm-54.83-42.53q-13.22,0-21.6,8.06T1451.14,94.9h63.79q-1.58-14.12-10-22.72T1483.15,63.56Z"></path><path class="cls-1" d="M1615.64,44.76q19,0,29.76,10.63t10.75,30.1v77.44h-22.38V88.63q0-24.18-24.4-24.17-11.19,0-20.14,8.5-9,8.73-9,24.84v65.13H1557.9V47.45h21.48V64.68Q1592.58,44.76,1615.64,44.76Z"></path><path class="cls-1" d="M1785.73,106.09v6.49h-87.06q1.56,17,10.07,25.62t23,8.62q21.93,0,28.65-19.25H1783q-4.69,17.69-18.24,27.87t-33.46,10.18q-24.84,0-40.06-16.56t-15.22-43.87q0-27.3,15.22-43.87t39.62-16.56q25.51,0,40.28,17.24Q1785.73,79.23,1785.73,106.09ZM1730.9,63.56q-13.22,0-21.6,8.06T1698.89,94.9h63.79q-1.58-14.12-10-22.72T1730.9,63.56Z"></path><path class="cls-1" d="M1918,65.8V47.45h-23.28V14.33h-22.38V47.45h-41.4V14.33h-22.38V47.45H1790V65.8h18.58v71.39q0,13.89,7.83,20.15t24.17,6.26q6.27,0,13.66-.67V145h-10.08q-7.16,0-10.18-2.35t-3-7.5V65.8h41.4v71.39q0,13.89,7.84,20.15t24.17,6.26c4.17,0,8.73-.22,13.65-.67V145h-10.07q-7.17,0-10.18-2.35t-3-7.5V65.8Z"></path></g></g></svg> 