<?xml version="1.0" encoding="UTF-8" standalone="no"?> <svg xmlns:inkscape="http://www.inkscape.org/namespaces/inkscape" xmlns:sodipodi="http://sodipodi.sourceforge.net/DTD/sodipodi-0.dtd" xmlns="http://www.w3.org/2000/svg" xmlns:svg="http://www.w3.org/2000/svg" version="1.1" id="Layer_1" x="0px" y="0px" viewBox="0 0 724.09995 213" xml:space="preserve" sodipodi:docname="Skatteetaten-Logo-Horisontal-RGB-Hvit.svg" width="724.09998" height="213" inkscape:version="1.2.2 (b0a8486541, 2022-12-01)"><defs id="defs2843"></defs> <style type="text/css" id="style2804"> .st0{fill:#FFFFFF;} </style> <g id="g2838" transform="translate(-38.8,-38.2)"> <g id="g2810"> <path class="st0" d="m 251.8,251.2 h -213 v -213 h 213 z M 45.7,244.4 H 245 V 45.1 H 45.7 Z" id="path2806"></path> <path class="st0" d="m 145.5,184.5 c -35.4,0 -64.1,-15.7 -64.1,-35 0,-19.3 28.6,-34.9 64,-35 V 97.3 c 11,0 21.4,1.5 30.4,4.1 L 145.5,132 v 17.6 l 30.3,-30.8 c 20.1,5.9 33.8,17.5 33.8,30.8 0,19.3 -28.7,34.9 -64.1,34.9" id="path2808"></path> </g> <g id="g2836"> <path class="st0" d="m 314.3,178.2 c -3.7,0 -7.2,-0.5 -10.2,-1.3 -3,-0.8 -5.6,-2.1 -7.8,-3.7 -2.1,-1.6 -3.8,-3.6 -5,-6 -1.2,-2.4 -1.8,-5.1 -1.9,-8.1 h 13 c 0.4,3.1 1.5,5.3 3.5,6.7 2,1.4 4.8,2.1 8.4,2.1 1.2,0 2.4,-0.2 3.6,-0.4 1.1,-0.2 2.2,-0.6 3.1,-1.1 0.9,-0.5 1.6,-1.2 2.1,-2.1 0.5,-0.8 0.8,-1.8 0.8,-3 0,-1.2 -0.3,-2.2 -0.8,-3 -0.6,-0.8 -1.5,-1.5 -2.5,-2.1 -1.1,-0.6 -2.4,-1.1 -4,-1.5 -1.6,-0.5 -3.4,-0.8 -5.4,-1.3 -2.8,-0.6 -5.3,-1.3 -7.7,-2.1 -2.4,-0.8 -4.5,-1.8 -6.3,-3 -1.8,-1.2 -3.2,-2.8 -4.3,-4.7 -1,-1.9 -1.5,-4.3 -1.5,-7.2 0,-2.9 0.5,-5.4 1.7,-7.6 1.1,-2.1 2.7,-3.9 4.6,-5.3 2,-1.4 4.3,-2.4 7,-3.1 2.7,-0.7 5.6,-1 8.6,-1 3.1,0 5.9,0.4 8.5,1.1 2.6,0.7 4.9,1.8 6.8,3.1 1.9,1.3 3.4,3.1 4.6,5.3 1.1,2.1 1.8,4.5 2.1,7.3 h -12.6 c -0.4,-2.2 -1.4,-3.9 -3,-5.1 -1.6,-1.2 -3.9,-1.8 -6.7,-1.8 -2.7,0 -4.8,0.5 -6.4,1.6 -1.6,1.1 -2.4,2.4 -2.4,4.2 0,1.1 0.3,2 0.9,2.8 0.6,0.7 1.5,1.3 2.7,1.8 1.1,0.5 2.6,1 4.3,1.4 1.7,0.4 3.7,0.8 5.8,1.4 2.5,0.5 5,1.2 7.3,2 2.4,0.8 4.4,1.8 6.2,3.1 1.8,1.3 3.2,3 4.3,4.9 1.1,2 1.6,4.4 1.6,7.4 0,2.9 -0.6,5.5 -1.8,7.7 -1.2,2.2 -2.8,4.1 -4.8,5.7 -2.1,1.5 -4.4,2.7 -7.2,3.5 -3,0.9 -6,1.4 -9.2,1.4" id="path2812"></path> <path class="st0" d="m 359.2,159.3 -4,4.1 v 13.4 h -11.7 v -56.1 h 11.7 v 17.5 c 0,3 -0.1,5.5 -0.2,7.7 -0.1,2.1 -0.2,3.9 -0.2,5.2 L 368,136.7 h 13.8 l -14.4,14.8 16,25.3 h -13.8 z" id="path2814"></path> <path class="st0" d="m 402.3,170.1 c 2.7,0 4.8,-0.8 6.3,-2.2 1.6,-1.5 2.4,-3.3 2.4,-5.5 v -5.2 c -0.8,0.5 -1.9,1 -3.1,1.3 -1.2,0.3 -2.5,0.6 -3.8,0.9 -2.6,0.5 -4.5,1.2 -5.8,2.1 -1.3,0.9 -1.9,2.1 -1.9,3.8 0,1.7 0.6,3 1.8,3.7 1.1,0.8 2.4,1.1 4.1,1.1 m 9.9,6.7 c -0.3,-0.5 -0.6,-1.1 -0.8,-1.9 -0.2,-0.8 -0.5,-1.8 -0.5,-3 h -0.2 c -1.3,1.8 -2.9,3.3 -4.7,4.4 -1.8,1.1 -4.3,1.6 -7.4,1.6 -2,0 -3.7,-0.2 -5.5,-0.8 -1.7,-0.5 -3.1,-1.3 -4.4,-2.3 -1.2,-1 -2.2,-2.3 -2.9,-3.8 -0.7,-1.5 -1,-3.3 -1,-5.3 0,-2.2 0.5,-4 1.2,-5.5 0.7,-1.5 2,-2.7 3.4,-3.5 1.4,-0.9 3.1,-1.6 5,-2.1 1.9,-0.5 4,-0.8 6.2,-1.1 3.6,-0.5 6.1,-1.1 7.7,-1.8 1.6,-0.7 2.4,-1.8 2.4,-3.3 0,-1.5 -0.5,-2.6 -1.5,-3.5 -1,-0.9 -2.4,-1.3 -4.5,-1.3 -2.3,0 -4,0.5 -5.1,1.5 -1.1,1 -1.8,2.2 -1.9,3.8 h -10.9 c 0.1,-1.7 0.5,-3.4 1.2,-5 0.7,-1.6 1.8,-3.1 3.3,-4.3 1.5,-1.2 3.3,-2.2 5.5,-3 2.2,-0.7 4.8,-1.1 7.8,-1.1 2.6,0 4.8,0.2 6.6,0.5 1.8,0.4 3.5,1 4.9,1.8 2.1,1.2 3.7,2.8 4.7,4.9 1,2.1 1.5,4.4 1.5,7.1 v 20.6 c 0,3.1 0.5,5 1.5,5.6 v 0.7 h -11.6 z" id="path2816"></path> <path class="st0" d="m 427.5,136.7 h 6 v -12.8 h 11.6 v 12.8 h 7.9 v 7.6 h -7.9 v 19.9 c 0,1.5 0.4,2.5 1.1,3.1 0.8,0.5 1.8,0.8 3.3,0.8 0.4,0 0.8,0 1.4,-0.1 0.5,0 1,-0.1 1.4,-0.1 h 0.6 v 8.8 c -0.7,0.1 -1.5,0.2 -2.8,0.4 -1.1,0.2 -2.5,0.2 -4.1,0.2 -1.8,0 -3.5,-0.2 -5,-0.5 -1.5,-0.3 -2.8,-0.9 -4,-1.8 -1.1,-0.8 -2,-1.9 -2.6,-3.3 -0.6,-1.3 -0.9,-3.1 -0.9,-5.1 v -22.5 h -6 z" id="path2818"></path> <path class="st0" d="m 456.4,136.7 h 6 V 123.9 H 474 v 12.8 h 7.9 v 7.6 H 474 v 19.9 c 0,1.5 0.4,2.5 1.1,3.1 0.8,0.5 1.8,0.8 3.3,0.8 0.4,0 0.8,0 1.4,-0.1 0.5,0 1,-0.1 1.4,-0.1 h 0.6 v 8.8 c -0.7,0.1 -1.5,0.2 -2.8,0.4 -1.1,0.2 -2.5,0.2 -4.1,0.2 -1.8,0 -3.5,-0.2 -5,-0.5 -1.5,-0.3 -2.8,-0.9 -4,-1.8 -1.1,-0.8 -2,-1.9 -2.6,-3.3 -0.6,-1.3 -0.9,-3.1 -0.9,-5.1 v -22.5 h -6 z" id="path2820"></path> <path class="st0" d="m 506.8,144 c -2.8,0 -4.8,0.8 -6.2,2.4 -1.4,1.6 -2.3,3.8 -2.8,6.6 H 515 c -0.2,-2.8 -1,-5 -2.5,-6.6 -1.5,-1.5 -3.3,-2.4 -5.7,-2.4 m 0.7,34 c -3.3,0 -6.2,-0.5 -8.8,-1.6 -2.6,-1.1 -4.8,-2.6 -6.6,-4.5 -1.8,-1.9 -3.2,-4.1 -4.2,-6.7 -1,-2.6 -1.5,-5.3 -1.5,-8.4 0,-3 0.5,-5.8 1.5,-8.4 1,-2.6 2.4,-4.8 4.2,-6.7 1.8,-1.9 4,-3.4 6.5,-4.5 2.5,-1.1 5.3,-1.6 8.4,-1.6 2.9,0 5.4,0.5 7.7,1.4 2.3,0.9 4.3,2.1 6,3.7 2.3,2.2 3.9,5 5,8.3 1.1,3.3 1.5,6.9 1.5,10.8 H 498 c 0.4,3 1.4,5.3 3,7.1 1.6,1.7 3.8,2.6 6.7,2.6 1.8,0 3.4,-0.3 4.6,-1 1.1,-0.7 2.1,-1.7 2.8,-2.9 h 11.5 c -0.5,1.8 -1.3,3.4 -2.4,5 -1.1,1.5 -2.4,2.9 -4,4 -1.6,1.1 -3.4,2 -5.6,2.6 -2.3,0.5 -4.6,0.8 -7.1,0.8" id="path2822"></path> <path class="st0" d="m 551.8,144 c -2.8,0 -4.8,0.8 -6.2,2.4 -1.4,1.6 -2.3,3.8 -2.8,6.6 h 17.1 c -0.2,-2.8 -1,-5 -2.5,-6.6 -1.4,-1.7 -3.3,-2.4 -5.6,-2.4 m 0.6,34 c -3.3,0 -6.2,-0.5 -8.8,-1.6 -2.6,-1.1 -4.8,-2.6 -6.6,-4.5 -1.8,-1.9 -3.2,-4.1 -4.2,-6.7 -1,-2.6 -1.5,-5.3 -1.5,-8.4 0,-3 0.5,-5.8 1.5,-8.4 1,-2.6 2.4,-4.8 4.2,-6.7 1.8,-1.9 4,-3.4 6.5,-4.5 2.5,-1.1 5.3,-1.6 8.4,-1.6 2.9,0 5.4,0.5 7.7,1.4 2.3,0.9 4.3,2.1 6.1,3.7 2.3,2.2 3.9,5 5,8.3 1.1,3.3 1.5,6.9 1.5,10.8 H 543 c 0.4,3 1.4,5.3 3,7.1 1.6,1.7 3.8,2.6 6.7,2.6 1.8,0 3.4,-0.3 4.6,-1 1.1,-0.7 2.1,-1.7 2.8,-2.9 h 11.5 c -0.5,1.8 -1.3,3.4 -2.4,5 -1.1,1.5 -2.4,2.9 -4,4 -1.6,1.1 -3.4,2 -5.6,2.6 -2.3,0.5 -4.7,0.8 -7.2,0.8" id="path2824"></path> <path class="st0" d="m 574.9,136.7 h 6 v -12.8 h 11.6 v 12.8 h 7.9 v 7.6 h -7.9 v 19.9 c 0,1.5 0.4,2.5 1.1,3.1 0.8,0.5 1.8,0.8 3.3,0.8 0.4,0 0.8,0 1.4,-0.1 0.5,0 1,-0.1 1.4,-0.1 h 0.6 v 8.8 c -0.7,0.1 -1.5,0.2 -2.8,0.4 -1.1,0.2 -2.5,0.2 -4.1,0.2 -1.8,0 -3.5,-0.2 -5,-0.5 -1.5,-0.3 -2.8,-0.9 -4,-1.8 -1.1,-0.8 -2,-1.9 -2.6,-3.3 -0.6,-1.3 -0.9,-3.1 -0.9,-5.1 v -22.5 h -6 z" id="path2826"></path> <path class="st0" d="m 623.1,170.1 c 2.7,0 4.8,-0.8 6.3,-2.2 1.6,-1.5 2.4,-3.3 2.4,-5.5 v -5.2 c -0.8,0.5 -1.9,1 -3.1,1.3 -1.2,0.3 -2.5,0.6 -3.8,0.9 -2.6,0.5 -4.5,1.2 -5.8,2.1 -1.3,0.9 -1.9,2.1 -1.9,3.8 0,1.7 0.6,3 1.8,3.7 1.1,0.8 2.5,1.1 4.1,1.1 m 10,6.7 c -0.3,-0.5 -0.6,-1.1 -0.8,-1.9 -0.2,-0.8 -0.5,-1.8 -0.5,-3 h -0.2 c -1.3,1.8 -2.9,3.3 -4.7,4.4 -1.8,1.1 -4.3,1.6 -7.4,1.6 -2,0 -3.7,-0.2 -5.5,-0.8 -1.7,-0.5 -3.1,-1.3 -4.4,-2.3 -1.2,-1 -2.2,-2.3 -2.9,-3.8 -0.7,-1.5 -1,-3.3 -1,-5.3 0,-2.2 0.5,-4 1.2,-5.5 0.7,-1.5 2,-2.7 3.4,-3.5 1.4,-0.9 3.1,-1.6 5,-2.1 1.9,-0.5 4,-0.8 6.2,-1.1 3.6,-0.5 6.1,-1.1 7.7,-1.8 1.6,-0.7 2.4,-1.8 2.4,-3.3 0,-1.5 -0.5,-2.6 -1.5,-3.5 -1,-0.9 -2.4,-1.3 -4.5,-1.3 -2.3,0 -4,0.5 -5.1,1.5 -1.1,1 -1.8,2.2 -1.9,3.8 h -10.9 c 0.1,-1.7 0.5,-3.4 1.2,-5 0.8,-1.6 1.8,-3.1 3.3,-4.3 1.5,-1.2 3.3,-2.2 5.5,-3 2.2,-0.7 4.8,-1.1 7.8,-1.1 2.6,0 4.8,0.2 6.6,0.5 1.8,0.4 3.5,1 4.9,1.8 2.1,1.2 3.7,2.8 4.7,4.9 1,2.1 1.5,4.4 1.5,7.1 v 20.6 c 0,3.1 0.5,5 1.5,5.6 v 0.7 h -11.6 z" id="path2828"></path> <path class="st0" d="m 648.3,136.7 h 6 V 123.9 H 666 v 12.8 h 7.9 v 7.6 H 666 v 19.9 c 0,1.5 0.4,2.5 1.1,3.1 0.8,0.5 1.8,0.8 3.3,0.8 0.4,0 0.8,0 1.4,-0.1 0.5,0 1,-0.1 1.4,-0.1 h 0.6 v 8.8 c -0.7,0.1 -1.6,0.2 -2.8,0.4 -1.1,0.2 -2.5,0.2 -4.1,0.2 -1.8,0 -3.5,-0.2 -5.1,-0.5 -1.5,-0.3 -2.8,-0.9 -4,-1.8 -1.1,-0.8 -2,-1.9 -2.6,-3.3 -0.6,-1.3 -0.9,-3.1 -0.9,-5.1 v -22.5 h -6 z" id="path2830"></path> <path class="st0" d="m 698.8,144 c -2.8,0 -4.8,0.8 -6.2,2.4 -1.4,1.6 -2.3,3.8 -2.8,6.6 h 17.1 c -0.2,-2.8 -1,-5 -2.5,-6.6 -1.4,-1.7 -3.3,-2.4 -5.6,-2.4 m 0.6,34 c -3.3,0 -6.2,-0.5 -8.8,-1.6 -2.6,-1.1 -4.8,-2.6 -6.6,-4.5 -1.8,-1.9 -3.2,-4.1 -4.2,-6.7 -1,-2.6 -1.5,-5.3 -1.5,-8.4 0,-3 0.5,-5.8 1.5,-8.4 1,-2.6 2.4,-4.8 4.2,-6.7 1.8,-1.9 4,-3.4 6.5,-4.5 2.5,-1.1 5.3,-1.6 8.4,-1.6 2.9,0 5.4,0.5 7.7,1.4 2.3,0.9 4.3,2.1 6.1,3.7 2.3,2.2 3.9,5 5,8.3 1.1,3.3 1.5,6.9 1.5,10.8 h -29.5 c 0.4,3 1.4,5.3 3,7.1 1.6,1.7 3.8,2.6 6.7,2.6 1.8,0 3.4,-0.3 4.6,-1 1.1,-0.7 2.1,-1.7 2.8,-2.9 h 11.5 c -0.5,1.8 -1.3,3.4 -2.4,5 -1.1,1.5 -2.4,2.9 -4,4 -1.6,1.1 -3.4,2 -5.6,2.6 -2,0.5 -4.4,0.8 -6.9,0.8" id="path2832"></path> <path class="st0" d="m 736.4,142.8 h 0.2 c 1.2,-2.4 2.9,-4.2 5,-5.4 2.1,-1.2 4.5,-1.8 7.3,-1.8 4.4,0 7.9,1.4 10.3,4 2.4,2.7 3.7,6.3 3.7,10.8 v 26.4 h -11.8 v -24.1 c 0,-2.2 -0.5,-4 -1.7,-5.3 -1.1,-1.4 -2.8,-2 -5,-2 -2.3,0 -4.2,0.8 -5.6,2.5 -1.4,1.7 -2.1,3.7 -2.1,6.3 v 22.6 H 725 v -40.1 h 11.5 z" id="path2834"></path> </g> </g> </svg> 