<?xml version="1.0" encoding="UTF-8" standalone="no"?> <svg xmlns:inkscape="http://www.inkscape.org/namespaces/inkscape" xmlns:sodipodi="http://sodipodi.sourceforge.net/DTD/sodipodi-0.dtd" xmlns="http://www.w3.org/2000/svg" xmlns:svg="http://www.w3.org/2000/svg" version="1.1" id="Layer_1" x="0px" y="0px" viewBox="0 0 1196.8 147.3" xml:space="preserve" sodipodi:docname="sportradar.svg" inkscape:export-filename="sportradar.svg" inkscape:export-xdpi="96" inkscape:export-ydpi="96" inkscape:version="1.2.2 (b0a8486541, 2022-12-01)" width="1196.8" height="147.3"><defs id="defs340"></defs> <style type="text/css" id="style250"> .st0{fill:#FF0000;} .st1{fill:#FFFFFF;} </style> <g id="g335"> <g id="SR_White-Red_Logo_00000036212299628357766910000015753535616765190036_"> <g id="Layer_2_00000154391757299715996660000013415405079135238306_"> <g id="Ebene_1_00000181059907978229494460000012710120143626244018_"> <path class="st1" d="m 0,89.5 h 13.1 v 4.1 c 0,10.3 5.4,14.5 19.8,14.5 H 63 c 21.1,0 27.8,-0.8 27.8,-13.2 v -0.7 c 0,-8 -2.3,-12.3 -19.1,-12.3 H 28.3 C 8.5,81.8 1.2,75.4 1.2,59.6 V 54.8 C 1.2,41.2 8.9,33.7 43.5,33.7 H 65 c 31.7,0 36.1,9.1 36.1,20.9 V 59 H 88 V 58.2 C 88,45.4 79.5,45.1 64.2,45.1 H 39.7 c -20.1,0.1 -24.5,2 -24.5,11.4 v 3.1 c 0,6.9 2.3,10.8 17,10.8 h 37 c 21.1,0 35.5,2.1 35.5,24.6 v 0.3 c 0.1,23.4 -21.5,24.2 -38.6,24.2 H 40.2 C 19.5,119.5 0,119.5 0,94.4 Z" id="path252"></path> <path class="st1" d="m 123.8,34.9 h 13.1 v 13.2 h 0.3 C 141.3,38 152.7,33.6 165.1,33.6 h 26.7 c 19.9,0 38.5,6.4 38.5,35.1 v 14.7 c 0,26.9 -11.9,36.1 -40.8,36.1 h -26.7 c -14.9,0 -21.5,-3.7 -24.5,-12.3 H 138 v 40.1 h -14.2 z m 92.4,34 c 0,-16.2 -5.2,-23.8 -25,-23.8 h -27.9 c -18.5,0 -25.5,9.6 -25.5,24 V 85 c 0,19.9 12.3,23.2 27.3,23.2 h 25 c 16.4,0 26.1,-3.6 26.1,-22.9 z" id="path254"></path> <path class="st1" d="m 408.3,34.9 h 13.1 V 47 h 0.3 c 5.2,-10.8 15.9,-13.4 25.5,-13.4 h 13.2 c 26.3,0 34.9,8.5 34.9,28.9 v 10 h -13 v -3.6 c 0,-20.5 -4.3,-23.8 -29.2,-23.8 h -8.7 c -14.9,0 -22,9.5 -22,20.2 v 52.9 h -14 z" id="path256"></path> <path class="st1" d="M 523.8,46.4 H 505.5 V 34.9 h 18.3 V 15.2 h 14 v 19.7 h 55.8 v 11.4 h -55.7 v 41.5 c 0,15.5 5.4,20.3 20.7,20.3 h 4.4 c 18.6,0 21.6,-3.9 21.6,-21.4 V 80.5 H 596 v 9.1 c 0,16.7 -1.6,29.9 -32,29.9 h -7.7 c -26.4,0 -32.5,-12.7 -32.5,-26.3 z" id="path258"></path> <path class="st1" d="m 613.9,34.9 h 29.4 v 15.8 h 0.3 c 3.6,-13.2 16.3,-17.2 30.5,-17.2 22.9,0 31.8,9.8 31.8,32.9 0,2.1 -0.2,4.4 -0.3,7.4 h -27.1 c 0,-10.6 -2.5,-15.7 -15,-15.7 -10.8,0 -18.3,4.1 -18.3,14 v 46.1 h -31.3 z" id="path260"></path> <path class="st1" d="m 717.6,89 c 0,-22.6 15.7,-24 46.1,-24 17.2,0 26.7,0.5 32.7,6.7 v -7.4 c 0,-8.2 -2.4,-11.1 -14.7,-11.1 h -18.5 c -9.1,0 -11.7,0.8 -12.1,6.7 h -30.4 c 0,-22.6 11.1,-26.3 37.6,-26.3 h 36.4 c 21.5,0 33,10.3 33,29.9 v 54.7 H 798 v -9.4 c -8.7,9 -11.9,10.8 -27.6,10.8 H 749 c -19.1,0.2 -31.3,-4.1 -31.3,-23.7 V 89 Z m 55.9,10.9 c 21.6,0 23.5,-3.3 23.5,-8.8 0,-6.2 -1.8,-8.5 -19.1,-8.5 h -13.8 c -13.2,0 -16,2.9 -16,9.8 0,5.4 4.3,7.5 16.4,7.5 z" id="path262"></path> <path class="st1" d="m 843.5,69.1 c 0,-21.2 4.9,-35.4 44.6,-35.4 h 9.3 c 12.9,0 26.1,3.6 28.1,16.7 h 0.3 V 0 h 31.3 v 118.2 h -29.4 v -15.4 h -0.3 c -3.4,10.3 -11.3,16.7 -30.2,16.7 h -9.1 c -39.7,0 -44.6,-14.2 -44.6,-35.4 z m 30.4,12.3 c 0,9.3 1.5,14.5 16.4,14.5 h 18.5 c 12.3,0 18.9,-2.8 18.9,-15.3 v -8.2 c 0,-12.6 -6.5,-15.3 -18.9,-15.3 h -18.5 c -15,0 -16.4,5.2 -16.4,14.5 z" id="path264"></path> <path class="st1" d="m 974.6,89 c 0,-22.6 15.7,-24 46.1,-24 17.1,0 26.7,0.5 32.7,6.7 v -7.4 c 0,-8.2 -2.4,-11.1 -14.7,-11.1 h -18.5 c -9.2,0 -11.8,0.8 -12.1,6.7 h -30.3 c 0,-22.6 11.1,-26.3 37.6,-26.3 h 36.4 c 21.6,0 33,10.3 33,29.9 v 54.7 h -29.7 v -9.4 c -8.6,9 -11.9,10.8 -27.6,10.8 H 1006 c -19.1,0.2 -31.4,-4.1 -31.4,-23.7 z m 55.9,10.9 c 21.5,0 23.5,-3.3 23.5,-8.8 0,-6.2 -1.8,-8.5 -19.1,-8.5 H 1021 c -13.2,0 -16,2.9 -16,9.8 0,5.4 4.3,7.5 16.4,7.5 z" id="path266"></path> <path class="st1" d="m 1104.7,34.9 h 29.4 v 15.8 h 0.3 c 3.6,-13.2 16.3,-17.2 30.5,-17.2 22.9,0 31.9,9.8 31.9,32.9 0,2.1 -0.2,4.4 -0.3,7.4 h -27.1 c 0,-10.6 -2.4,-15.7 -15,-15.7 -10.8,0 -18.3,4.1 -18.3,14 v 46.1 h -31.4 z" id="path268"></path> <path class="st0" d="M 332.7,44.9 H 304 c -16.4,0 -27.8,3.7 -27.8,23.2 v 16.7 c 0,19.4 11.4,23.2 27.8,23.2 h 28.7 c 16.3,0 27.8,-3.8 27.8,-23.2 V 68.1 C 360.4,48.6 349,44.9 332.7,44.9 Z" id="path270"></path> <path class="st0" d="m 331.2,21.5 h -25.7 c -34,0 -58.9,8.2 -58.9,43.2 v 23.4 c 0,35.1 24.9,43.1 58.9,43.1 h 25.7 c 34,0 58.9,-8.2 58.9,-43.1 V 64.7 c 0,-35.1 -24.8,-43.2 -58.9,-43.2 z m 43.3,64.1 c 0,27.4 -19.4,33.8 -46.1,33.8 h -20.1 c -26.7,0 -46.1,-6.4 -46.1,-33.8 V 67.3 c 0,-27.4 19.5,-33.8 46.1,-33.8 h 20.1 c 26.7,0 46.1,6.4 46.1,33.8 z" id="path272"></path> </g> </g> </g> </g> </svg> 
