<?xml version="1.0" encoding="UTF-8"?>
<svg id="Layer_1" data-name="Layer 1" xmlns="http://www.w3.org/2000/svg" viewBox="0 0 561.35 140">
  <defs>
    <style>
      .cls-1 {
        fill: #fff;
      }
    </style>
  </defs>
  <path class="cls-1" d="M472.94,137.62h17.21v-30.54l17.01-18.24,33.62,48.78h20.57l-41.93-61.27,35.4-37.88h-21.56l-43.11,46.6V0h-17.21v137.62ZM43.31,140c23.53,0,39.75-12.1,39.75-30.74,0-17.45-11.08-26.57-28.08-28.55l-20.37-2.38c-9.1-.99-14.44-4.56-14.44-14.08,0-8.33,8.5-14.28,20.77-14.28,13.25,0,21.16,5.95,23.14,16.86h17.4c-1.98-21.22-18.19-30.74-40.35-30.74S2.77,48.39,2.77,64.65s10.09,26.77,28.08,28.75l19.18,2.18c10.48,1.19,15.43,5.75,15.43,14.67,0,9.52-8.31,15.86-21.95,15.86-14.64,0-23.34-6.74-26.11-19.63H0c1.78,21.22,17.6,33.51,43.31,33.51ZM332.4,137.62h29.67v-14.67h-24.72c-7.71,0-10.09-2.97-10.09-11.1v-59.29h32.24v-14.08h-32.24V5.75h-17.01v28.36c0,2.78-1.58,4.36-4.35,4.36h-19.78v14.08h24.13v61.87c0,16.66,7.12,23.2,22.15,23.2ZM414.48,140c22.55,0,38.17-12.49,42.13-33.51h-17.01c-2.37,12.89-10.48,18.64-25.12,18.64-18.2,0-27.89-10.31-29.27-32.52h72.78c1.78-35.5-14.64-56.52-44.1-56.52s-46.48,19.24-46.48,51.76,17.4,52.15,47.07,52.15ZM385.21,79.32c2.37-19.63,11.67-29.15,28.28-29.15s25.91,9.52,27.09,29.15h-55.38ZM239.65,140c23.54,0,39.75-12.1,39.75-30.74,0-17.45-11.07-26.57-28.08-28.55l-20.37-2.38c-9.1-.99-14.44-4.56-14.44-14.08,0-8.33,8.5-14.28,20.77-14.28,13.25,0,21.16,5.95,23.14,16.86h17.4c-1.98-21.22-18.19-30.74-40.34-30.74s-38.37,12.29-38.37,28.56,10.09,26.77,28.08,28.75l19.18,2.18c10.48,1.19,15.43,5.75,15.43,14.67,0,9.52-8.31,15.86-21.95,15.86-14.64,0-23.34-6.74-26.11-19.63h-17.4c1.78,21.22,17.6,33.51,43.31,33.51Z"/>
  <path class="cls-1" d="M181.36,107.88c0,21.22-8.31,29.74-29.27,29.74l-59.92-.2v-14.87h60.52l-58.74-74.76,12.66-9.72,59.15,75.74.18-75.34h15.62l-.2,69.4Z"/>
</svg>