<?xml version="1.0" encoding="UTF-8" standalone="no"?>
<!-- Generator: Adobe Illustrator 24.2.3, SVG Export Plug-In . SVG Version: 6.00 Build 0)  -->

<svg
   version="1.1"
   id="Layer_1"
   x="0px"
   y="0px"
   viewBox="0 0 862.09998 247.89999"
   xml:space="preserve"
   sodipodi:docname="systek.svg"
   width="862.09998"
   height="247.89999"
   inkscape:version="1.3.2 (091e20e, 2023-11-25)"
   xmlns:inkscape="http://www.inkscape.org/namespaces/inkscape"
   xmlns:sodipodi="http://sodipodi.sourceforge.net/DTD/sodipodi-0.dtd"
   xmlns="http://www.w3.org/2000/svg"
   xmlns:svg="http://www.w3.org/2000/svg"><defs
   id="defs21" /><sodipodi:namedview
   id="namedview21"
   pagecolor="#ffffff"
   bordercolor="#000000"
   borderopacity="0.25"
   inkscape:showpageshadow="2"
   inkscape:pageopacity="0.0"
   inkscape:pagecheckerboard="0"
   inkscape:deskcolor="#d1d1d1"
   inkscape:zoom="0.415625"
   inkscape:cx="428.27068"
   inkscape:cy="123.90977"
   inkscape:window-width="1392"
   inkscape:window-height="1212"
   inkscape:window-x="0"
   inkscape:window-y="25"
   inkscape:window-maximized="0"
   inkscape:current-layer="Layer_1" />
<style
   type="text/css"
   id="style1">
	.st0{fill:#00D8B4;}
	.st1{fill:#00594A;}
	.st2{fill:url(#SVGID_1_);}
	.st3{fill:url(#SVGID_2_);}
	.st4{fill:#F2F2F2;}
</style>
<g
   id="Logo_turkis"
   transform="translate(-210.7,-276.1)">
	<polygon
   class="st0"
   points="293.2,358.7 375.8,441.3 293.2,523.9 "
   id="polygon1" />
	<polygon
   class="st1"
   points="293.2,276.1 293.2,441.3 210.7,358.7 "
   id="polygon2" />
</g>
<g
   id="Logo_turkis_gradient"
   transform="translate(-210.7,-276.1)">
	
		<linearGradient
   id="SVGID_1_"
   gradientUnits="userSpaceOnUse"
   x1="370.28201"
   y1="338.06821"
   x2="272.5976"
   y2="364.24261"
   gradientTransform="matrix(1,0,0,-1,0,800)">
		<stop
   offset="0"
   style="stop-color:#00D8B4;stop-opacity:0"
   id="stop2" />
		<stop
   offset="0.1413"
   style="stop-color:#00D4B1;stop-opacity:8.480000e-02"
   id="stop3" />
		<stop
   offset="0.2781"
   style="stop-color:#00C8A7;stop-opacity:0.1668"
   id="stop4" />
		<stop
   offset="0.413"
   style="stop-color:#00B597;stop-opacity:0.2478"
   id="stop5" />
		<stop
   offset="0.5469"
   style="stop-color:#009A80;stop-opacity:0.3282"
   id="stop6" />
		<stop
   offset="0.68"
   style="stop-color:#007663;stop-opacity:0.408"
   id="stop7" />
		<stop
   offset="0.8127"
   style="stop-color:#004B3F;stop-opacity:0.4876"
   id="stop8" />
		<stop
   offset="0.9423"
   style="stop-color:#001915;stop-opacity:0.5654"
   id="stop9" />
		<stop
   offset="1"
   style="stop-color:#000000;stop-opacity:0.6"
   id="stop10" />
	</linearGradient>
	<polygon
   class="st2"
   points="293.2,358.7 375.8,441.3 293.2,523.9 "
   id="polygon10"
   style="fill:url(#SVGID_1_)" />
	
		<linearGradient
   id="SVGID_2_"
   gradientUnits="userSpaceOnUse"
   x1="213.1599"
   y1="455.4021"
   x2="307.36249"
   y2="438.79169"
   gradientTransform="matrix(1,0,0,-1,0,800)">
		<stop
   offset="0"
   style="stop-color:#00594A;stop-opacity:0"
   id="stop11" />
		<stop
   offset="0.2174"
   style="stop-color:#005547;stop-opacity:0.1304"
   id="stop12" />
		<stop
   offset="0.4277"
   style="stop-color:#004A3D;stop-opacity:0.2566"
   id="stop13" />
		<stop
   offset="0.6351"
   style="stop-color:#00362D;stop-opacity:0.3811"
   id="stop14" />
		<stop
   offset="0.8395"
   style="stop-color:#001B16;stop-opacity:0.5037"
   id="stop15" />
		<stop
   offset="1"
   style="stop-color:#000000;stop-opacity:0.6"
   id="stop16" />
	</linearGradient>
	<polygon
   class="st3"
   points="293.2,276.1 293.2,441.3 210.7,358.7 "
   id="polygon16"
   style="fill:url(#SVGID_2_)" />
</g>
<g
   id="Ordmerke_negativ"
   transform="translate(-210.7,-276.1)">
	<path
   class="st4"
   d="M 1072.8,462.2 H 1053 l -42.2,-83.4 -21.9,23.4 v 60 h -18 V 285 l 18,-8.8 v 104.6 l 46.6,-50.2 h 20.9 l -33,35 z"
   id="path16" />
	<path
   class="st4"
   d="M 583.1,524 605.3,512.4 672.4,331 h -19.3 l -33.7,93.3 -4.6,13.3 c -0.3,-1 -1,-3.1 -2.1,-6.2 -1,-3.1 -1.8,-5.3 -2.3,-7 L 577.1,331 H 558.8 L 607,458.3 Z"
   id="path17" />
	<path
   class="st4"
   d="m 553.1,376.7 c -5.4,-4.6 -10.8,-8.5 -16.2,-11.5 -5.4,-3 -11.6,-5.9 -18.7,-8.6 -6.5,-2.6 -11.8,-4.8 -15.8,-6.7 -4,-1.9 -8.2,-4.3 -12.6,-7.2 -4.4,-2.9 -7.6,-6.2 -9.8,-9.8 -2.1,-3.6 -3.2,-7.7 -3.2,-12.4 0,-7.7 3,-13.9 9,-18.5 6,-4.6 14.3,-6.4 24.7,-7 11.7,-0.6 25.9,1.7 31.8,5.9 5.5,3.9 8.2,7.9 10.8,14 h 18.2 c -5.2,-16.5 -12.4,-22.2 -18.2,-26.6 -10.2,-7.6 -28.7,-9.6 -41.7,-9.6 -16.1,0 -29,4.1 -38.6,12.2 -9.6,8.1 -14.4,18.1 -14.4,29.9 0,7 1.5,13.5 4.4,19.3 2.9,5.8 7.2,10.9 12.7,15.1 5.6,4.2 11.1,7.7 16.5,10.4 5.4,2.7 11.8,5.5 19.2,8.2 12.4,4.6 22.2,10.3 29.6,16.9 7.4,6.6 11.1,15 11.1,25.1 0,10.6 -3.4,18.8 -10.2,24.6 -6.8,5.8 -16.1,8.6 -27.9,8.6 -10,0 -18.7,-2.4 -26.3,-7.2 -7.6,-4.8 -13.2,-11.2 -17,-19.3 l -16,8.6 c 4,9.3 11,17.1 20.9,23.6 10.8,7 23.5,10.6 38.1,10.6 17,0 30.7,-4.4 41.2,-13.3 10.5,-8.8 15.7,-21.1 15.7,-36.7 0,-8.1 -1.5,-15.4 -4.5,-21.9 -3.2,-6.5 -7.4,-12 -12.8,-16.7 z"
   id="path18" />
	<path
   class="st4"
   d="m 941.1,343.6 c -9.8,-10.7 -22.2,-16.1 -37.3,-16.1 -17.2,0 -31,6.1 -41.5,18.3 -10.5,12.2 -15.7,29 -15.7,50.5 0,19.2 5.2,35.5 15.7,48.9 10.5,13.4 24.3,20.1 41.5,20.1 14.8,0 28.1,-5 40.2,-14.9 l -15.6,-8.3 c -7.6,4.3 -15.5,6.5 -23.8,6.5 -11,0 -19.8,-3.9 -26.5,-12 -6.7,-8.1 -10.8,-18.6 -12.4,-32.6 h 89.6 c 0.3,-4 0.5,-8.1 0.5,-12.7 -0.1,-21 -5,-36.9 -14.7,-47.7 z m -76,44.4 c 0.7,-15 4.5,-25.5 11.6,-32.9 7,-7.4 16.1,-11.2 27,-11.2 8.8,0 16.5,3.5 23.3,10.1 6.8,6.6 10.3,18 10.4,34 z"
   id="path19" />
	<path
   class="st4"
   d="m 840.1,440.6 c -7.6,5.1 -14.2,7.7 -19.8,7.7 -5.7,0 -9.5,-1.8 -11.4,-5.4 -1.9,-3.6 -2.9,-8.8 -2.9,-15.5 V 347 h 34 v -16 h -34 v -54.7 l -18,9 V 331 h -26.3 l 8.5,16 H 788 v 88.2 c 0,20.1 8.7,30.1 26,30.1 8.4,0 14.3,0 33.7,-10.3 z"
   id="path20" />
	<path
   class="st4"
   d="m 763.5,415.2 c -1.8,-4.2 -3.9,-7.6 -6.2,-10.3 -2.3,-2.7 -5.7,-5.3 -10,-8 -4.4,-2.7 -8,-4.6 -10.9,-5.9 -2.9,-1.3 -7,-3 -12.1,-5 -4.3,-1.7 -7.4,-3 -9.3,-3.7 -1.9,-0.8 -4.5,-2.1 -7.7,-3.9 -3.3,-1.8 -5.7,-3.4 -7.2,-4.9 -1.5,-1.5 -2.9,-3.3 -4.1,-5.5 -1.2,-2.2 -1.8,-4.6 -1.8,-7.2 0,-5.3 2.3,-9.5 6.8,-12.6 4.5,-3.1 10.4,-4.6 17.9,-4.6 10.4,0 24.9,2.8 35,3.3 l -9.1,-17.1 c -7,-0.9 -14.3,-2.2 -25.4,-2.2 -12.5,0 -22.6,3.1 -30.5,9.3 -7.9,6.2 -11.8,14.3 -11.8,24.2 0,5.3 1,10.1 3,14.3 2,4.2 5,7.9 9.2,10.9 4.2,3 8.2,5.7 12.1,7.7 3.9,2.1 9,4.4 15.2,7 5.2,2.1 9.2,3.8 12.1,5.1 2.9,1.4 6.2,3.3 9.9,5.8 3.7,2.5 6.4,5.2 8.1,8.2 1.7,3 2.6,6.4 2.6,10.2 0,6 -2.4,10.7 -7.2,14 -4.8,3.3 -11,5 -18.5,5 -11.6,0 -22.2,-5 -31.6,-15.1 l -15.3,8.1 c 12.9,15.3 28,22.9 45.3,22.9 13.6,0 24.3,-3.3 32.3,-9.8 8,-6.5 12,-15.3 12,-26.3 -0.1,-5 -1,-9.7 -2.8,-13.9 z"
   id="path21" />
</g>
</svg>
