<svg width="1560" height="376" viewBox="0 0 1560 376" fill="none" xmlns="http://www.w3.org/2000/svg">
<path d="M1530.68 367.9C1500.85 367.9 1477.58 359.8 1461.41 344.114C1444.72 328.428 1436.63 306.663 1436.63 278.34V166.5H1390.09V111.857H1419.92C1433.58 111.857 1440.66 105.281 1440.66 91.6159V33.9238H1499.83V111.857H1553.43V166.5H1501.33V298.067C1501.33 308.187 1506.38 313.239 1517.01 313.239H1560V367.882H1530.67L1530.68 367.9Z" fill="white"/>
<path d="M1310.7 217.602C1310.7 179.14 1295.03 159.91 1263.67 159.91C1244.97 159.91 1229.79 166.485 1219.18 179.637C1208.06 193.302 1202.49 213.543 1202.49 240.36V367.885H1137.77V111.86H1196.44V149.311C1213.12 118.949 1240.44 103.777 1279.37 103.777C1309.2 103.777 1332.97 112.888 1350.17 130.594C1366.85 148.814 1375.44 173.61 1375.44 205.478V367.92H1310.72V217.637L1310.7 217.602Z" fill="white"/>
<path d="M876.8 353.72C860.61 339.044 852.533 319.813 852.533 296.028C852.533 272.242 860.114 255.032 875.791 241.384C890.953 227.719 913.219 220.133 942.038 217.598L1001.71 213.557C1014.36 212.547 1020.93 205.457 1020.93 192.802C1020.93 180.147 1016.89 171.037 1008.29 164.461C999.694 158.382 987.543 155.351 972.894 155.351C941.542 155.351 923.846 168.502 920.304 194.309H858.095C861.124 165.471 872.248 142.696 891.98 127.01C911.695 111.324 938.513 103.738 973.408 103.738C1008.3 103.738 1036.11 112.334 1055.85 129.545C1075.06 146.755 1084.66 172.561 1084.66 206.467V313.238H1105.41V367.881H1079.62C1049.27 367.881 1033.08 352.692 1031.06 322.844C1015.39 358.257 986.055 375.981 942.569 375.981C914.76 375.981 893.008 368.395 876.836 353.72H876.8ZM1003.24 306.662C1015.37 295.017 1021.45 280.856 1021.45 263.646V253.525L955.712 258.576C929.922 260.597 917.275 271.728 917.275 292.483C917.275 302.603 920.818 310.189 927.389 315.755C933.961 321.32 943.579 324.351 955.712 324.351C974.931 324.351 990.607 318.271 1003.25 306.644L1003.24 306.662Z" fill="white"/>
<path d="M792.346 74.406C780.708 74.406 771.604 70.8611 764.022 63.7715C756.441 57.1958 752.898 48.0856 752.898 37.4511C752.898 26.8166 756.937 18.2204 764.536 10.6345C772.117 3.54483 781.222 0 792.346 0C803.47 0 813.088 3.54483 820.669 10.6345C828.25 18.2204 831.793 26.8344 831.793 37.4511C831.793 48.0679 828.25 57.1781 820.669 63.7715C813.088 70.8611 803.983 74.406 792.346 74.406ZM759.984 367.9V111.857H824.708V367.9H759.984Z" fill="white"/>
<path d="M579.449 176.62C579.449 155.865 585.011 139.682 596.649 128.552C607.773 117.421 623.962 111.855 645.697 111.855H728.63V166.499H644.173V367.898H579.449V176.62Z" fill="white"/>
<path d="M320.025 353.72C303.835 339.044 295.758 319.813 295.758 296.028C295.758 272.242 303.339 255.032 319.015 241.384C334.178 227.719 356.443 220.133 385.263 217.598L444.938 213.557C457.585 212.547 464.157 205.457 464.157 192.802C464.157 180.147 460.118 171.037 451.51 164.461C442.919 158.382 430.768 155.351 416.119 155.351C384.767 155.351 367.071 168.502 363.528 194.309H301.32C304.349 165.471 315.473 142.696 335.205 127.01C354.92 111.324 381.738 103.738 416.633 103.738C451.528 103.738 479.337 112.334 499.07 129.545C518.288 146.755 527.889 172.561 527.889 206.467V313.238H548.631V367.881H522.841C492.498 367.881 476.308 352.692 474.289 322.844C458.613 358.257 429.28 375.981 385.794 375.981C357.984 375.981 336.232 368.395 320.06 353.72H320.025ZM446.444 306.662C458.577 295.017 464.653 280.856 464.653 263.646V253.525L398.919 258.576C373.129 260.597 360.482 271.728 360.482 292.483C360.482 302.603 364.024 310.189 370.596 315.755C377.168 321.32 386.786 324.351 398.919 324.351C418.138 324.351 433.814 318.271 446.462 306.644L446.444 306.662Z" fill="white"/>
<path d="M121.371 343.158L0 13.666H71.2955L168.647 288.355L265.503 13.666H337.826L215.481 343.282C208.183 362.956 189.425 376.001 168.452 376.001C147.444 376.001 128.651 362.885 121.388 343.158H121.371Z" fill="white"/>
</svg>
