<?xml version="1.0" encoding="UTF-8" standalone="no"?> <svg xmlns:inkscape="http://www.inkscape.org/namespaces/inkscape" xmlns:sodipodi="http://sodipodi.sourceforge.net/DTD/sodipodi-0.dtd" xmlns="http://www.w3.org/2000/svg" xmlns:svg="http://www.w3.org/2000/svg" width="371.31757" height="59.30349" viewBox="0 0 98.244366 15.690724" version="1.1" id="svg284" xml:space="preserve" inkscape:export-filename="webstep.svg" inkscape:export-xdpi="97.829941" inkscape:export-ydpi="97.829941"><defs id="defs281"></defs><g inkscape:label="Layer 1" inkscape:groupmode="layer" id="layer1" transform="translate(-65.976243,-158.83716)"><path style="fill:#ffffff;stroke-width:0.0656937" d="m 73.695168,174.49364 c -0.07225,-0.0327 -0.224028,-0.0616 -0.337249,-0.0641 -0.255849,-0.006 -0.625314,-0.39066 -0.848128,-0.8836 -0.08535,-0.18882 -0.68699,-2.6704 -1.371633,-5.65754 -0.670781,-2.92666 -1.264616,-5.44173 -1.319633,-5.58904 -0.120349,-0.32227 -0.422403,-0.64454 -0.784136,-0.83665 -0.24148,-0.12824 -0.387982,-0.1436 -1.574491,-0.16506 -0.978109,-0.0177 -1.330389,-0.0458 -1.395998,-0.11142 -0.06637,-0.0664 -0.08775,-0.36125 -0.08775,-1.20923 v -1.12149 l 1.3303,0.006 c 0.731659,0.003 1.699824,0.0268 2.15147,0.0527 0.723325,0.0413 0.867421,0.0699 1.20934,0.24 0.716464,0.35628 1.269719,0.97258 1.554127,1.73122 0.07592,0.20253 0.594007,2.39325 1.151284,4.86825 0.557277,2.47502 1.021453,4.52533 1.031501,4.55626 0.01006,0.0309 0.514648,-2.2897 1.121333,-5.15695 0.606684,-2.86726 1.155664,-5.33295 1.219946,-5.47932 0.06428,-0.14636 0.209585,-0.37167 0.322873,-0.50071 0.237615,-0.27062 0.520093,-0.3358 1.455327,-0.3358 0.935234,0 1.217712,0.0652 1.455327,0.3358 0.113288,0.12904 0.262493,0.36235 0.331558,0.51849 0.06905,0.15614 0.61201,2.59653 1.206531,5.42308 0.594529,2.82654 1.089177,5.16474 1.099218,5.196 0.01006,0.0312 0.59359,-2.51691 1.296765,-5.66257 1.136528,-5.08422 1.293101,-5.72332 1.409897,-5.75485 0.207194,-0.0559 2.42145,-0.0411 2.512682,0.0168 0.109758,0.0697 -3.137854,14.27605 -3.366017,14.72433 -0.363617,0.71438 -0.693038,0.87475 -1.807257,0.87979 -1.162055,0.005 -1.541546,-0.15877 -1.870869,-0.80866 -0.108372,-0.21387 -0.460392,-1.76244 -1.181072,-5.19571 -0.564674,-2.69008 -1.048357,-4.94518 -1.074845,-5.01134 -0.0298,-0.0745 -0.443408,1.77639 -1.086279,4.86134 -0.570976,2.73989 -1.091955,5.10428 -1.15775,5.2542 -0.06577,0.14992 -0.237614,0.39057 -0.381829,0.53479 -0.209705,0.2097 -0.326136,0.27062 -0.581441,0.3042 -0.593992,0.0781 -1.500973,0.10098 -1.633106,0.0411 z m 16.771687,-0.2494 c -0.406411,-0.43437 -0.381107,0.0682 -0.381107,-7.57005 0,-7.62196 -0.02168,-7.2011 0.390343,-7.58878 l 0.209444,-0.19708 4.968799,-0.0203 c 2.732837,-0.0111 5.036766,-0.003 5.119836,0.0177 0.15077,0.0378 0.15104,0.0401 0.15104,1.25199 v 1.21407 h -4.073008 -4.073013 v 1.87227 1.87228 h 2.956217 2.956217 v 1.28103 1.28102 h -2.956217 -2.956217 v 2.1679 2.16789 h 4.073013 4.073008 v 1.21533 1.21534 h -5.144665 -5.144663 z m 13.348875,-7.56278 c 0,-7.00294 0.01,-7.75005 0.10392,-7.7861 0.13942,-0.0535 5.65863,-0.0411 6.85962,0.0154 0.92012,0.0433 0.96996,0.0531 1.46367,0.28811 0.9471,0.45079 1.51894,1.22652 1.72981,2.34655 0.0812,0.43127 0.0978,0.84104 0.0746,1.83942 -0.0327,1.40802 -0.0906,1.70338 -0.44265,2.25841 l -0.20104,0.31695 0.31878,0.28661 c 0.36697,0.32994 0.67258,0.86472 0.84422,1.47732 0.17513,0.62509 0.17806,3.57073 0.005,4.2044 -0.3054,1.11288 -0.79103,1.74655 -1.67378,2.18402 l -0.56397,0.2795 -4.25869,0.0178 -4.25869,0.0178 z m 7.36562,5.21144 c 0.71467,-0.25215 0.94464,-0.75525 0.94464,-2.06656 0,-0.84041 -0.01,-0.90668 -0.18576,-1.26515 -0.10216,-0.20806 -0.28687,-0.45541 -0.41045,-0.54967 -0.4353,-0.33202 -0.55879,-0.34709 -2.86913,-0.35019 l -2.15148,-0.003 v 2.16789 2.16789 h 2.19249 c 1.80781,0 2.24286,-0.0178 2.47969,-0.10133 z m -0.53347,-6.92505 c 0.31226,-0.11701 0.63769,-0.43657 0.73398,-0.72074 0.10901,-0.3217 0.10998,-1.68133 10e-4,-1.98764 -0.0472,-0.13311 -0.20062,-0.34577 -0.34098,-0.47257 -0.43381,-0.39193 -0.70525,-0.43505 -2.73846,-0.43505 h -1.79465 v 1.87811 1.87811 l 1.95439,-0.027 c 1.39322,-0.0193 2.0204,-0.0518 2.18431,-0.11319 z m 6.63506,8.24411 v -1.21294 l 3.16972,-0.0188 c 3.10126,-0.0184 3.1754,-0.0219 3.4325,-0.16023 0.62684,-0.33735 0.77449,-0.66723 0.80876,-1.80693 0.0334,-1.10889 -0.0498,-1.42527 -0.47884,-1.8207 -0.43009,-0.39644 -0.71884,-0.45186 -2.5635,-0.49205 -1.29305,-0.0282 -1.67589,-0.0589 -2.12835,-0.17081 -1.40222,-0.34684 -2.18414,-1.14384 -2.46489,-2.51244 -0.13723,-0.66903 -0.14324,-2.97599 -0.009,-3.60751 0.24225,-1.14288 0.93193,-1.92878 2.04823,-2.33397 l 0.42531,-0.15438 h 3.57732 3.57732 v 1.21228 1.21228 l -3.03834,0.0195 c -2.8185,0.0181 -3.05496,0.0284 -3.26826,0.14213 -0.597,0.31845 -0.7363,0.5867 -0.77475,1.4919 -0.0363,0.85524 0.0741,1.30857 0.39435,1.61849 0.41787,0.40444 0.5633,0.43243 2.51545,0.48426 1.96224,0.0521 2.40141,0.12381 3.18738,0.52057 0.84087,0.42448 1.40616,1.25143 1.61601,2.36406 0.16003,0.84845 0.0993,3.51136 -0.0965,4.23187 -0.29846,1.09825 -0.91549,1.77171 -1.9026,2.07659 -0.39808,0.12296 -0.62123,0.12982 -4.22361,0.12982 h -3.80331 z m 14.91248,-5.35644 v -6.56936 h -1.77373 -1.77373 v -1.17547 c 0,-1.01125 0.0145,-1.18102 0.10391,-1.21533 0.13578,-0.0521 9.44476,-0.0521 9.58053,0 0.0894,0.0343 0.10392,0.20408 0.10392,1.21533 v 1.17547 h -1.77373 -1.77373 v 6.56936 6.56938 h -1.34672 -1.34672 z m 8.96779,6.42673 c -0.0997,-0.0785 -0.2361,-0.26322 -0.30303,-0.41058 -0.116,-0.2554 -0.12169,-0.59224 -0.12169,-7.19863 0,-6.59943 0.006,-6.94325 0.12127,-7.19346 0.0667,-0.14453 0.20145,-0.33668 0.29943,-0.42701 l 0.17815,-0.16424 4.96783,-0.0203 c 2.7323,-0.0111 5.03578,-0.003 5.11885,0.0177 0.15078,0.0378 0.15104,0.0401 0.15104,1.25199 v 1.21407 h -4.07301 -4.07301 v 1.87227 1.87228 h 2.98907 2.98906 v 1.28103 1.28102 h -2.98906 -2.98907 v 2.1679 2.16789 h 4.07301 4.07301 v 1.21533 1.21534 h -5.11524 -5.11526 z m 12.97391,-7.60218 c 0,-7.00167 0.01,-7.74866 0.10391,-7.78471 0.14306,-0.0549 5.75897,-0.041 6.89247,0.0171 0.86183,0.0442 0.94866,0.0611 1.37956,0.26873 0.56904,0.27424 1.18767,0.87335 1.42741,1.38237 0.19915,0.42282 0.2809,1.19921 0.28017,2.6606 -7.4e-4,1.52984 -0.0828,2.30314 -0.29254,2.75913 -0.35689,0.77571 -0.99986,1.32144 -1.9519,1.6567 l -0.51423,0.18109 -2.3157,0.0217 -2.3157,0.0217 v 3.28018 3.28018 h -1.34673 -1.34672 z m 6.83097,-1.58873 c 0.65064,-0.29514 0.80365,-0.60014 0.84211,-1.67876 0.0187,-0.52512 7.5e-4,-0.87995 -0.0519,-1.04031 -0.10445,-0.3165 -0.41255,-0.66308 -0.74996,-0.84364 -0.25674,-0.13737 -0.3581,-0.14485 -2.22339,-0.16396 l -1.95439,-0.02 v 1.94156 1.94157 l 1.92155,-0.001 c 1.78984,-0.001 1.94172,-0.0106 2.21597,-0.135 z" id="path350"></path></g></svg> 