<?xml version="1.0" encoding="UTF-8"?> <svg xmlns="http://www.w3.org/2000/svg" width="445" height="180" viewBox="0 0 445 180" fill="none"><path d="M0.5 0H78.5C111.637 0 138.5 26.8629 138.5 60H0.5V0Z" fill="#BDA9DD"/><path d="M0.5 60H138.5C138.5 93.1371 111.637 120 78.5 120H0.5V60Z" fill="#817ABC"/><path d="M0.5 120H69.5V180H0.5V120Z" fill="#6A63A0"/><path d="M153.5 0H231.5C264.637 0 291.5 26.8629 291.5 60H153.5V0Z" fill="#BDA9DD"/><path d="M153.5 60H291.5C291.5 93.1371 264.637 120 231.5 120H153.5V60Z" fill="#817ABC"/><path d="M153.5 120H231.5C264.637 120 291.5 146.863 291.5 180H153.5V120Z" fill="#6A63A0"/><rect x="306.5" width="138" height="60" fill="#BDA9DD"/><rect x="341.5" y="60" width="68" height="60" fill="#817ABC"/><rect x="341.5" y="120" width="68" height="60" fill="#6A63A0"/></svg>