<?xml version="1.0" encoding="UTF-8"?>
<svg xmlns="http://www.w3.org/2000/svg" width="445" height="180" viewBox="0 0 445 180" fill="none">
  <!-- Cropped to 180 height -->
  <path d="M0.5 0H78.5C111.637 0 138.5 26.8629 138.5 60H0.5V0Z" fill="#BDA9DD"/>
  <path d="M0.5 60H138.5C138.5 93.1371 111.637 120 78.5 120H0.5V60Z" fill="#817ABC"/>
  <path d="M0.5 120H69.5V180H0.5V120Z" fill="#6A63A0"/>
  <path d="M153.5 0H231.5C264.637 0 291.5 26.8629 291.5 60H153.5V0Z" fill="#BDA9DD"/>
  <path d="M153.5 60H291.5C291.5 93.1371 264.637 120 231.5 120H153.5V60Z" fill="#817ABC"/>
  <path d="M153.5 120H231.5C264.637 120 291.5 146.863 291.5 180H153.5V120Z" fill="#6A63A0"/>
  <path d="M306.5 60C306.5 26.8629 333.363 0 366.5 0H444.5V60H306.5Z" fill="#BDA9DD"/>
  <path d="M306.5 60H384.5C417.637 60 444.5 86.8629 444.5 120H306.5V60Z" fill="#817ABC"/>
  <path d="M306.5 120H444.5V180H366.5C333.363 180 306.5 153.137 306.5 120Z" fill="#6A63A0"/>
</svg>