<?xml version="1.0" encoding="UTF-8"?> <svg xmlns="http://www.w3.org/2000/svg" width="445" height="180" viewBox="0 0 445 180" fill="none"><path d="M0.5 60C0.5 26.8629 27.3629 0 60.5 0H138.5V60H0.5Z" fill="#A9DDB1"></path><path d="M0.5 60H78.5C111.637 60 138.5 86.8629 138.5 120H60.5C27.3629 120 0.5 93.1371 0.5 60Z" fill="#94CC9D"></path><path d="M0.5 120H138.5C138.5 153.137 111.637 180 78.5 180H0.5V120Z" fill="#80BE8A"></path><path d="M153.5 0H231.5C264.637 0 291.5 26.8629 291.5 60H153.5V0Z" fill="#A9DDB1"></path><path d="M153.5 60H291.5C291.5 93.1371 264.637 120 231.5 120H153.5V60Z" fill="#94CC9D"></path><path d="M153.5 120H222.5V180H153.5V120Z" fill="#80BE8A"></path><path d="M306.5 0H444.5C444.5 33.1371 417.637 60 384.5 60H306.5V0Z" fill="#A9DDB1"></path><path d="M306.5 60H384.5C417.637 60 444.5 86.8629 444.5 120H306.5V60Z" fill="#94CC9D"></path><path d="M306.5 120H444.5V180H306.5V120Z" fill="#80BE8A"></path></svg>