<?xml version="1.0" encoding="UTF-8"?> <svg xmlns="http://www.w3.org/2000/svg" width="445" height="244" viewBox="0 0 445 244" fill="none"><path d="M0.5 60C0.5 26.8629 27.3629 0 60.5 0H138.5V60H0.5Z" fill="#A9DDB1"></path><path d="M0.5 60H78.5C111.637 60 138.5 86.8629 138.5 120H60.5C27.3629 120 0.5 93.1371 0.5 60Z" fill="#94CC9D"></path><path d="M0.5 120H138.5C138.5 153.137 111.637 180 78.5 180H0.5V120Z" fill="#80BE8A"></path><path d="M153.5 0H231.5C264.637 0 291.5 26.8629 291.5 60H153.5V0Z" fill="#A9DDB1"></path><path d="M153.5 60H291.5C291.5 93.1371 264.637 120 231.5 120H153.5V60Z" fill="#94CC9D"></path><path d="M153.5 120H222.5V180H153.5V120Z" fill="#80BE8A"></path><path d="M306.5 0H444.5C444.5 33.1371 417.637 60 384.5 60H306.5V0Z" fill="#A9DDB1"></path><path d="M306.5 60H384.5C417.637 60 444.5 86.8629 444.5 120H306.5V60Z" fill="#94CC9D"></path><path d="M306.5 120H444.5V180H306.5V120Z" fill="#80BE8A"></path><path d="M3.80469 217.203V230H2.1084V217.203H3.80469ZM16.6455 227.478C16.6455 227.243 16.5928 227.026 16.4873 226.827C16.3877 226.622 16.1797 226.438 15.8633 226.273C15.5527 226.104 15.084 225.957 14.457 225.834C13.9297 225.723 13.4521 225.591 13.0244 225.438C12.6025 225.286 12.2422 225.102 11.9434 224.885C11.6504 224.668 11.4248 224.413 11.2666 224.12C11.1084 223.827 11.0293 223.484 11.0293 223.092C11.0293 222.717 11.1113 222.362 11.2754 222.028C11.4453 221.694 11.6826 221.398 11.9873 221.141C12.2979 220.883 12.6699 220.681 13.1035 220.534C13.5371 220.388 14.0205 220.314 14.5537 220.314C15.3154 220.314 15.9658 220.449 16.5049 220.719C17.0439 220.988 17.457 221.349 17.7441 221.8C18.0312 222.245 18.1748 222.74 18.1748 223.285H16.5488C16.5488 223.021 16.4697 222.767 16.3115 222.521C16.1592 222.269 15.9336 222.061 15.6348 221.896C15.3418 221.732 14.9814 221.65 14.5537 221.65C14.1025 221.65 13.7363 221.721 13.4551 221.861C13.1797 221.996 12.9775 222.169 12.8486 222.38C12.7256 222.591 12.6641 222.813 12.6641 223.048C12.6641 223.224 12.6934 223.382 12.752 223.522C12.8164 223.657 12.9277 223.783 13.0859 223.9C13.2441 224.012 13.4668 224.117 13.7539 224.217C14.041 224.316 14.4072 224.416 14.8525 224.516C15.6318 224.691 16.2734 224.902 16.7773 225.148C17.2812 225.395 17.6562 225.696 17.9023 226.054C18.1484 226.411 18.2715 226.845 18.2715 227.354C18.2715 227.771 18.1836 228.151 18.0078 228.497C17.8379 228.843 17.5889 229.142 17.2607 229.394C16.9385 229.64 16.5518 229.833 16.1006 229.974C15.6553 230.108 15.1543 230.176 14.5977 230.176C13.7598 230.176 13.0508 230.026 12.4707 229.728C11.8906 229.429 11.4512 229.042 11.1523 228.567C10.8535 228.093 10.7041 227.592 10.7041 227.064H12.3389C12.3623 227.51 12.4912 227.864 12.7256 228.128C12.96 228.386 13.2471 228.57 13.5869 228.682C13.9268 228.787 14.2637 228.84 14.5977 228.84C15.043 228.84 15.415 228.781 15.7139 228.664C16.0186 228.547 16.25 228.386 16.4082 228.181C16.5664 227.976 16.6455 227.741 16.6455 227.478ZM26.0146 228.374V223.479C26.0146 223.104 25.9385 222.778 25.7861 222.503C25.6396 222.222 25.417 222.005 25.1182 221.853C24.8193 221.7 24.4502 221.624 24.0107 221.624C23.6006 221.624 23.2402 221.694 22.9297 221.835C22.625 221.976 22.3848 222.16 22.209 222.389C22.0391 222.617 21.9541 222.863 21.9541 223.127H20.3281C20.3281 222.787 20.416 222.45 20.5918 222.116C20.7676 221.782 21.0195 221.48 21.3477 221.211C21.6816 220.936 22.0801 220.719 22.543 220.561C23.0117 220.396 23.5332 220.314 24.1074 220.314C24.7988 220.314 25.4082 220.432 25.9355 220.666C26.4688 220.9 26.8848 221.255 27.1836 221.729C27.4883 222.198 27.6406 222.787 27.6406 223.496V227.926C27.6406 228.242 27.667 228.579 27.7197 228.937C27.7783 229.294 27.8633 229.602 27.9746 229.859V230H26.2783C26.1963 229.812 26.1318 229.563 26.085 229.253C26.0381 228.937 26.0146 228.644 26.0146 228.374ZM26.2959 224.234L26.3135 225.377H24.6699C24.207 225.377 23.7939 225.415 23.4307 225.491C23.0674 225.562 22.7627 225.67 22.5166 225.816C22.2705 225.963 22.083 226.147 21.9541 226.37C21.8252 226.587 21.7607 226.842 21.7607 227.135C21.7607 227.434 21.8281 227.706 21.9629 227.952C22.0977 228.198 22.2998 228.395 22.5693 228.541C22.8447 228.682 23.1816 228.752 23.5801 228.752C24.0781 228.752 24.5176 228.646 24.8984 228.436C25.2793 228.225 25.5811 227.967 25.8037 227.662C26.0322 227.357 26.1553 227.062 26.1729 226.774L26.8672 227.557C26.8262 227.803 26.7148 228.075 26.5332 228.374C26.3516 228.673 26.1084 228.96 25.8037 229.235C25.5049 229.505 25.1475 229.73 24.7314 229.912C24.3213 230.088 23.8584 230.176 23.3428 230.176C22.6982 230.176 22.1328 230.05 21.6465 229.798C21.166 229.546 20.791 229.209 20.5215 228.787C20.2578 228.359 20.126 227.882 20.126 227.354C20.126 226.845 20.2256 226.396 20.4248 226.01C20.624 225.617 20.9111 225.292 21.2861 225.034C21.6611 224.771 22.1123 224.571 22.6396 224.437C23.167 224.302 23.7559 224.234 24.4062 224.234H26.2959ZM31.8154 222.38V230H30.1807V220.49H31.7275L31.8154 222.38ZM31.4814 224.885L30.7256 224.858C30.7314 224.208 30.8164 223.607 30.9805 223.057C31.1445 222.5 31.3877 222.017 31.71 221.606C32.0322 221.196 32.4336 220.88 32.9141 220.657C33.3945 220.429 33.9512 220.314 34.584 220.314C35.0293 220.314 35.4395 220.379 35.8145 220.508C36.1895 220.631 36.5146 220.827 36.79 221.097C37.0654 221.366 37.2793 221.712 37.4316 222.134C37.584 222.556 37.6602 223.065 37.6602 223.663V230H36.0342V223.742C36.0342 223.244 35.9492 222.846 35.7793 222.547C35.6152 222.248 35.3809 222.031 35.0762 221.896C34.7715 221.756 34.4141 221.686 34.0039 221.686C33.5234 221.686 33.1221 221.771 32.7998 221.94C32.4775 222.11 32.2197 222.345 32.0264 222.644C31.833 222.942 31.6924 223.285 31.6045 223.672C31.5225 224.053 31.4814 224.457 31.4814 224.885ZM37.6426 223.988L36.5527 224.322C36.5586 223.801 36.6436 223.3 36.8076 222.819C36.9775 222.339 37.2207 221.911 37.5371 221.536C37.8594 221.161 38.2549 220.865 38.7236 220.648C39.1924 220.426 39.7285 220.314 40.332 220.314C40.8418 220.314 41.293 220.382 41.6855 220.517C42.084 220.651 42.418 220.859 42.6875 221.141C42.9629 221.416 43.1709 221.771 43.3115 222.204C43.4521 222.638 43.5225 223.153 43.5225 223.751V230H41.8877V223.733C41.8877 223.2 41.8027 222.787 41.6328 222.494C41.4688 222.195 41.2344 221.987 40.9297 221.87C40.6309 221.747 40.2734 221.686 39.8574 221.686C39.5 221.686 39.1836 221.747 38.9082 221.87C38.6328 221.993 38.4014 222.163 38.2139 222.38C38.0264 222.591 37.8828 222.834 37.7832 223.109C37.6895 223.385 37.6426 223.678 37.6426 223.988ZM51.5908 228.374V223.479C51.5908 223.104 51.5146 222.778 51.3623 222.503C51.2158 222.222 50.9932 222.005 50.6943 221.853C50.3955 221.7 50.0264 221.624 49.5869 221.624C49.1768 221.624 48.8164 221.694 48.5059 221.835C48.2012 221.976 47.9609 222.16 47.7852 222.389C47.6152 222.617 47.5303 222.863 47.5303 223.127H45.9043C45.9043 222.787 45.9922 222.45 46.168 222.116C46.3438 221.782 46.5957 221.48 46.9238 221.211C47.2578 220.936 47.6562 220.719 48.1191 220.561C48.5879 220.396 49.1094 220.314 49.6836 220.314C50.375 220.314 50.9844 220.432 51.5117 220.666C52.0449 220.9 52.4609 221.255 52.7598 221.729C53.0645 222.198 53.2168 222.787 53.2168 223.496V227.926C53.2168 228.242 53.2432 228.579 53.2959 228.937C53.3545 229.294 53.4395 229.602 53.5508 229.859V230H51.8545C51.7725 229.812 51.708 229.563 51.6611 229.253C51.6143 228.937 51.5908 228.644 51.5908 228.374ZM51.8721 224.234L51.8896 225.377H50.2461C49.7832 225.377 49.3701 225.415 49.0068 225.491C48.6436 225.562 48.3389 225.67 48.0928 225.816C47.8467 225.963 47.6592 226.147 47.5303 226.37C47.4014 226.587 47.3369 226.842 47.3369 227.135C47.3369 227.434 47.4043 227.706 47.5391 227.952C47.6738 228.198 47.876 228.395 48.1455 228.541C48.4209 228.682 48.7578 228.752 49.1562 228.752C49.6543 228.752 50.0938 228.646 50.4746 228.436C50.8555 228.225 51.1572 227.967 51.3799 227.662C51.6084 227.357 51.7314 227.062 51.749 226.774L52.4434 227.557C52.4023 227.803 52.291 228.075 52.1094 228.374C51.9277 228.673 51.6846 228.96 51.3799 229.235C51.0811 229.505 50.7236 229.73 50.3076 229.912C49.8975 230.088 49.4346 230.176 48.9189 230.176C48.2744 230.176 47.709 230.05 47.2227 229.798C46.7422 229.546 46.3672 229.209 46.0977 228.787C45.834 228.359 45.7021 227.882 45.7021 227.354C45.7021 226.845 45.8018 226.396 46.001 226.01C46.2002 225.617 46.4873 225.292 46.8623 225.034C47.2373 224.771 47.6885 224.571 48.2158 224.437C48.7432 224.302 49.332 224.234 49.9824 224.234H51.8721ZM57.4004 221.984V230H55.7744V220.49H57.3564L57.4004 221.984ZM60.3711 220.438L60.3623 221.949C60.2275 221.92 60.0986 221.902 59.9756 221.896C59.8584 221.885 59.7236 221.879 59.5713 221.879C59.1963 221.879 58.8652 221.938 58.5781 222.055C58.291 222.172 58.0479 222.336 57.8486 222.547C57.6494 222.758 57.4912 223.01 57.374 223.303C57.2627 223.59 57.1895 223.906 57.1543 224.252L56.6973 224.516C56.6973 223.941 56.7529 223.402 56.8643 222.898C56.9814 222.395 57.1602 221.949 57.4004 221.562C57.6406 221.17 57.9453 220.865 58.3145 220.648C58.6895 220.426 59.1348 220.314 59.6504 220.314C59.7676 220.314 59.9023 220.329 60.0547 220.358C60.207 220.382 60.3125 220.408 60.3711 220.438ZM61.8652 216.5H63.5V228.154L63.3594 230H61.8652V216.5ZM69.9248 225.166V225.351C69.9248 226.042 69.8428 226.684 69.6787 227.275C69.5146 227.861 69.2744 228.371 68.958 228.805C68.6416 229.238 68.2549 229.575 67.7979 229.815C67.3408 230.056 66.8164 230.176 66.2246 230.176C65.6211 230.176 65.0908 230.073 64.6338 229.868C64.1826 229.657 63.8018 229.355 63.4912 228.963C63.1807 228.57 62.9316 228.096 62.7441 227.539C62.5625 226.982 62.4365 226.355 62.3662 225.658V224.85C62.4365 224.146 62.5625 223.517 62.7441 222.96C62.9316 222.403 63.1807 221.929 63.4912 221.536C63.8018 221.138 64.1826 220.836 64.6338 220.631C65.085 220.42 65.6094 220.314 66.207 220.314C66.8047 220.314 67.335 220.432 67.7979 220.666C68.2607 220.895 68.6475 221.223 68.958 221.65C69.2744 222.078 69.5146 222.591 69.6787 223.188C69.8428 223.78 69.9248 224.439 69.9248 225.166ZM68.29 225.351V225.166C68.29 224.691 68.2461 224.246 68.1582 223.83C68.0703 223.408 67.9297 223.039 67.7363 222.723C67.543 222.4 67.2881 222.148 66.9717 221.967C66.6553 221.779 66.2656 221.686 65.8027 221.686C65.3926 221.686 65.0352 221.756 64.7305 221.896C64.4316 222.037 64.1768 222.228 63.9658 222.468C63.7549 222.702 63.582 222.972 63.4473 223.276C63.3184 223.575 63.2217 223.886 63.1572 224.208V226.326C63.251 226.736 63.4033 227.132 63.6143 227.513C63.8311 227.888 64.1182 228.195 64.4756 228.436C64.8389 228.676 65.2871 228.796 65.8203 228.796C66.2598 228.796 66.6348 228.708 66.9453 228.532C67.2617 228.351 67.5166 228.102 67.71 227.785C67.9092 227.469 68.0557 227.103 68.1494 226.687C68.2432 226.271 68.29 225.825 68.29 225.351ZM75.9277 230.176C75.2656 230.176 74.665 230.064 74.126 229.842C73.5928 229.613 73.1328 229.294 72.7461 228.884C72.3652 228.474 72.0723 227.987 71.8672 227.425C71.6621 226.862 71.5596 226.247 71.5596 225.579V225.21C71.5596 224.437 71.6738 223.748 71.9023 223.145C72.1309 222.535 72.4414 222.02 72.834 221.598C73.2266 221.176 73.6719 220.856 74.1699 220.64C74.668 220.423 75.1836 220.314 75.7168 220.314C76.3965 220.314 76.9824 220.432 77.4746 220.666C77.9727 220.9 78.3799 221.229 78.6963 221.65C79.0127 222.066 79.2471 222.559 79.3994 223.127C79.5518 223.689 79.6279 224.305 79.6279 224.973V225.702H72.5264V224.375H78.002V224.252C77.9785 223.83 77.8906 223.42 77.7383 223.021C77.5918 222.623 77.3574 222.295 77.0352 222.037C76.7129 221.779 76.2734 221.65 75.7168 221.65C75.3477 221.65 75.0078 221.729 74.6973 221.888C74.3867 222.04 74.1201 222.269 73.8975 222.573C73.6748 222.878 73.502 223.25 73.3789 223.689C73.2559 224.129 73.1943 224.636 73.1943 225.21V225.579C73.1943 226.03 73.2559 226.455 73.3789 226.854C73.5078 227.246 73.6924 227.592 73.9326 227.891C74.1787 228.189 74.4746 228.424 74.8203 228.594C75.1719 228.764 75.5703 228.849 76.0156 228.849C76.5898 228.849 77.0762 228.731 77.4746 228.497C77.873 228.263 78.2217 227.949 78.5205 227.557L79.5049 228.339C79.2998 228.649 79.0391 228.945 78.7227 229.227C78.4062 229.508 78.0166 229.736 77.5537 229.912C77.0967 230.088 76.5547 230.176 75.9277 230.176ZM83.293 220.49V230H81.6582V220.49H83.293ZM81.5352 217.968C81.5352 217.704 81.6143 217.481 81.7725 217.3C81.9365 217.118 82.1768 217.027 82.4932 217.027C82.8037 217.027 83.041 217.118 83.2051 217.3C83.375 217.481 83.46 217.704 83.46 217.968C83.46 218.22 83.375 218.437 83.2051 218.618C83.041 218.794 82.8037 218.882 82.4932 218.882C82.1768 218.882 81.9365 218.794 81.7725 218.618C81.6143 218.437 81.5352 218.22 81.5352 217.968ZM91.8975 228.154V216.5H93.5322V230H92.0381L91.8975 228.154ZM85.499 225.351V225.166C85.499 224.439 85.5869 223.78 85.7627 223.188C85.9443 222.591 86.1992 222.078 86.5273 221.65C86.8613 221.223 87.2568 220.895 87.7139 220.666C88.1768 220.432 88.6924 220.314 89.2607 220.314C89.8584 220.314 90.3799 220.42 90.8252 220.631C91.2764 220.836 91.6572 221.138 91.9678 221.536C92.2842 221.929 92.5332 222.403 92.7148 222.96C92.8965 223.517 93.0225 224.146 93.0928 224.85V225.658C93.0283 226.355 92.9023 226.982 92.7148 227.539C92.5332 228.096 92.2842 228.57 91.9678 228.963C91.6572 229.355 91.2764 229.657 90.8252 229.868C90.374 230.073 89.8467 230.176 89.2432 230.176C88.6865 230.176 88.1768 230.056 87.7139 229.815C87.2568 229.575 86.8613 229.238 86.5273 228.805C86.1992 228.371 85.9443 227.861 85.7627 227.275C85.5869 226.684 85.499 226.042 85.499 225.351ZM87.1338 225.166V225.351C87.1338 225.825 87.1807 226.271 87.2744 226.687C87.374 227.103 87.5264 227.469 87.7314 227.785C87.9365 228.102 88.1973 228.351 88.5137 228.532C88.8301 228.708 89.208 228.796 89.6475 228.796C90.1865 228.796 90.6289 228.682 90.9746 228.453C91.3262 228.225 91.6074 227.923 91.8184 227.548C92.0293 227.173 92.1934 226.766 92.3105 226.326V224.208C92.2402 223.886 92.1377 223.575 92.0029 223.276C91.874 222.972 91.7041 222.702 91.4932 222.468C91.2881 222.228 91.0332 222.037 90.7285 221.896C90.4297 221.756 90.0752 221.686 89.665 221.686C89.2197 221.686 88.8359 221.779 88.5137 221.967C88.1973 222.148 87.9365 222.4 87.7314 222.723C87.5264 223.039 87.374 223.408 87.2744 223.83C87.1807 224.246 87.1338 224.691 87.1338 225.166ZM102.146 222.38V230H100.511V220.49H102.058L102.146 222.38ZM101.812 224.885L101.056 224.858C101.062 224.208 101.146 223.607 101.311 223.057C101.475 222.5 101.718 222.017 102.04 221.606C102.362 221.196 102.764 220.88 103.244 220.657C103.725 220.429 104.281 220.314 104.914 220.314C105.359 220.314 105.77 220.379 106.145 220.508C106.52 220.631 106.845 220.827 107.12 221.097C107.396 221.366 107.609 221.712 107.762 222.134C107.914 222.556 107.99 223.065 107.99 223.663V230H106.364V223.742C106.364 223.244 106.279 222.846 106.109 222.547C105.945 222.248 105.711 222.031 105.406 221.896C105.102 221.756 104.744 221.686 104.334 221.686C103.854 221.686 103.452 221.771 103.13 221.94C102.808 222.11 102.55 222.345 102.356 222.644C102.163 222.942 102.022 223.285 101.935 223.672C101.853 224.053 101.812 224.457 101.812 224.885ZM107.973 223.988L106.883 224.322C106.889 223.801 106.974 223.3 107.138 222.819C107.308 222.339 107.551 221.911 107.867 221.536C108.189 221.161 108.585 220.865 109.054 220.648C109.522 220.426 110.059 220.314 110.662 220.314C111.172 220.314 111.623 220.382 112.016 220.517C112.414 220.651 112.748 220.859 113.018 221.141C113.293 221.416 113.501 221.771 113.642 222.204C113.782 222.638 113.853 223.153 113.853 223.751V230H112.218V223.733C112.218 223.2 112.133 222.787 111.963 222.494C111.799 222.195 111.564 221.987 111.26 221.87C110.961 221.747 110.604 221.686 110.188 221.686C109.83 221.686 109.514 221.747 109.238 221.87C108.963 221.993 108.731 222.163 108.544 222.38C108.356 222.591 108.213 222.834 108.113 223.109C108.02 223.385 107.973 223.678 107.973 223.988ZM120.26 230.176C119.598 230.176 118.997 230.064 118.458 229.842C117.925 229.613 117.465 229.294 117.078 228.884C116.697 228.474 116.404 227.987 116.199 227.425C115.994 226.862 115.892 226.247 115.892 225.579V225.21C115.892 224.437 116.006 223.748 116.234 223.145C116.463 222.535 116.773 222.02 117.166 221.598C117.559 221.176 118.004 220.856 118.502 220.64C119 220.423 119.516 220.314 120.049 220.314C120.729 220.314 121.314 220.432 121.807 220.666C122.305 220.9 122.712 221.229 123.028 221.65C123.345 222.066 123.579 222.559 123.731 223.127C123.884 223.689 123.96 224.305 123.96 224.973V225.702H116.858V224.375H122.334V224.252C122.311 223.83 122.223 223.42 122.07 223.021C121.924 222.623 121.689 222.295 121.367 222.037C121.045 221.779 120.605 221.65 120.049 221.65C119.68 221.65 119.34 221.729 119.029 221.888C118.719 222.04 118.452 222.269 118.229 222.573C118.007 222.878 117.834 223.25 117.711 223.689C117.588 224.129 117.526 224.636 117.526 225.21V225.579C117.526 226.03 117.588 226.455 117.711 226.854C117.84 227.246 118.024 227.592 118.265 227.891C118.511 228.189 118.807 228.424 119.152 228.594C119.504 228.764 119.902 228.849 120.348 228.849C120.922 228.849 121.408 228.731 121.807 228.497C122.205 228.263 122.554 227.949 122.853 227.557L123.837 228.339C123.632 228.649 123.371 228.945 123.055 229.227C122.738 229.508 122.349 229.736 121.886 229.912C121.429 230.088 120.887 230.176 120.26 230.176ZM131.853 228.154V216.5H133.487V230H131.993L131.853 228.154ZM125.454 225.351V225.166C125.454 224.439 125.542 223.78 125.718 223.188C125.899 222.591 126.154 222.078 126.482 221.65C126.816 221.223 127.212 220.895 127.669 220.666C128.132 220.432 128.647 220.314 129.216 220.314C129.813 220.314 130.335 220.42 130.78 220.631C131.231 220.836 131.612 221.138 131.923 221.536C132.239 221.929 132.488 222.403 132.67 222.96C132.852 223.517 132.978 224.146 133.048 224.85V225.658C132.983 226.355 132.857 226.982 132.67 227.539C132.488 228.096 132.239 228.57 131.923 228.963C131.612 229.355 131.231 229.657 130.78 229.868C130.329 230.073 129.802 230.176 129.198 230.176C128.642 230.176 128.132 230.056 127.669 229.815C127.212 229.575 126.816 229.238 126.482 228.805C126.154 228.371 125.899 227.861 125.718 227.275C125.542 226.684 125.454 226.042 125.454 225.351ZM127.089 225.166V225.351C127.089 225.825 127.136 226.271 127.229 226.687C127.329 227.103 127.481 227.469 127.687 227.785C127.892 228.102 128.152 228.351 128.469 228.532C128.785 228.708 129.163 228.796 129.603 228.796C130.142 228.796 130.584 228.682 130.93 228.453C131.281 228.225 131.562 227.923 131.773 227.548C131.984 227.173 132.148 226.766 132.266 226.326V224.208C132.195 223.886 132.093 223.575 131.958 223.276C131.829 222.972 131.659 222.702 131.448 222.468C131.243 222.228 130.988 222.037 130.684 221.896C130.385 221.756 130.03 221.686 129.62 221.686C129.175 221.686 128.791 221.779 128.469 221.967C128.152 222.148 127.892 222.4 127.687 222.723C127.481 223.039 127.329 223.408 127.229 223.83C127.136 224.246 127.089 224.691 127.089 225.166Z" fill="white"></path><path d="M165.898 241.01V233.389C171.878 233.389 176.744 228.51 176.744 222.513C176.744 216.515 171.878 211.634 165.898 211.634V204.014C176.067 204.014 184.341 212.314 184.341 222.513C184.341 232.711 176.067 241.01 165.898 241.01Z" fill="white"></path><path d="M159.097 204H151.5V241.008H159.097V204Z" fill="white"></path><path d="M196.362 222.613V211.526H199.693C200.394 211.526 201.063 211.67 201.701 211.958C202.337 212.245 202.895 212.642 203.375 213.147C203.855 213.651 204.238 214.238 204.524 214.906C204.81 215.576 204.954 216.296 204.954 217.072C204.954 217.847 204.811 218.568 204.524 219.237C204.238 219.907 203.855 220.492 203.375 220.996C202.895 221.502 202.337 221.896 201.701 222.185C201.065 222.472 200.394 222.617 199.693 222.617H196.362V222.613ZM199.693 221.03C200.149 221.03 200.593 220.931 201.026 220.731C201.458 220.532 201.841 220.257 202.174 219.905C202.508 219.553 202.776 219.136 202.981 218.655C203.185 218.173 203.287 217.645 203.287 217.072C203.287 216.498 203.185 215.968 202.981 215.488C202.776 215.007 202.508 214.59 202.174 214.238C201.841 213.887 201.458 213.61 201.026 213.412C200.593 213.212 200.149 213.113 199.693 213.113H198.028V221.032H199.693V221.03Z" fill="white"></path><path d="M213.395 220.325C213.266 220.653 213.102 220.962 212.903 221.249C212.704 221.536 212.464 221.788 212.185 222.005C211.905 222.222 211.58 222.393 211.212 222.516C210.845 222.639 210.431 222.7 209.977 222.7C209.451 222.7 208.959 222.601 208.503 222.402C208.047 222.202 207.648 221.923 207.302 221.565C206.957 221.208 206.688 220.781 206.496 220.289C206.303 219.797 206.206 219.251 206.206 218.653C206.206 218.055 206.303 217.509 206.496 217.017C206.688 216.525 206.952 216.1 207.285 215.741C207.619 215.384 208.01 215.104 208.461 214.904C208.91 214.705 209.386 214.605 209.89 214.605C210.394 214.605 210.868 214.705 211.319 214.904C211.768 215.104 212.161 215.383 212.495 215.741C212.828 216.1 213.09 216.525 213.284 217.017C213.478 217.509 213.574 218.055 213.574 218.653C213.574 218.747 213.567 218.837 213.557 218.926C213.545 219.013 213.533 219.087 213.521 219.146C213.509 219.228 213.497 219.298 213.485 219.358H207.874C207.898 219.604 207.967 219.84 208.085 220.062C208.202 220.286 208.35 220.482 208.532 220.651C208.713 220.822 208.929 220.957 209.181 221.056C209.432 221.157 209.698 221.206 209.979 221.206C210.458 221.206 210.838 221.104 211.119 220.899C211.399 220.694 211.603 220.502 211.733 220.327H213.398L213.395 220.325ZM209.888 216.101C209.363 216.101 208.919 216.281 208.556 216.638C208.194 216.996 207.966 217.463 207.872 218.036H212.08C211.986 217.461 211.753 216.995 211.379 216.638C211.005 216.281 210.508 216.101 209.888 216.101Z" fill="white"></path><path d="M218.967 214.605C219.399 214.605 219.809 214.691 220.194 214.86C220.579 215.029 220.915 215.265 221.203 215.564C221.489 215.862 221.713 216.223 221.878 216.646C222.042 217.068 222.123 217.533 222.123 218.036V222.612H220.546V218.036C220.546 217.779 220.497 217.533 220.396 217.297C220.298 217.063 220.163 216.856 219.993 216.68C219.823 216.505 219.627 216.364 219.406 216.259C219.183 216.153 218.95 216.1 218.705 216.1C218.436 216.1 218.185 216.153 217.952 216.259C217.718 216.364 217.513 216.505 217.337 216.68C217.162 216.856 217.024 217.061 216.926 217.297C216.827 217.531 216.776 217.779 216.776 218.036V222.612H215.199V214.693H216.339L216.689 215.485C216.84 215.321 217.023 215.174 217.234 215.044C217.421 214.938 217.657 214.839 217.943 214.746C218.229 214.652 218.571 214.605 218.969 214.605H218.967Z" fill="white"></path><path d="M232.118 214.605C232.55 214.605 232.96 214.691 233.344 214.86C233.729 215.029 234.066 215.265 234.353 215.564C234.639 215.862 234.864 216.223 235.029 216.646C235.192 217.068 235.274 217.533 235.274 218.036V222.612H233.697V218.036C233.697 217.779 233.647 217.533 233.547 217.297C233.448 217.063 233.314 216.856 233.144 216.68C232.974 216.505 232.778 216.364 232.557 216.259C232.334 216.153 232.101 216.1 231.856 216.1C231.587 216.1 231.335 216.153 231.102 216.259C230.869 216.364 230.663 216.505 230.488 216.68C230.312 216.856 230.175 217.061 230.076 217.297C229.977 217.531 229.926 217.779 229.926 218.036V222.612H228.349V214.693H229.489L229.839 215.485C229.991 215.321 230.173 215.174 230.384 215.044C230.571 214.938 230.808 214.839 231.093 214.746C231.379 214.652 231.721 214.605 232.119 214.605H232.118Z" fill="white"></path><path d="M244.337 218.653C244.337 219.251 244.24 219.797 244.048 220.289C243.856 220.783 243.587 221.208 243.242 221.565C242.896 221.923 242.496 222.202 242.04 222.402C241.585 222.601 241.094 222.7 240.567 222.7C240.04 222.7 239.55 222.601 239.094 222.402C238.638 222.202 238.238 221.923 237.892 221.565C237.547 221.208 237.278 220.781 237.086 220.289C236.894 219.797 236.797 219.251 236.797 218.653C236.797 218.055 236.894 217.509 237.086 217.017C237.278 216.525 237.547 216.1 237.892 215.741C238.238 215.384 238.638 215.104 239.094 214.904C239.55 214.705 240.04 214.605 240.567 214.605C241.094 214.605 241.585 214.705 242.04 214.904C242.496 215.104 242.896 215.383 243.242 215.741C243.587 216.1 243.856 216.525 244.048 217.017C244.24 217.51 244.337 218.055 244.337 218.653ZM242.76 218.653C242.76 218.277 242.699 217.934 242.576 217.623C242.454 217.312 242.292 217.042 242.095 216.814C241.896 216.585 241.663 216.409 241.394 216.286C241.125 216.163 240.851 216.101 240.57 216.101C240.29 216.101 240.016 216.163 239.747 216.286C239.478 216.409 239.245 216.585 239.046 216.814C238.847 217.042 238.687 217.312 238.564 217.623C238.442 217.934 238.381 218.277 238.381 218.653C238.381 219.029 238.442 219.372 238.564 219.683C238.687 219.994 238.847 220.263 239.046 220.492C239.245 220.721 239.478 220.897 239.747 221.02C240.016 221.143 240.291 221.204 240.57 221.204C240.849 221.204 241.125 221.143 241.394 221.02C241.663 220.897 241.896 220.721 242.095 220.492C242.294 220.263 242.454 219.994 242.576 219.683C242.699 219.372 242.76 219.029 242.76 218.653Z" fill="white"></path><path d="M249.45 214.605C249.544 214.605 249.619 214.611 249.678 214.623C249.736 214.634 249.789 214.646 249.837 214.658C249.884 214.67 249.93 214.682 249.976 214.694V216.277C249.93 216.265 249.877 216.253 249.818 216.242C249.76 216.23 249.699 216.218 249.634 216.206C249.569 216.194 249.508 216.189 249.45 216.189C249.181 216.189 248.93 216.242 248.697 216.347C248.463 216.453 248.258 216.593 248.082 216.769C247.907 216.945 247.769 217.15 247.671 217.386C247.572 217.62 247.521 217.867 247.521 218.125V222.613H245.944V214.694H247.084L247.434 215.487C247.574 215.323 247.744 215.176 247.943 215.046C248.106 214.94 248.314 214.841 248.566 214.747C248.817 214.653 249.112 214.607 249.45 214.607V214.605Z" fill="white"></path><path d="M252.457 220.062C252.503 220.414 252.637 220.692 252.86 220.897C253.081 221.102 253.415 221.205 253.859 221.205C254.35 221.205 254.706 221.111 254.929 220.923C255.15 220.735 255.262 220.506 255.262 220.236C255.262 220.002 255.157 219.823 254.948 219.7C254.738 219.577 254.476 219.475 254.167 219.393C253.857 219.311 253.52 219.225 253.158 219.138C252.795 219.051 252.458 218.925 252.149 218.759C251.839 218.595 251.579 218.375 251.368 218.1C251.157 217.825 251.053 217.451 251.053 216.983C251.053 216.655 251.118 216.348 251.245 216.059C251.373 215.772 251.555 215.519 251.788 215.302C252.021 215.086 252.305 214.915 252.639 214.792C252.972 214.669 253.348 214.607 253.77 214.607C254.694 214.607 255.395 214.831 255.875 215.277C256.355 215.723 256.617 216.322 256.664 217.072H255.087C255.041 216.802 254.909 216.573 254.692 216.385C254.476 216.197 254.168 216.103 253.772 216.103C253.376 216.103 253.071 216.194 252.86 216.377C252.649 216.559 252.545 216.761 252.545 216.983C252.545 217.217 252.651 217.396 252.86 217.519C253.069 217.642 253.331 217.745 253.641 217.827C253.951 217.909 254.287 217.994 254.65 218.081C255.012 218.168 255.349 218.295 255.659 218.46C255.969 218.626 256.229 218.844 256.44 219.119C256.651 219.394 256.755 219.768 256.755 220.236C256.755 220.94 256.503 221.527 256.001 221.995C255.497 222.465 254.784 222.699 253.862 222.699C252.892 222.699 252.164 222.47 251.679 222.012C251.194 221.555 250.929 220.904 250.881 220.059H252.458L252.457 220.062Z" fill="white"></path><path d="M263.116 222.613L260.049 218.829V222.613H258.471V211.526H260.049V218.125L262.766 214.694H264.607L261.539 218.39L265.046 222.613H263.118H263.116Z" fill="white"></path><path d="M272.326 220.325C272.197 220.653 272.034 220.962 271.834 221.249C271.635 221.536 271.395 221.788 271.116 222.005C270.836 222.222 270.511 222.393 270.143 222.516C269.776 222.639 269.362 222.7 268.908 222.7C268.382 222.7 267.891 222.601 267.435 222.402C266.979 222.202 266.579 221.923 266.233 221.565C265.888 221.208 265.619 220.781 265.427 220.289C265.235 219.797 265.138 219.251 265.138 218.653C265.138 218.055 265.235 217.509 265.427 217.017C265.619 216.525 265.883 216.1 266.216 215.741C266.55 215.384 266.941 215.104 267.392 214.904C267.841 214.705 268.318 214.605 268.821 214.605C269.325 214.605 269.8 214.705 270.25 214.904C270.7 215.104 271.093 215.383 271.426 215.741C271.76 216.1 272.022 216.525 272.216 217.017C272.408 217.51 272.505 218.055 272.505 218.653C272.505 218.747 272.498 218.837 272.488 218.926C272.476 219.013 272.464 219.087 272.452 219.146C272.44 219.228 272.428 219.298 272.416 219.358H266.805C266.829 219.604 266.899 219.84 267.016 220.062C267.133 220.286 267.281 220.482 267.463 220.651C267.644 220.822 267.86 220.957 268.112 221.056C268.364 221.157 268.629 221.206 268.91 221.206C269.389 221.206 269.769 221.104 270.05 220.899C270.33 220.694 270.535 220.502 270.664 220.327H272.33L272.326 220.325ZM268.819 216.101C268.294 216.101 267.85 216.281 267.487 216.638C267.125 216.996 266.897 217.463 266.803 218.036H271.011C270.917 217.461 270.684 216.995 270.31 216.638C269.936 216.281 269.439 216.101 268.819 216.101Z" fill="white"></path><path d="M199.43 241.097C198.904 241.097 198.412 240.998 197.956 240.798C197.5 240.598 197.1 240.32 196.755 239.961C196.41 239.604 196.141 239.177 195.948 238.685C195.756 238.193 195.659 237.647 195.659 237.049C195.659 236.452 195.756 235.905 195.948 235.413C196.141 234.92 196.41 234.496 196.755 234.137C197.1 233.781 197.5 233.5 197.956 233.301C198.412 233.101 198.902 233.002 199.43 233.002C199.804 233.002 200.125 233.048 200.394 233.142C200.663 233.236 200.891 233.335 201.078 233.441C201.289 233.57 201.47 233.716 201.623 233.881V229.921H203.2V241.008H202.06L201.71 240.215C201.558 240.379 201.376 240.526 201.167 240.654C200.98 240.772 200.743 240.875 200.457 240.962C200.171 241.051 199.829 241.093 199.431 241.093L199.43 241.097ZM199.518 234.498C199.214 234.498 198.924 234.559 198.65 234.682C198.376 234.805 198.133 234.981 197.922 235.21C197.711 235.439 197.544 235.709 197.422 236.019C197.299 236.33 197.238 236.674 197.238 237.049C197.238 237.425 197.299 237.768 197.422 238.079C197.544 238.39 197.711 238.66 197.922 238.889C198.133 239.117 198.375 239.293 198.65 239.416C198.924 239.539 199.214 239.601 199.518 239.601C199.823 239.601 200.11 239.539 200.386 239.416C200.66 239.293 200.903 239.117 201.114 238.889C201.325 238.66 201.492 238.39 201.614 238.079C201.737 237.768 201.798 237.425 201.798 237.049C201.798 236.674 201.737 236.33 201.614 236.019C201.492 235.709 201.325 235.439 201.114 235.21C200.903 234.981 200.661 234.805 200.386 234.682C200.11 234.559 199.821 234.498 199.518 234.498Z" fill="white"></path><path d="M211.275 241.01L210.925 240.217C210.773 240.381 210.591 240.528 210.382 240.656C210.195 240.774 209.958 240.876 209.672 240.963C209.386 241.052 209.044 241.095 208.646 241.095C208.121 241.095 207.629 240.996 207.173 240.796C206.717 240.596 206.317 240.318 205.972 239.959C205.626 239.602 205.357 239.175 205.165 238.684C204.973 238.192 204.876 237.645 204.876 237.047C204.876 236.45 204.973 235.903 205.165 235.411C205.357 234.92 205.626 234.494 205.972 234.136C206.317 233.779 206.717 233.499 207.173 233.299C207.629 233.099 208.119 233 208.646 233C209.043 233 209.386 233.046 209.672 233.14C209.958 233.234 210.195 233.333 210.382 233.439C210.593 233.569 210.773 233.714 210.925 233.88L211.275 233.087H212.415V241.006H211.275V241.01ZM206.453 237.049C206.453 237.425 206.514 237.768 206.637 238.079C206.759 238.39 206.926 238.66 207.137 238.888C207.348 239.117 207.59 239.293 207.865 239.416C208.139 239.539 208.429 239.601 208.733 239.601C209.038 239.601 209.325 239.539 209.601 239.416C209.875 239.293 210.118 239.117 210.329 238.888C210.54 238.66 210.707 238.39 210.829 238.079C210.952 237.768 211.013 237.425 211.013 237.049C211.013 236.673 210.952 236.33 210.829 236.019C210.707 235.709 210.54 235.439 210.329 235.21C210.118 234.981 209.876 234.805 209.601 234.682C209.325 234.559 209.036 234.498 208.733 234.498C208.43 234.498 208.139 234.559 207.865 234.682C207.591 234.805 207.348 234.981 207.137 235.21C206.926 235.439 206.759 235.709 206.637 236.019C206.514 236.33 206.453 236.673 206.453 237.049Z" fill="white"></path><path d="M216.621 238.37C216.621 238.722 216.738 239.015 216.971 239.249C217.205 239.483 217.497 239.601 217.848 239.601C217.906 239.601 217.967 239.598 218.031 239.593C218.096 239.588 218.157 239.577 218.215 239.565C218.273 239.553 218.326 239.536 218.373 239.512V240.921C218.304 240.957 218.222 240.986 218.128 241.008C217.953 241.066 217.742 241.095 217.497 241.095C217.147 241.095 216.822 241.031 216.524 240.903C216.226 240.774 215.966 240.592 215.743 240.358C215.52 240.124 215.348 239.839 215.226 239.504C215.103 239.169 215.042 238.792 215.042 238.368V234.585H213.64V233.089H214.254C214.559 233.089 214.809 232.99 215.008 232.79C215.207 232.591 215.306 232.34 215.306 232.034V230.979H216.621V233.091H218.373V234.587H216.621V238.37Z" fill="white"></path><path d="M225.703 241.01L225.353 240.217C225.201 240.381 225.019 240.528 224.81 240.656C224.623 240.774 224.386 240.876 224.1 240.963C223.815 241.052 223.473 241.095 223.075 241.095C222.549 241.095 222.057 240.996 221.601 240.796C221.145 240.596 220.745 240.318 220.4 239.959C220.054 239.602 219.786 239.175 219.593 238.684C219.401 238.192 219.304 237.645 219.304 237.047C219.304 236.45 219.401 235.903 219.593 235.411C219.786 234.92 220.054 234.494 220.4 234.136C220.745 233.779 221.145 233.499 221.601 233.299C222.057 233.099 222.547 233 223.075 233C223.471 233 223.815 233.046 224.1 233.14C224.386 233.234 224.623 233.333 224.81 233.439C225.021 233.569 225.201 233.714 225.353 233.88L225.703 233.087H226.843V241.006H225.703V241.01ZM220.881 237.049C220.881 237.425 220.943 237.768 221.065 238.079C221.188 238.39 221.354 238.66 221.565 238.888C221.776 239.117 222.018 239.293 222.294 239.416C222.567 239.539 222.857 239.601 223.161 239.601C223.466 239.601 223.753 239.539 224.029 239.416C224.303 239.293 224.546 239.117 224.757 238.888C224.968 238.66 225.135 238.39 225.257 238.079C225.38 237.768 225.441 237.425 225.441 237.049C225.441 236.673 225.38 236.33 225.257 236.019C225.135 235.709 224.968 235.439 224.757 235.21C224.546 234.981 224.305 234.805 224.029 234.682C223.753 234.559 223.464 234.498 223.161 234.498C222.858 234.498 222.567 234.559 222.294 234.682C222.02 234.805 221.776 234.981 221.565 235.21C221.354 235.439 221.188 235.709 221.065 236.019C220.943 236.33 220.881 236.673 220.881 237.049Z" fill="white"></path><path d="M232.562 234.587H230.808V241.01H229.23V234.587H228.266V233.091H229.23V232.563C229.23 232.141 229.292 231.762 229.414 231.428C229.537 231.093 229.708 230.809 229.931 230.574C230.153 230.34 230.413 230.157 230.712 230.029C231.01 229.899 231.335 229.836 231.686 229.836C231.813 229.836 231.931 229.844 232.036 229.862C232.142 229.879 232.235 229.899 232.317 229.923C232.41 229.959 232.492 229.988 232.562 230.012V231.419C232.514 231.407 232.461 231.395 232.404 231.383C232.346 231.371 232.284 231.359 232.22 231.347C232.155 231.335 232.094 231.33 232.036 231.33C231.686 231.33 231.393 231.448 231.16 231.682C230.927 231.916 230.809 232.21 230.809 232.562V233.089H232.563V234.585L232.562 234.587Z" fill="white"></path><path d="M240.829 237.049C240.829 237.647 240.732 238.194 240.54 238.685C240.348 239.179 240.079 239.604 239.733 239.961C239.388 240.32 238.988 240.598 238.532 240.798C238.076 240.998 237.586 241.097 237.059 241.097C236.531 241.097 236.041 240.998 235.585 240.798C235.129 240.598 234.729 240.32 234.384 239.961C234.039 239.604 233.77 239.177 233.578 238.685C233.385 238.194 233.288 237.647 233.288 237.049C233.288 236.452 233.385 235.905 233.578 235.413C233.77 234.92 234.039 234.496 234.384 234.138C234.729 233.781 235.129 233.501 235.585 233.301C236.041 233.101 236.531 233.002 237.059 233.002C237.586 233.002 238.076 233.101 238.532 233.301C238.988 233.501 239.388 233.779 239.733 234.138C240.079 234.496 240.348 234.922 240.54 235.413C240.732 235.907 240.829 236.452 240.829 237.049ZM239.252 237.049C239.252 236.674 239.191 236.33 239.068 236.02C238.946 235.709 238.784 235.439 238.587 235.21C238.388 234.981 238.154 234.805 237.886 234.682C237.617 234.559 237.343 234.498 237.062 234.498C236.781 234.498 236.507 234.559 236.239 234.682C235.97 234.805 235.737 234.981 235.538 235.21C235.339 235.439 235.179 235.709 235.056 236.02C234.934 236.33 234.872 236.674 234.872 237.049C234.872 237.425 234.934 237.768 235.056 238.079C235.179 238.39 235.339 238.66 235.538 238.889C235.737 239.118 235.97 239.293 236.239 239.416C236.507 239.539 236.783 239.601 237.062 239.601C237.341 239.601 237.617 239.539 237.886 239.416C238.154 239.293 238.388 239.118 238.587 238.889C238.786 238.66 238.946 238.39 239.068 238.079C239.191 237.768 239.252 237.425 239.252 237.049Z" fill="white"></path><path d="M245.942 233.002C246.035 233.002 246.11 233.007 246.17 233.019C246.228 233.031 246.28 233.043 246.328 233.055C246.376 233.067 246.422 233.079 246.468 233.091V234.674C246.422 234.662 246.369 234.65 246.309 234.638C246.252 234.626 246.19 234.614 246.126 234.602C246.061 234.59 246 234.585 245.942 234.585C245.673 234.585 245.421 234.638 245.188 234.744C244.955 234.85 244.749 234.99 244.574 235.166C244.399 235.342 244.261 235.547 244.162 235.782C244.064 236.016 244.012 236.264 244.012 236.522V241.01H242.435V233.091H243.575L243.926 233.883C244.065 233.719 244.235 233.572 244.434 233.443C244.598 233.337 244.805 233.238 245.057 233.144C245.309 233.05 245.603 233.004 245.942 233.004V233.002Z" fill="white"></path><path d="M254.427 238.721C254.298 239.049 254.134 239.358 253.935 239.645C253.736 239.932 253.496 240.185 253.217 240.402C252.937 240.619 252.612 240.79 252.244 240.912C251.877 241.035 251.463 241.097 251.009 241.097C250.483 241.097 249.991 240.998 249.535 240.798C249.079 240.598 248.68 240.32 248.334 239.961C247.989 239.604 247.72 239.177 247.528 238.685C247.335 238.194 247.238 237.647 247.238 237.049C247.238 236.452 247.335 235.905 247.528 235.413C247.72 234.92 247.984 234.496 248.317 234.138C248.651 233.781 249.042 233.501 249.493 233.301C249.942 233.101 250.418 233.002 250.922 233.002C251.426 233.002 251.9 233.101 252.351 233.301C252.8 233.501 253.193 233.779 253.527 234.138C253.86 234.496 254.122 234.922 254.316 235.413C254.509 235.907 254.606 236.452 254.606 237.049C254.606 237.143 254.599 237.234 254.589 237.323C254.577 237.41 254.565 237.483 254.553 237.543C254.541 237.625 254.529 237.695 254.517 237.755H248.906C248.93 238.001 248.999 238.236 249.117 238.458C249.234 238.682 249.382 238.878 249.564 239.048C249.745 239.218 249.961 239.353 250.213 239.452C250.464 239.553 250.73 239.603 251.01 239.603C251.49 239.603 251.87 239.5 252.15 239.295C252.431 239.09 252.635 238.899 252.765 238.723H254.43L254.427 238.721ZM250.92 234.498C250.395 234.498 249.951 234.677 249.588 235.034C249.226 235.393 248.998 235.859 248.904 236.433H253.112C253.018 235.857 252.785 235.391 252.411 235.034C252.036 234.677 251.54 234.498 250.92 234.498Z" fill="white"></path><path d="M259.999 233.002C260.431 233.002 260.841 233.087 261.226 233.256C261.612 233.427 261.947 233.661 262.235 233.96C262.521 234.259 262.745 234.619 262.91 235.043C263.074 235.465 263.155 235.929 263.155 236.433V241.008H261.578V236.433C261.578 236.175 261.529 235.929 261.428 235.693C261.33 235.459 261.195 235.253 261.025 235.077C260.855 234.901 260.659 234.761 260.438 234.655C260.215 234.549 259.982 234.496 259.737 234.496C259.468 234.496 259.217 234.549 258.983 234.655C258.75 234.761 258.544 234.901 258.369 235.077C258.194 235.253 258.056 235.458 257.957 235.693C257.859 235.927 257.808 236.175 257.808 236.433V241.008H256.231V233.089H257.37L257.721 233.881C257.872 233.718 258.054 233.571 258.265 233.441C258.453 233.335 258.689 233.236 258.975 233.142C259.261 233.048 259.603 233.002 260.001 233.002H259.999Z" fill="white"></path><path d="M265.878 231.858C265.609 231.858 265.381 231.764 265.194 231.576C265.007 231.388 264.913 231.159 264.913 230.889C264.913 230.619 265.007 230.391 265.194 230.203C265.381 230.015 265.609 229.921 265.878 229.921C266.147 229.921 266.375 230.015 266.562 230.203C266.749 230.391 266.842 230.619 266.842 230.889C266.842 231.159 266.749 231.388 266.562 231.576C266.375 231.764 266.147 231.858 265.878 231.858ZM266.667 241.01H265.09V233.091H266.667V241.01Z" fill="white"></path><path d="M272.486 233.002C272.918 233.002 273.328 233.087 273.713 233.256C274.097 233.425 274.434 233.661 274.722 233.96C275.008 234.259 275.232 234.619 275.397 235.043C275.561 235.465 275.642 235.929 275.642 236.433V241.008H274.065V236.433C274.065 236.175 274.016 235.929 273.915 235.693C273.817 235.459 273.682 235.253 273.512 235.077C273.342 234.901 273.146 234.761 272.925 234.655C272.702 234.549 272.469 234.496 272.224 234.496C271.955 234.496 271.703 234.549 271.47 234.655C271.237 234.761 271.031 234.901 270.856 235.077C270.681 235.253 270.543 235.458 270.444 235.693C270.346 235.927 270.295 236.175 270.295 236.433V241.008H268.717V233.089H269.857L270.208 233.881C270.359 233.718 270.541 233.571 270.752 233.441C270.939 233.335 271.176 233.236 271.462 233.142C271.748 233.048 272.09 233.002 272.488 233.002H272.486Z" fill="white"></path><path d="M284.498 233.091V240.658C284.498 241.14 284.413 241.586 284.245 241.995C284.075 242.405 283.835 242.761 283.527 243.059C283.217 243.358 282.839 243.591 282.395 243.754C281.951 243.918 281.454 244 280.905 244C280.425 244 279.993 243.932 279.608 243.799C279.222 243.664 278.887 243.485 278.599 243.263C278.314 243.039 278.075 242.779 277.89 242.479C277.703 242.18 277.568 241.866 277.487 241.538H279.064C279.193 241.808 279.399 242.052 279.687 242.269C279.972 242.486 280.379 242.595 280.905 242.595C281.524 242.595 282.016 242.416 282.378 242.059C282.741 241.7 282.921 241.234 282.921 240.66V239.868C282.77 240.031 282.588 240.178 282.378 240.308C282.191 240.426 281.963 240.528 281.694 240.616C281.425 240.703 281.104 240.747 280.73 240.747C280.25 240.747 279.792 240.648 279.353 240.448C278.914 240.248 278.531 239.975 278.205 239.63C277.878 239.283 277.618 238.877 277.424 238.407C277.231 237.938 277.134 237.427 277.134 236.875C277.134 236.324 277.231 235.813 277.424 235.344C277.616 234.874 277.876 234.466 278.205 234.121C278.531 233.774 278.914 233.503 279.353 233.303C279.792 233.103 280.25 233.004 280.73 233.004C281.126 233.004 281.468 233.05 281.756 233.144C282.041 233.238 282.278 233.337 282.465 233.443C282.676 233.573 282.856 233.718 283.01 233.883L283.36 233.091H284.5H284.498ZM280.922 239.251C281.203 239.251 281.473 239.19 281.737 239.067C282.001 238.944 282.23 238.773 282.429 238.556C282.628 238.339 282.788 238.086 282.911 237.799C283.033 237.512 283.095 237.205 283.095 236.875C283.095 236.546 283.033 236.238 282.911 235.952C282.788 235.665 282.627 235.412 282.429 235.195C282.23 234.978 281.997 234.807 281.728 234.684C281.46 234.561 281.186 234.5 280.905 234.5C280.624 234.5 280.35 234.561 280.081 234.684C279.813 234.807 279.579 234.978 279.38 235.195C279.181 235.412 279.021 235.665 278.899 235.952C278.776 236.238 278.715 236.548 278.715 236.875C278.715 237.203 278.776 237.512 278.899 237.799C279.021 238.086 279.185 238.339 279.389 238.556C279.593 238.773 279.828 238.944 280.09 239.067C280.354 239.19 280.631 239.251 280.924 239.251H280.922Z" fill="white"></path></svg> 