<?xml version="1.0" encoding="UTF-8"?> <svg xmlns="http://www.w3.org/2000/svg" width="445" height="180" viewBox="0 0 445 180" fill="none"><path d="M0 0H78C111.137 0 138 26.8629 138 60H0V0Z" fill="#FF8675"/><path d="M0 60H138C138 93.1371 111.137 120 78 120H0V60Z" fill="#EA7564"/><path d="M0 120H69V180H0V120Z" fill="#CE5D4D"/><path d="M153 0H231C264.137 0 291 26.8629 291 60H153V0Z" fill="#FF8675"/><path d="M153 60H291C291 93.1371 264.137 120 231 120H153V60Z" fill="#EA7564"/><path d="M153 120H231C264.137 120 291 146.863 291 180H153V120Z" fill="#CE5D4D"/><path d="M306 60C306 26.8629 332.863 0 366 0H444V60H306Z" fill="#FF8675"/><path d="M306 60H384C417.137 60 444 86.8629 444 120H306V60Z" fill="#EA7564"/><path d="M306 120H444V180H366C332.863 180 306 153.137 306 120Z" fill="#CE5D4D"/></svg>