<svg width="445" height="180" viewBox="0 0 445 180" fill="none" xmlns="http://www.w3.org/2000/svg">
<path d="M309 0H378V60H309V0Z" fill="#BDA9DD"/>
<path d="M309 60H378V120H309V60Z" fill="#817ABC"/>
<path d="M309 120H447V180H309V120Z" fill="#6A63A0"/>
<path d="M156 60C156 26.8629 182.863 0 216 0H234C267.137 0 294 26.8629 294 60H156Z" fill="#BDA9DD"/>
<path d="M156 60H294V120H156V60Z" fill="#817ABC"/>
<path d="M156 120H294C294 153.137 267.137 180 234 180H216C182.863 180 156 153.137 156 120Z" fill="#6A63A0"/>
<path d="M0 0H138V60H0V0Z" fill="#BDA9DD"/>
<path d="M0 60H138V120H0V60Z" fill="#817ABC"/>
<path d="M0 120H138C138 153.137 111.137 180 78 180H0V120Z" fill="#6A63A0"/>
</svg>
