<svg width="443" height="244" viewBox="0 0 443 244" fill="none" xmlns="http://www.w3.org/2000/svg">
<path d="M305 60C305 26.8629 331.863 0 365 0H443V60H305V60Z" fill="#A9DDB1"/>
<path d="M305 60H383C416.137 60 443 86.8629 443 120V120H365C331.863 120 305 93.1371 305 60V60Z" fill="#94CC9D"/>
<path d="M305 120H443V120C443 153.137 416.137 180 383 180H305V120Z" fill="#80BE8A"/>
<path d="M152 0H230C263.137 0 290 26.8629 290 60V60H152V0Z" fill="#A9DDB1"/>
<path d="M152 60H290V60C290 93.1371 263.137 120 230 120H152V60Z" fill="#94CC9D"/>
<path d="M152 120H230C263.137 120 290 146.863 290 180V180H152V120Z" fill="#80BE8A"/>
<path d="M0 60C0 26.8629 26.8629 0 60 0H138V60H0V60Z" fill="#A9DDB1"/>
<path d="M0 60H69V120H0V60Z" fill="#94CC9D"/>
<path d="M0 120H138V180H60C26.8629 180 0 153.137 0 120V120Z" fill="#80BE8A"/>
<path d="M1.80469 217.203V230H0.108398V217.203H1.80469ZM14.6455 227.478C14.6455 227.243 14.5928 227.026 14.4873 226.827C14.3877 226.622 14.1797 226.438 13.8633 226.273C13.5527 226.104 13.084 225.957 12.457 225.834C11.9297 225.723 11.4521 225.591 11.0244 225.438C10.6025 225.286 10.2422 225.102 9.9434 224.885C9.6504 224.668 9.4248 224.413 9.2666 224.12C9.1084 223.827 9.0293 223.484 9.0293 223.092C9.0293 222.717 9.1113 222.362 9.2754 222.028C9.4453 221.694 9.6826 221.398 9.9873 221.141C10.2979 220.883 10.6699 220.681 11.1035 220.534C11.5371 220.388 12.0205 220.314 12.5537 220.314C13.3154 220.314 13.9658 220.449 14.5049 220.719C15.0439 220.988 15.457 221.349 15.7441 221.8C16.0312 222.245 16.1748 222.74 16.1748 223.285H14.5488C14.5488 223.021 14.4697 222.767 14.3115 222.521C14.1592 222.269 13.9336 222.061 13.6348 221.896C13.3418 221.732 12.9814 221.65 12.5537 221.65C12.1025 221.65 11.7363 221.721 11.4551 221.861C11.1797 221.996 10.9775 222.169 10.8486 222.38C10.7256 222.591 10.6641 222.813 10.6641 223.048C10.6641 223.224 10.6934 223.382 10.752 223.522C10.8164 223.657 10.9277 223.783 11.0859 223.9C11.2441 224.012 11.4668 224.117 11.7539 224.217C12.041 224.316 12.4072 224.416 12.8525 224.516C13.6318 224.691 14.2734 224.902 14.7773 225.148C15.2812 225.395 15.6562 225.696 15.9023 226.054C16.1484 226.411 16.2715 226.845 16.2715 227.354C16.2715 227.771 16.1836 228.151 16.0078 228.497C15.8379 228.843 15.5889 229.142 15.2607 229.394C14.9385 229.64 14.5518 229.833 14.1006 229.974C13.6553 230.108 13.1543 230.176 12.5977 230.176C11.7598 230.176 11.0508 230.026 10.4707 229.728C9.8906 229.429 9.4512 229.042 9.1523 228.567C8.8535 228.093 8.7041 227.592 8.7041 227.064H10.3389C10.3623 227.51 10.4912 227.864 10.7256 228.128C10.96 228.386 11.2471 228.57 11.5869 228.682C11.9268 228.787 12.2637 228.84 12.5977 228.84C13.043 228.84 13.415 228.781 13.7139 228.664C14.0186 228.547 14.25 228.386 14.4082 228.181C14.5664 227.976 14.6455 227.741 14.6455 227.478ZM24.0146 228.374V223.479C24.0146 223.104 23.9385 222.778 23.7861 222.503C23.6396 222.222 23.417 222.005 23.1182 221.853C22.8193 221.7 22.4502 221.624 22.0107 221.624C21.6006 221.624 21.2402 221.694 20.9297 221.835C20.625 221.976 20.3848 222.16 20.209 222.389C20.0391 222.617 19.9541 222.863 19.9541 223.127H18.3281C18.3281 222.787 18.416 222.45 18.5918 222.116C18.7676 221.782 19.0195 221.48 19.3477 221.211C19.6816 220.936 20.0801 220.719 20.543 220.561C21.0117 220.396 21.5332 220.314 22.1074 220.314C22.7988 220.314 23.4082 220.432 23.9355 220.666C24.4688 220.9 24.8848 221.255 25.1836 221.729C25.4883 222.198 25.6406 222.787 25.6406 223.496V227.926C25.6406 228.242 25.667 228.579 25.7197 228.937C25.7783 229.294 25.8633 229.602 25.9746 229.859V230H24.2783C24.1963 229.812 24.1318 229.563 24.085 229.253C24.0381 228.937 24.0146 228.644 24.0146 228.374ZM24.2959 224.234L24.3135 225.377H22.6699C22.207 225.377 21.7939 225.415 21.4307 225.491C21.0674 225.562 20.7627 225.67 20.5166 225.816C20.2705 225.963 20.083 226.147 19.9541 226.37C19.8252 226.587 19.7607 226.842 19.7607 227.135C19.7607 227.434 19.8281 227.706 19.9629 227.952C20.0977 228.198 20.2998 228.395 20.5693 228.541C20.8447 228.682 21.1816 228.752 21.5801 228.752C22.0781 228.752 22.5176 228.646 22.8984 228.436C23.2793 228.225 23.5811 227.967 23.8037 227.662C24.0322 227.357 24.1553 227.062 24.1729 226.774L24.8672 227.557C24.8262 227.803 24.7148 228.075 24.5332 228.374C24.3516 228.673 24.1084 228.96 23.8037 229.235C23.5049 229.505 23.1475 229.73 22.7314 229.912C22.3213 230.088 21.8584 230.176 21.3428 230.176C20.6982 230.176 20.1328 230.05 19.6465 229.798C19.166 229.546 18.791 229.209 18.5215 228.787C18.2578 228.359 18.126 227.882 18.126 227.354C18.126 226.845 18.2256 226.396 18.4248 226.01C18.624 225.617 18.9111 225.292 19.2861 225.034C19.6611 224.771 20.1123 224.571 20.6396 224.437C21.167 224.302 21.7559 224.234 22.4062 224.234H24.2959ZM29.8154 222.38V230H28.1807V220.49H29.7275L29.8154 222.38ZM29.4814 224.885L28.7256 224.858C28.7314 224.208 28.8164 223.607 28.9805 223.057C29.1445 222.5 29.3877 222.017 29.71 221.606C30.0322 221.196 30.4336 220.88 30.9141 220.657C31.3945 220.429 31.9512 220.314 32.584 220.314C33.0293 220.314 33.4395 220.379 33.8145 220.508C34.1895 220.631 34.5146 220.827 34.79 221.097C35.0654 221.366 35.2793 221.712 35.4316 222.134C35.584 222.556 35.6602 223.065 35.6602 223.663V230H34.0342V223.742C34.0342 223.244 33.9492 222.846 33.7793 222.547C33.6152 222.248 33.3809 222.031 33.0762 221.896C32.7715 221.756 32.4141 221.686 32.0039 221.686C31.5234 221.686 31.1221 221.771 30.7998 221.94C30.4775 222.11 30.2197 222.345 30.0264 222.644C29.833 222.942 29.6924 223.285 29.6045 223.672C29.5225 224.053 29.4814 224.457 29.4814 224.885ZM35.6426 223.988L34.5527 224.322C34.5586 223.801 34.6436 223.3 34.8076 222.819C34.9775 222.339 35.2207 221.911 35.5371 221.536C35.8594 221.161 36.2549 220.865 36.7236 220.648C37.1924 220.426 37.7285 220.314 38.332 220.314C38.8418 220.314 39.293 220.382 39.6855 220.517C40.084 220.651 40.418 220.859 40.6875 221.141C40.9629 221.416 41.1709 221.771 41.3115 222.204C41.4521 222.638 41.5225 223.153 41.5225 223.751V230H39.8877V223.733C39.8877 223.2 39.8027 222.787 39.6328 222.494C39.4688 222.195 39.2344 221.987 38.9297 221.87C38.6309 221.747 38.2734 221.686 37.8574 221.686C37.5 221.686 37.1836 221.747 36.9082 221.87C36.6328 221.993 36.4014 222.163 36.2139 222.38C36.0264 222.591 35.8828 222.834 35.7832 223.109C35.6895 223.385 35.6426 223.678 35.6426 223.988ZM49.5908 228.374V223.479C49.5908 223.104 49.5146 222.778 49.3623 222.503C49.2158 222.222 48.9932 222.005 48.6943 221.853C48.3955 221.7 48.0264 221.624 47.5869 221.624C47.1768 221.624 46.8164 221.694 46.5059 221.835C46.2012 221.976 45.9609 222.16 45.7852 222.389C45.6152 222.617 45.5303 222.863 45.5303 223.127H43.9043C43.9043 222.787 43.9922 222.45 44.168 222.116C44.3438 221.782 44.5957 221.48 44.9238 221.211C45.2578 220.936 45.6562 220.719 46.1191 220.561C46.5879 220.396 47.1094 220.314 47.6836 220.314C48.375 220.314 48.9844 220.432 49.5117 220.666C50.0449 220.9 50.4609 221.255 50.7598 221.729C51.0645 222.198 51.2168 222.787 51.2168 223.496V227.926C51.2168 228.242 51.2432 228.579 51.2959 228.937C51.3545 229.294 51.4395 229.602 51.5508 229.859V230H49.8545C49.7725 229.812 49.708 229.563 49.6611 229.253C49.6143 228.937 49.5908 228.644 49.5908 228.374ZM49.8721 224.234L49.8896 225.377H48.2461C47.7832 225.377 47.3701 225.415 47.0068 225.491C46.6436 225.562 46.3389 225.67 46.0928 225.816C45.8467 225.963 45.6592 226.147 45.5303 226.37C45.4014 226.587 45.3369 226.842 45.3369 227.135C45.3369 227.434 45.4043 227.706 45.5391 227.952C45.6738 228.198 45.876 228.395 46.1455 228.541C46.4209 228.682 46.7578 228.752 47.1562 228.752C47.6543 228.752 48.0938 228.646 48.4746 228.436C48.8555 228.225 49.1572 227.967 49.3799 227.662C49.6084 227.357 49.7314 227.062 49.749 226.774L50.4434 227.557C50.4023 227.803 50.291 228.075 50.1094 228.374C49.9277 228.673 49.6846 228.96 49.3799 229.235C49.0811 229.505 48.7236 229.73 48.3076 229.912C47.8975 230.088 47.4346 230.176 46.9189 230.176C46.2744 230.176 45.709 230.05 45.2227 229.798C44.7422 229.546 44.3672 229.209 44.0977 228.787C43.834 228.359 43.7021 227.882 43.7021 227.354C43.7021 226.845 43.8018 226.396 44.001 226.01C44.2002 225.617 44.4873 225.292 44.8623 225.034C45.2373 224.771 45.6885 224.571 46.2158 224.437C46.7432 224.302 47.332 224.234 47.9824 224.234H49.8721ZM55.4004 221.984V230H53.7744V220.49H55.3564L55.4004 221.984ZM58.3711 220.438L58.3623 221.949C58.2275 221.92 58.0986 221.902 57.9756 221.896C57.8584 221.885 57.7236 221.879 57.5713 221.879C57.1963 221.879 56.8652 221.938 56.5781 222.055C56.291 222.172 56.0479 222.336 55.8486 222.547C55.6494 222.758 55.4912 223.01 55.374 223.303C55.2627 223.59 55.1895 223.906 55.1543 224.252L54.6973 224.516C54.6973 223.941 54.7529 223.402 54.8643 222.898C54.9814 222.395 55.1602 221.949 55.4004 221.562C55.6406 221.17 55.9453 220.865 56.3145 220.648C56.6895 220.426 57.1348 220.314 57.6504 220.314C57.7676 220.314 57.9023 220.329 58.0547 220.358C58.207 220.382 58.3125 220.408 58.3711 220.438ZM59.8652 216.5H61.5V228.154L61.3594 230H59.8652V216.5ZM67.9248 225.166V225.351C67.9248 226.042 67.8428 226.684 67.6787 227.275C67.5146 227.861 67.2744 228.371 66.958 228.805C66.6416 229.238 66.2549 229.575 65.7979 229.815C65.3408 230.056 64.8164 230.176 64.2246 230.176C63.6211 230.176 63.0908 230.073 62.6338 229.868C62.1826 229.657 61.8018 229.355 61.4912 228.963C61.1807 228.57 60.9316 228.096 60.7441 227.539C60.5625 226.982 60.4365 226.355 60.3662 225.658V224.85C60.4365 224.146 60.5625 223.517 60.7441 222.96C60.9316 222.403 61.1807 221.929 61.4912 221.536C61.8018 221.138 62.1826 220.836 62.6338 220.631C63.085 220.42 63.6094 220.314 64.207 220.314C64.8047 220.314 65.335 220.432 65.7979 220.666C66.2607 220.895 66.6475 221.223 66.958 221.65C67.2744 222.078 67.5146 222.591 67.6787 223.188C67.8428 223.78 67.9248 224.439 67.9248 225.166ZM66.29 225.351V225.166C66.29 224.691 66.2461 224.246 66.1582 223.83C66.0703 223.408 65.9297 223.039 65.7363 222.723C65.543 222.4 65.2881 222.148 64.9717 221.967C64.6553 221.779 64.2656 221.686 63.8027 221.686C63.3926 221.686 63.0352 221.756 62.7305 221.896C62.4316 222.037 62.1768 222.228 61.9658 222.468C61.7549 222.702 61.582 222.972 61.4473 223.276C61.3184 223.575 61.2217 223.886 61.1572 224.208V226.326C61.251 226.736 61.4033 227.132 61.6143 227.513C61.8311 227.888 62.1182 228.195 62.4756 228.436C62.8389 228.676 63.2871 228.796 63.8203 228.796C64.2598 228.796 64.6348 228.708 64.9453 228.532C65.2617 228.351 65.5166 228.102 65.71 227.785C65.9092 227.469 66.0557 227.103 66.1494 226.687C66.2432 226.271 66.29 225.825 66.29 225.351ZM73.9277 230.176C73.2656 230.176 72.665 230.064 72.126 229.842C71.5928 229.613 71.1328 229.294 70.7461 228.884C70.3652 228.474 70.0723 227.987 69.8672 227.425C69.6621 226.862 69.5596 226.247 69.5596 225.579V225.21C69.5596 224.437 69.6738 223.748 69.9023 223.145C70.1309 222.535 70.4414 222.02 70.834 221.598C71.2266 221.176 71.6719 220.856 72.1699 220.64C72.668 220.423 73.1836 220.314 73.7168 220.314C74.3965 220.314 74.9824 220.432 75.4746 220.666C75.9727 220.9 76.3799 221.229 76.6963 221.65C77.0127 222.066 77.2471 222.559 77.3994 223.127C77.5518 223.689 77.6279 224.305 77.6279 224.973V225.702H70.5264V224.375H76.002V224.252C75.9785 223.83 75.8906 223.42 75.7383 223.021C75.5918 222.623 75.3574 222.295 75.0352 222.037C74.7129 221.779 74.2734 221.65 73.7168 221.65C73.3477 221.65 73.0078 221.729 72.6973 221.888C72.3867 222.04 72.1201 222.269 71.8975 222.573C71.6748 222.878 71.502 223.25 71.3789 223.689C71.2559 224.129 71.1943 224.636 71.1943 225.21V225.579C71.1943 226.03 71.2559 226.455 71.3789 226.854C71.5078 227.246 71.6924 227.592 71.9326 227.891C72.1787 228.189 72.4746 228.424 72.8203 228.594C73.1719 228.764 73.5703 228.849 74.0156 228.849C74.5898 228.849 75.0762 228.731 75.4746 228.497C75.873 228.263 76.2217 227.949 76.5205 227.557L77.5049 228.339C77.2998 228.649 77.0391 228.945 76.7227 229.227C76.4062 229.508 76.0166 229.736 75.5537 229.912C75.0967 230.088 74.5547 230.176 73.9277 230.176ZM81.293 220.49V230H79.6582V220.49H81.293ZM79.5352 217.968C79.5352 217.704 79.6143 217.481 79.7725 217.3C79.9365 217.118 80.1768 217.027 80.4932 217.027C80.8037 217.027 81.041 217.118 81.2051 217.3C81.375 217.481 81.46 217.704 81.46 217.968C81.46 218.22 81.375 218.437 81.2051 218.618C81.041 218.794 80.8037 218.882 80.4932 218.882C80.1768 218.882 79.9365 218.794 79.7725 218.618C79.6143 218.437 79.5352 218.22 79.5352 217.968ZM89.8975 228.154V216.5H91.5322V230H90.0381L89.8975 228.154ZM83.499 225.351V225.166C83.499 224.439 83.5869 223.78 83.7627 223.188C83.9443 222.591 84.1992 222.078 84.5273 221.65C84.8613 221.223 85.2568 220.895 85.7139 220.666C86.1768 220.432 86.6924 220.314 87.2607 220.314C87.8584 220.314 88.3799 220.42 88.8252 220.631C89.2764 220.836 89.6572 221.138 89.9678 221.536C90.2842 221.929 90.5332 222.403 90.7148 222.96C90.8965 223.517 91.0225 224.146 91.0928 224.85V225.658C91.0283 226.355 90.9023 226.982 90.7148 227.539C90.5332 228.096 90.2842 228.57 89.9678 228.963C89.6572 229.355 89.2764 229.657 88.8252 229.868C88.374 230.073 87.8467 230.176 87.2432 230.176C86.6865 230.176 86.1768 230.056 85.7139 229.815C85.2568 229.575 84.8613 229.238 84.5273 228.805C84.1992 228.371 83.9443 227.861 83.7627 227.275C83.5869 226.684 83.499 226.042 83.499 225.351ZM85.1338 225.166V225.351C85.1338 225.825 85.1807 226.271 85.2744 226.687C85.374 227.103 85.5264 227.469 85.7314 227.785C85.9365 228.102 86.1973 228.351 86.5137 228.532C86.8301 228.708 87.208 228.796 87.6475 228.796C88.1865 228.796 88.6289 228.682 88.9746 228.453C89.3262 228.225 89.6074 227.923 89.8184 227.548C90.0293 227.173 90.1934 226.766 90.3105 226.326V224.208C90.2402 223.886 90.1377 223.575 90.0029 223.276C89.874 222.972 89.7041 222.702 89.4932 222.468C89.2881 222.228 89.0332 222.037 88.7285 221.896C88.4297 221.756 88.0752 221.686 87.665 221.686C87.2197 221.686 86.8359 221.779 86.5137 221.967C86.1973 222.148 85.9365 222.4 85.7314 222.723C85.5264 223.039 85.374 223.408 85.2744 223.83C85.1807 224.246 85.1338 224.691 85.1338 225.166ZM100.146 222.38V230H98.511V220.49H100.058L100.146 222.38ZM99.812 224.885L99.056 224.858C99.062 224.208 99.146 223.607 99.311 223.057C99.475 222.5 99.718 222.017 100.04 221.606C100.362 221.196 100.764 220.88 101.244 220.657C101.725 220.429 102.281 220.314 102.914 220.314C103.359 220.314 103.77 220.379 104.145 220.508C104.52 220.631 104.845 220.827 105.12 221.097C105.396 221.366 105.609 221.712 105.762 222.134C105.914 222.556 105.99 223.065 105.99 223.663V230H104.364V223.742C104.364 223.244 104.279 222.846 104.109 222.547C103.945 222.248 103.711 222.031 103.406 221.896C103.102 221.756 102.744 221.686 102.334 221.686C101.854 221.686 101.452 221.771 101.13 221.94C100.808 222.11 100.55 222.345 100.356 222.644C100.163 222.942 100.022 223.285 99.935 223.672C99.853 224.053 99.812 224.457 99.812 224.885ZM105.973 223.988L104.883 224.322C104.889 223.801 104.974 223.3 105.138 222.819C105.308 222.339 105.551 221.911 105.867 221.536C106.189 221.161 106.585 220.865 107.054 220.648C107.522 220.426 108.059 220.314 108.662 220.314C109.172 220.314 109.623 220.382 110.016 220.517C110.414 220.651 110.748 220.859 111.018 221.141C111.293 221.416 111.501 221.771 111.642 222.204C111.782 222.638 111.853 223.153 111.853 223.751V230H110.218V223.733C110.218 223.2 110.133 222.787 109.963 222.494C109.799 222.195 109.564 221.987 109.26 221.87C108.961 221.747 108.604 221.686 108.188 221.686C107.83 221.686 107.514 221.747 107.238 221.87C106.963 221.993 106.731 222.163 106.544 222.38C106.356 222.591 106.213 222.834 106.113 223.109C106.02 223.385 105.973 223.678 105.973 223.988ZM118.26 230.176C117.598 230.176 116.997 230.064 116.458 229.842C115.925 229.613 115.465 229.294 115.078 228.884C114.697 228.474 114.404 227.987 114.199 227.425C113.994 226.862 113.892 226.247 113.892 225.579V225.21C113.892 224.437 114.006 223.748 114.234 223.145C114.463 222.535 114.773 222.02 115.166 221.598C115.559 221.176 116.004 220.856 116.502 220.64C117 220.423 117.516 220.314 118.049 220.314C118.729 220.314 119.314 220.432 119.807 220.666C120.305 220.9 120.712 221.229 121.028 221.65C121.345 222.066 121.579 222.559 121.731 223.127C121.884 223.689 121.96 224.305 121.96 224.973V225.702H114.858V224.375H120.334V224.252C120.311 223.83 120.223 223.42 120.07 223.021C119.924 222.623 119.689 222.295 119.367 222.037C119.045 221.779 118.605 221.65 118.049 221.65C117.68 221.65 117.34 221.729 117.029 221.888C116.719 222.04 116.452 222.269 116.229 222.573C116.007 222.878 115.834 223.25 115.711 223.689C115.588 224.129 115.526 224.636 115.526 225.21V225.579C115.526 226.03 115.588 226.455 115.711 226.854C115.84 227.246 116.024 227.592 116.265 227.891C116.511 228.189 116.807 228.424 117.152 228.594C117.504 228.764 117.902 228.849 118.348 228.849C118.922 228.849 119.408 228.731 119.807 228.497C120.205 228.263 120.554 227.949 120.853 227.557L121.837 228.339C121.632 228.649 121.371 228.945 121.055 229.227C120.738 229.508 120.349 229.736 119.886 229.912C119.429 230.088 118.887 230.176 118.26 230.176ZM129.853 228.154V216.5H131.487V230H129.993L129.853 228.154ZM123.454 225.351V225.166C123.454 224.439 123.542 223.78 123.718 223.188C123.899 222.591 124.154 222.078 124.482 221.65C124.816 221.223 125.212 220.895 125.669 220.666C126.132 220.432 126.647 220.314 127.216 220.314C127.813 220.314 128.335 220.42 128.78 220.631C129.231 220.836 129.612 221.138 129.923 221.536C130.239 221.929 130.488 222.403 130.67 222.96C130.852 223.517 130.978 224.146 131.048 224.85V225.658C130.983 226.355 130.857 226.982 130.67 227.539C130.488 228.096 130.239 228.57 129.923 228.963C129.612 229.355 129.231 229.657 128.78 229.868C128.329 230.073 127.802 230.176 127.198 230.176C126.642 230.176 126.132 230.056 125.669 229.815C125.212 229.575 124.816 229.238 124.482 228.805C124.154 228.371 123.899 227.861 123.718 227.275C123.542 226.684 123.454 226.042 123.454 225.351ZM125.089 225.166V225.351C125.089 225.825 125.136 226.271 125.229 226.687C125.329 227.103 125.481 227.469 125.687 227.785C125.892 228.102 126.152 228.351 126.469 228.532C126.785 228.708 127.163 228.796 127.603 228.796C128.142 228.796 128.584 228.682 128.93 228.453C129.281 228.225 129.562 227.923 129.773 227.548C129.984 227.173 130.148 226.766 130.266 226.326V224.208C130.195 223.886 130.093 223.575 129.958 223.276C129.829 222.972 129.659 222.702 129.448 222.468C129.243 222.228 128.988 222.037 128.684 221.896C128.385 221.756 128.03 221.686 127.62 221.686C127.175 221.686 126.791 221.779 126.469 221.967C126.152 222.148 125.892 222.4 125.687 222.723C125.481 223.039 125.329 223.408 125.229 223.83C125.136 224.246 125.089 224.691 125.089 225.166Z" fill="white"/>
<path d="M163.897 241.01V233.389C169.878 233.389 174.744 228.51 174.744 222.513C174.744 216.515 169.878 211.634 163.897 211.634V204.014C174.067 204.014 182.341 212.314 182.341 222.513C182.341 232.711 174.067 241.01 163.897 241.01Z" fill="white"/>
<path d="M157.097 204H149.5V241.008H157.097V204Z" fill="white"/>
<path d="M194.362 222.613V211.526H197.693C198.394 211.526 199.063 211.67 199.701 211.958C200.337 212.245 200.895 212.642 201.375 213.147C201.855 213.651 202.238 214.238 202.524 214.906C202.809 215.576 202.954 216.296 202.954 217.072C202.954 217.847 202.811 218.568 202.524 219.237C202.238 219.907 201.855 220.492 201.375 220.996C200.895 221.502 200.337 221.896 199.701 222.185C199.065 222.472 198.394 222.617 197.693 222.617H194.362V222.613ZM197.693 221.03C198.149 221.03 198.593 220.931 199.025 220.731C199.458 220.532 199.84 220.257 200.174 219.905C200.507 219.553 200.776 219.136 200.98 218.655C201.185 218.173 201.287 217.645 201.287 217.072C201.287 216.498 201.185 215.968 200.98 215.488C200.776 215.007 200.507 214.59 200.174 214.238C199.84 213.887 199.458 213.61 199.025 213.412C198.593 213.212 198.149 213.113 197.693 213.113H196.028V221.032H197.693V221.03Z" fill="white"/>
<path d="M211.395 220.325C211.266 220.653 211.102 220.962 210.903 221.249C210.704 221.536 210.464 221.788 210.185 222.005C209.905 222.222 209.58 222.393 209.212 222.516C208.845 222.639 208.431 222.7 207.977 222.7C207.451 222.7 206.959 222.601 206.503 222.402C206.048 222.202 205.648 221.923 205.302 221.565C204.957 221.208 204.688 220.781 204.496 220.289C204.304 219.797 204.207 219.251 204.207 218.653C204.207 218.055 204.304 217.509 204.496 217.017C204.688 216.525 204.952 216.1 205.285 215.741C205.619 215.384 206.01 215.104 206.461 214.904C206.91 214.705 207.387 214.605 207.89 214.605C208.394 214.605 208.868 214.705 209.319 214.904C209.769 215.104 210.162 215.383 210.495 215.741C210.829 216.1 211.091 216.525 211.285 217.017C211.479 217.509 211.574 218.055 211.574 218.653C211.574 218.747 211.567 218.837 211.557 218.926C211.545 219.013 211.533 219.087 211.521 219.146C211.509 219.228 211.497 219.298 211.485 219.358H205.874C205.898 219.604 205.968 219.84 206.085 220.062C206.202 220.286 206.35 220.482 206.532 220.651C206.713 220.822 206.929 220.957 207.181 221.056C207.432 221.157 207.698 221.206 207.979 221.206C208.458 221.206 208.838 221.104 209.119 220.899C209.399 220.694 209.604 220.502 209.733 220.327H211.399L211.395 220.325ZM207.888 216.101C207.363 216.101 206.919 216.281 206.556 216.638C206.194 216.996 205.966 217.463 205.872 218.036H210.08C209.986 217.461 209.753 216.995 209.379 216.638C209.005 216.281 208.508 216.101 207.888 216.101Z" fill="white"/>
<path d="M216.967 214.605C217.399 214.605 217.809 214.691 218.194 214.86C218.578 215.029 218.915 215.265 219.203 215.564C219.488 215.862 219.713 216.223 219.878 216.646C220.041 217.068 220.123 217.533 220.123 218.036V222.612H218.546V218.036C218.546 217.779 218.497 217.533 218.396 217.297C218.297 217.063 218.163 216.856 217.993 216.68C217.823 216.505 217.627 216.364 217.406 216.259C217.183 216.153 216.95 216.1 216.705 216.1C216.436 216.1 216.184 216.153 215.951 216.259C215.718 216.364 215.512 216.505 215.337 216.68C215.162 216.856 215.024 217.061 214.925 217.297C214.827 217.531 214.775 217.779 214.775 218.036V222.612H213.198V214.693H214.338L214.689 215.485C214.84 215.321 215.022 215.174 215.233 215.044C215.42 214.938 215.657 214.839 215.943 214.746C216.229 214.652 216.571 214.605 216.969 214.605H216.967Z" fill="white"/>
<path d="M230.118 214.605C230.55 214.605 230.96 214.691 231.345 214.86C231.729 215.029 232.066 215.265 232.354 215.564C232.639 215.862 232.864 216.223 233.029 216.646C233.192 217.068 233.274 217.533 233.274 218.036V222.612H231.697V218.036C231.697 217.779 231.647 217.533 231.547 217.297C231.448 217.063 231.314 216.856 231.144 216.68C230.974 216.505 230.778 216.364 230.557 216.259C230.334 216.153 230.101 216.1 229.856 216.1C229.587 216.1 229.335 216.153 229.102 216.259C228.869 216.364 228.663 216.505 228.488 216.68C228.313 216.856 228.175 217.061 228.076 217.297C227.977 217.531 227.926 217.779 227.926 218.036V222.612H226.349V214.693H227.489L227.84 215.485C227.991 215.321 228.173 215.174 228.384 215.044C228.571 214.938 228.808 214.839 229.094 214.746C229.379 214.652 229.721 214.605 230.12 214.605H230.118Z" fill="white"/>
<path d="M242.337 218.653C242.337 219.251 242.24 219.797 242.048 220.289C241.856 220.783 241.587 221.208 241.241 221.565C240.896 221.923 240.496 222.202 240.04 222.402C239.584 222.601 239.094 222.7 238.567 222.7C238.039 222.7 237.549 222.601 237.093 222.402C236.637 222.202 236.237 221.923 235.892 221.565C235.547 221.208 235.278 220.781 235.086 220.289C234.893 219.797 234.796 219.251 234.796 218.653C234.796 218.055 234.893 217.509 235.086 217.017C235.278 216.525 235.547 216.1 235.892 215.741C236.237 215.384 236.637 215.104 237.093 214.904C237.549 214.705 238.039 214.605 238.567 214.605C239.094 214.605 239.584 214.705 240.04 214.904C240.496 215.104 240.896 215.383 241.241 215.741C241.587 216.1 241.856 216.525 242.048 217.017C242.24 217.51 242.337 218.055 242.337 218.653ZM240.76 218.653C240.76 218.277 240.699 217.934 240.576 217.623C240.454 217.312 240.292 217.042 240.095 216.814C239.896 216.585 239.663 216.409 239.394 216.286C239.125 216.163 238.851 216.101 238.57 216.101C238.289 216.101 238.016 216.163 237.747 216.286C237.478 216.409 237.245 216.585 237.046 216.814C236.847 217.042 236.687 217.312 236.564 217.623C236.442 217.934 236.38 218.277 236.38 218.653C236.38 219.029 236.442 219.372 236.564 219.683C236.687 219.994 236.847 220.263 237.046 220.492C237.245 220.721 237.478 220.897 237.747 221.02C238.016 221.143 238.291 221.204 238.57 221.204C238.849 221.204 239.125 221.143 239.394 221.02C239.663 220.897 239.896 220.721 240.095 220.492C240.294 220.263 240.454 219.994 240.576 219.683C240.699 219.372 240.76 219.029 240.76 218.653Z" fill="white"/>
<path d="M247.45 214.605C247.544 214.605 247.618 214.611 247.678 214.623C247.736 214.634 247.789 214.646 247.836 214.658C247.884 214.67 247.93 214.682 247.976 214.694V216.277C247.93 216.265 247.877 216.253 247.818 216.242C247.76 216.23 247.698 216.218 247.634 216.206C247.569 216.194 247.508 216.189 247.45 216.189C247.181 216.189 246.929 216.242 246.696 216.347C246.463 216.453 246.257 216.593 246.082 216.769C245.907 216.945 245.769 217.15 245.67 217.386C245.572 217.62 245.521 217.867 245.521 218.125V222.613H243.943V214.694H245.083L245.434 215.487C245.573 215.323 245.743 215.176 245.943 215.046C246.106 214.94 246.313 214.841 246.565 214.747C246.817 214.653 247.111 214.607 247.45 214.607V214.605Z" fill="white"/>
<path d="M250.457 220.062C250.503 220.414 250.637 220.692 250.86 220.897C251.081 221.102 251.415 221.205 251.859 221.205C252.351 221.205 252.706 221.111 252.929 220.923C253.15 220.735 253.263 220.506 253.263 220.236C253.263 220.002 253.157 219.823 252.948 219.7C252.739 219.577 252.476 219.475 252.167 219.393C251.857 219.311 251.52 219.225 251.158 219.138C250.795 219.051 250.459 218.925 250.149 218.759C249.839 218.595 249.579 218.375 249.368 218.1C249.157 217.825 249.053 217.451 249.053 216.983C249.053 216.655 249.118 216.348 249.245 216.059C249.373 215.772 249.555 215.519 249.788 215.302C250.021 215.086 250.305 214.915 250.639 214.792C250.972 214.669 251.348 214.607 251.77 214.607C252.694 214.607 253.395 214.831 253.875 215.277C254.355 215.723 254.617 216.322 254.665 217.072H253.087C253.041 216.802 252.909 216.573 252.693 216.385C252.476 216.197 252.169 216.103 251.772 216.103C251.376 216.103 251.071 216.194 250.86 216.377C250.649 216.559 250.545 216.761 250.545 216.983C250.545 217.217 250.651 217.396 250.86 217.519C251.069 217.642 251.331 217.745 251.641 217.827C251.951 217.909 252.288 217.994 252.65 218.081C253.012 218.168 253.349 218.295 253.659 218.46C253.969 218.626 254.229 218.844 254.44 219.119C254.651 219.394 254.755 219.768 254.755 220.236C254.755 220.94 254.503 221.527 254.001 221.995C253.497 222.465 252.784 222.699 251.862 222.699C250.892 222.699 250.164 222.47 249.679 222.012C249.194 221.555 248.929 220.904 248.881 220.059H250.459L250.457 220.062Z" fill="white"/>
<path d="M261.116 222.613L258.048 218.829V222.613H256.471V211.526H258.048V218.125L260.766 214.694H262.607L259.539 218.39L263.046 222.613H261.118H261.116Z" fill="white"/>
<path d="M270.326 220.325C270.197 220.653 270.034 220.962 269.835 221.249C269.636 221.536 269.396 221.788 269.117 222.005C268.836 222.222 268.511 222.393 268.143 222.516C267.776 222.639 267.362 222.7 266.908 222.7C266.382 222.7 265.891 222.601 265.435 222.402C264.979 222.202 264.579 221.923 264.233 221.565C263.888 221.208 263.619 220.781 263.427 220.289C263.235 219.797 263.138 219.251 263.138 218.653C263.138 218.055 263.235 217.509 263.427 217.017C263.619 216.525 263.883 216.1 264.216 215.741C264.55 215.384 264.941 215.104 265.392 214.904C265.841 214.705 266.318 214.605 266.821 214.605C267.325 214.605 267.8 214.705 268.251 214.904C268.7 215.104 269.093 215.383 269.426 215.741C269.76 216.1 270.022 216.525 270.216 217.017C270.408 217.51 270.505 218.055 270.505 218.653C270.505 218.747 270.498 218.837 270.488 218.926C270.476 219.013 270.464 219.087 270.452 219.146C270.44 219.228 270.428 219.298 270.416 219.358H264.805C264.829 219.604 264.899 219.84 265.016 220.062C265.133 220.286 265.282 220.482 265.464 220.651C265.644 220.822 265.86 220.957 266.112 221.056C266.364 221.157 266.629 221.206 266.91 221.206C267.39 221.206 267.769 221.104 268.05 220.899C268.33 220.694 268.535 220.502 268.664 220.327H270.33L270.326 220.325ZM266.82 216.101C266.294 216.101 265.85 216.281 265.487 216.638C265.125 216.996 264.897 217.463 264.803 218.036H269.011C268.917 217.461 268.684 216.995 268.31 216.638C267.936 216.281 267.439 216.101 266.82 216.101Z" fill="white"/>
<path d="M197.43 241.097C196.904 241.097 196.412 240.998 195.956 240.798C195.5 240.598 195.1 240.32 194.755 239.961C194.41 239.604 194.141 239.177 193.948 238.685C193.756 238.193 193.659 237.647 193.659 237.049C193.659 236.452 193.756 235.905 193.948 235.413C194.141 234.92 194.41 234.496 194.755 234.137C195.1 233.781 195.5 233.5 195.956 233.301C196.412 233.101 196.902 233.002 197.43 233.002C197.804 233.002 198.125 233.048 198.394 233.142C198.663 233.236 198.891 233.335 199.078 233.441C199.289 233.57 199.47 233.716 199.623 233.881V229.921H201.2V241.008H200.06L199.71 240.215C199.558 240.379 199.376 240.526 199.167 240.654C198.98 240.772 198.743 240.875 198.457 240.962C198.171 241.051 197.829 241.093 197.431 241.093L197.43 241.097ZM197.518 234.498C197.213 234.498 196.924 234.559 196.65 234.682C196.376 234.805 196.133 234.981 195.922 235.21C195.711 235.439 195.544 235.709 195.422 236.019C195.299 236.33 195.238 236.674 195.238 237.049C195.238 237.425 195.299 237.768 195.422 238.079C195.544 238.39 195.711 238.66 195.922 238.889C196.133 239.117 196.375 239.293 196.65 239.416C196.924 239.539 197.213 239.601 197.518 239.601C197.823 239.601 198.11 239.539 198.386 239.416C198.66 239.293 198.903 239.117 199.114 238.889C199.325 238.66 199.492 238.39 199.614 238.079C199.737 237.768 199.798 237.425 199.798 237.049C199.798 236.674 199.737 236.33 199.614 236.019C199.492 235.709 199.325 235.439 199.114 235.21C198.903 234.981 198.661 234.805 198.386 234.682C198.11 234.559 197.821 234.498 197.518 234.498Z" fill="white"/>
<path d="M209.275 241.01L208.925 240.217C208.773 240.381 208.591 240.528 208.382 240.656C208.195 240.774 207.958 240.876 207.672 240.963C207.386 241.052 207.045 241.095 206.646 241.095C206.121 241.095 205.629 240.996 205.173 240.796C204.717 240.596 204.317 240.318 203.972 239.959C203.626 239.602 203.357 239.175 203.165 238.684C202.973 238.192 202.876 237.645 202.876 237.047C202.876 236.45 202.973 235.903 203.165 235.411C203.357 234.92 203.626 234.494 203.972 234.136C204.317 233.779 204.717 233.499 205.173 233.299C205.629 233.099 206.119 233 206.646 233C207.043 233 207.386 233.046 207.672 233.14C207.958 233.234 208.195 233.333 208.382 233.439C208.593 233.569 208.773 233.714 208.925 233.88L209.275 233.087H210.415V241.006H209.275V241.01ZM204.453 237.049C204.453 237.425 204.514 237.768 204.637 238.079C204.759 238.39 204.926 238.66 205.137 238.888C205.348 239.117 205.59 239.293 205.865 239.416C206.139 239.539 206.429 239.601 206.733 239.601C207.038 239.601 207.325 239.539 207.601 239.416C207.875 239.293 208.118 239.117 208.329 238.888C208.54 238.66 208.707 238.39 208.829 238.079C208.952 237.768 209.013 237.425 209.013 237.049C209.013 236.673 208.952 236.33 208.829 236.019C208.707 235.709 208.54 235.439 208.329 235.21C208.118 234.981 207.877 234.805 207.601 234.682C207.325 234.559 207.036 234.498 206.733 234.498C206.43 234.498 206.139 234.559 205.865 234.682C205.591 234.805 205.348 234.981 205.137 235.21C204.926 235.439 204.759 235.709 204.637 236.019C204.514 236.33 204.453 236.673 204.453 237.049Z" fill="white"/>
<path d="M214.621 238.37C214.621 238.722 214.738 239.015 214.972 239.249C215.205 239.483 215.497 239.601 215.848 239.601C215.906 239.601 215.967 239.598 216.032 239.593C216.096 239.588 216.157 239.577 216.215 239.565C216.273 239.553 216.326 239.536 216.374 239.512V240.921C216.304 240.957 216.222 240.986 216.129 241.008C215.953 241.066 215.742 241.095 215.497 241.095C215.147 241.095 214.822 241.031 214.524 240.903C214.226 240.774 213.966 240.592 213.743 240.358C213.52 240.124 213.348 239.839 213.226 239.504C213.103 239.169 213.042 238.792 213.042 238.368V234.585H211.64V233.089H212.254C212.559 233.089 212.809 232.99 213.008 232.79C213.207 232.591 213.306 232.34 213.306 232.034V230.979H214.621V233.091H216.374V234.587H214.621V238.37Z" fill="white"/>
<path d="M223.703 241.01L223.353 240.217C223.201 240.381 223.019 240.528 222.81 240.656C222.623 240.774 222.386 240.876 222.101 240.963C221.815 241.052 221.473 241.095 221.075 241.095C220.549 241.095 220.057 240.996 219.601 240.796C219.145 240.596 218.745 240.318 218.4 239.959C218.055 239.602 217.786 239.175 217.593 238.684C217.401 238.192 217.304 237.645 217.304 237.047C217.304 236.45 217.401 235.903 217.593 235.411C217.786 234.92 218.055 234.494 218.4 234.136C218.745 233.779 219.145 233.499 219.601 233.299C220.057 233.099 220.547 233 221.075 233C221.471 233 221.815 233.046 222.101 233.14C222.386 233.234 222.623 233.333 222.81 233.439C223.021 233.569 223.201 233.714 223.353 233.88L223.703 233.087H224.843V241.006H223.703V241.01ZM218.881 237.049C218.881 237.425 218.943 237.768 219.065 238.079C219.188 238.39 219.354 238.66 219.565 238.888C219.776 239.117 220.018 239.293 220.294 239.416C220.568 239.539 220.857 239.601 221.161 239.601C221.466 239.601 221.753 239.539 222.029 239.416C222.303 239.293 222.546 239.117 222.757 238.888C222.968 238.66 223.135 238.39 223.258 238.079C223.38 237.768 223.441 237.425 223.441 237.049C223.441 236.673 223.38 236.33 223.258 236.019C223.135 235.709 222.968 235.439 222.757 235.21C222.546 234.981 222.305 234.805 222.029 234.682C221.753 234.559 221.464 234.498 221.161 234.498C220.859 234.498 220.568 234.559 220.294 234.682C220.02 234.805 219.776 234.981 219.565 235.21C219.354 235.439 219.188 235.709 219.065 236.019C218.943 236.33 218.881 236.673 218.881 237.049Z" fill="white"/>
<path d="M230.562 234.587H228.808V241.01H227.23V234.587H226.266V233.091H227.23V232.563C227.23 232.141 227.292 231.762 227.414 231.428C227.537 231.093 227.708 230.809 227.931 230.574C228.153 230.34 228.413 230.157 228.712 230.029C229.01 229.899 229.335 229.836 229.686 229.836C229.813 229.836 229.931 229.844 230.036 229.862C230.141 229.879 230.235 229.899 230.317 229.923C230.41 229.959 230.492 229.988 230.562 230.012V231.419C230.514 231.407 230.461 231.395 230.404 231.383C230.346 231.371 230.284 231.359 230.22 231.347C230.155 231.335 230.094 231.33 230.036 231.33C229.686 231.33 229.393 231.448 229.16 231.682C228.927 231.916 228.809 232.21 228.809 232.562V233.089H230.563V234.585L230.562 234.587Z" fill="white"/>
<path d="M238.829 237.049C238.829 237.647 238.732 238.194 238.54 238.685C238.347 239.179 238.079 239.604 237.733 239.961C237.388 240.32 236.988 240.598 236.532 240.798C236.076 240.998 235.586 241.097 235.058 241.097C234.531 241.097 234.041 240.998 233.585 240.798C233.129 240.598 232.729 240.32 232.384 239.961C232.038 239.604 231.77 239.177 231.577 238.685C231.385 238.194 231.288 237.647 231.288 237.049C231.288 236.452 231.385 235.905 231.577 235.413C231.77 234.92 232.038 234.496 232.384 234.138C232.729 233.781 233.129 233.501 233.585 233.301C234.041 233.101 234.531 233.002 235.058 233.002C235.586 233.002 236.076 233.101 236.532 233.301C236.988 233.501 237.388 233.779 237.733 234.138C238.079 234.496 238.347 234.922 238.54 235.413C238.732 235.907 238.829 236.452 238.829 237.049ZM237.252 237.049C237.252 236.674 237.19 236.33 237.068 236.02C236.945 235.709 236.784 235.439 236.586 235.21C236.387 234.981 236.154 234.805 235.885 234.682C235.617 234.559 235.343 234.498 235.062 234.498C234.781 234.498 234.507 234.559 234.238 234.682C233.97 234.805 233.736 234.981 233.537 235.21C233.338 235.439 233.178 235.709 233.056 236.02C232.933 236.33 232.872 236.674 232.872 237.049C232.872 237.425 232.933 237.768 233.056 238.079C233.178 238.39 233.338 238.66 233.537 238.889C233.736 239.118 233.97 239.293 234.238 239.416C234.507 239.539 234.783 239.601 235.062 239.601C235.341 239.601 235.617 239.539 235.885 239.416C236.154 239.293 236.387 239.118 236.586 238.889C236.785 238.66 236.945 238.39 237.068 238.079C237.19 237.768 237.252 237.425 237.252 237.049Z" fill="white"/>
<path d="M243.942 233.002C244.035 233.002 244.11 233.007 244.17 233.019C244.228 233.031 244.28 233.043 244.328 233.055C244.376 233.067 244.422 233.079 244.467 233.091V234.674C244.422 234.662 244.369 234.65 244.309 234.638C244.251 234.626 244.19 234.614 244.125 234.602C244.061 234.59 244 234.585 243.942 234.585C243.673 234.585 243.421 234.638 243.188 234.744C242.955 234.85 242.749 234.99 242.574 235.166C242.399 235.342 242.261 235.547 242.162 235.782C242.063 236.016 242.012 236.264 242.012 236.522V241.01H240.435V233.091H241.575L241.926 233.883C242.065 233.719 242.235 233.572 242.434 233.443C242.598 233.337 242.805 233.238 243.057 233.144C243.309 233.05 243.603 233.004 243.942 233.004V233.002Z" fill="white"/>
<path d="M252.427 238.721C252.298 239.049 252.134 239.358 251.935 239.645C251.736 239.932 251.496 240.185 251.217 240.402C250.936 240.619 250.611 240.79 250.244 240.912C249.876 241.035 249.463 241.097 249.009 241.097C248.483 241.097 247.991 240.998 247.535 240.798C247.079 240.598 246.679 240.32 246.334 239.961C245.989 239.604 245.72 239.177 245.528 238.685C245.335 238.194 245.238 237.647 245.238 237.049C245.238 236.452 245.335 235.905 245.528 235.413C245.72 234.92 245.984 234.496 246.317 234.138C246.65 233.781 247.042 233.501 247.493 233.301C247.942 233.101 248.418 233.002 248.922 233.002C249.426 233.002 249.9 233.101 250.351 233.301C250.8 233.501 251.193 233.779 251.527 234.138C251.86 234.496 252.122 234.922 252.316 235.413C252.509 235.907 252.606 236.452 252.606 237.049C252.606 237.143 252.599 237.234 252.589 237.323C252.577 237.41 252.565 237.483 252.553 237.543C252.541 237.625 252.529 237.695 252.517 237.755H246.906C246.93 238.001 246.999 238.236 247.117 238.458C247.234 238.682 247.382 238.878 247.564 239.048C247.745 239.218 247.961 239.353 248.212 239.452C248.464 239.553 248.73 239.603 249.01 239.603C249.49 239.603 249.87 239.5 250.15 239.295C250.431 239.09 250.635 238.899 250.765 238.723H252.43L252.427 238.721ZM248.92 234.498C248.394 234.498 247.95 234.677 247.588 235.034C247.226 235.393 246.998 235.859 246.904 236.433H251.112C251.018 235.857 250.785 235.391 250.411 235.034C250.036 234.677 249.54 234.498 248.92 234.498Z" fill="white"/>
<path d="M257.999 233.002C258.431 233.002 258.841 233.087 259.226 233.256C259.612 233.427 259.947 233.661 260.235 233.96C260.521 234.259 260.745 234.619 260.91 235.043C261.074 235.465 261.155 235.929 261.155 236.433V241.008H259.578V236.433C259.578 236.175 259.529 235.929 259.428 235.693C259.33 235.459 259.195 235.253 259.025 235.077C258.855 234.901 258.659 234.761 258.438 234.655C258.215 234.549 257.982 234.496 257.737 234.496C257.468 234.496 257.216 234.549 256.983 234.655C256.75 234.761 256.544 234.901 256.369 235.077C256.194 235.253 256.056 235.458 255.957 235.693C255.859 235.927 255.808 236.175 255.808 236.433V241.008H254.23V233.089H255.37L255.721 233.881C255.872 233.718 256.054 233.571 256.265 233.441C256.453 233.335 256.689 233.236 256.975 233.142C257.261 233.048 257.603 233.002 258.001 233.002H257.999Z" fill="white"/>
<path d="M263.878 231.858C263.609 231.858 263.381 231.764 263.194 231.576C263.007 231.388 262.913 231.159 262.913 230.889C262.913 230.619 263.007 230.391 263.194 230.203C263.381 230.015 263.609 229.921 263.878 229.921C264.147 229.921 264.375 230.015 264.562 230.203C264.749 230.391 264.843 230.619 264.843 230.889C264.843 231.159 264.749 231.388 264.562 231.576C264.375 231.764 264.147 231.858 263.878 231.858ZM264.667 241.01H263.09V233.091H264.667V241.01Z" fill="white"/>
<path d="M270.486 233.002C270.918 233.002 271.328 233.087 271.713 233.256C272.097 233.425 272.434 233.661 272.722 233.96C273.008 234.259 273.232 234.619 273.397 235.043C273.56 235.465 273.642 235.929 273.642 236.433V241.008H272.065V236.433C272.065 236.175 272.016 235.929 271.915 235.693C271.817 235.459 271.682 235.253 271.512 235.077C271.342 234.901 271.146 234.761 270.925 234.655C270.702 234.549 270.469 234.496 270.224 234.496C269.955 234.496 269.703 234.549 269.47 234.655C269.237 234.761 269.031 234.901 268.856 235.077C268.681 235.253 268.543 235.458 268.444 235.693C268.346 235.927 268.295 236.175 268.295 236.433V241.008H266.717V233.089H267.857L268.208 233.881C268.359 233.718 268.541 233.571 268.752 233.441C268.939 233.335 269.176 233.236 269.462 233.142C269.748 233.048 270.09 233.002 270.488 233.002H270.486Z" fill="white"/>
<path d="M282.498 233.091V240.658C282.498 241.14 282.413 241.586 282.245 241.995C282.074 242.405 281.835 242.761 281.527 243.059C281.217 243.358 280.839 243.591 280.395 243.754C279.951 243.918 279.454 244 278.905 244C278.425 244 277.993 243.932 277.608 243.799C277.222 243.664 276.887 243.485 276.599 243.263C276.313 243.039 276.075 242.779 275.89 242.479C275.703 242.18 275.568 241.866 275.486 241.538H277.064C277.193 241.808 277.399 242.052 277.686 242.269C277.972 242.486 278.379 242.595 278.905 242.595C279.524 242.595 280.016 242.416 280.378 242.059C280.741 241.7 280.921 241.234 280.921 240.66V239.868C280.769 240.031 280.587 240.178 280.378 240.308C280.191 240.426 279.963 240.528 279.694 240.616C279.425 240.703 279.104 240.747 278.729 240.747C278.25 240.747 277.792 240.648 277.353 240.448C276.914 240.248 276.531 239.975 276.204 239.63C275.878 239.283 275.617 238.877 275.424 238.407C275.231 237.938 275.134 237.427 275.134 236.875C275.134 236.324 275.231 235.813 275.424 235.344C275.616 234.874 275.876 234.466 276.204 234.121C276.531 233.774 276.914 233.503 277.353 233.303C277.792 233.103 278.25 233.004 278.729 233.004C279.126 233.004 279.468 233.05 279.755 233.144C280.041 233.238 280.278 233.337 280.465 233.443C280.676 233.573 280.856 233.718 281.009 233.883L281.36 233.091H282.5H282.498ZM278.922 239.251C279.202 239.251 279.473 239.19 279.737 239.067C280 238.944 280.23 238.773 280.429 238.556C280.628 238.339 280.788 238.086 280.911 237.799C281.033 237.512 281.094 237.205 281.094 236.875C281.094 236.546 281.033 236.238 280.911 235.952C280.788 235.665 280.627 235.412 280.429 235.195C280.23 234.978 279.997 234.807 279.728 234.684C279.459 234.561 279.185 234.5 278.905 234.5C278.624 234.5 278.35 234.561 278.081 234.684C277.812 234.807 277.579 234.978 277.38 235.195C277.181 235.412 277.021 235.665 276.899 235.952C276.776 236.238 276.715 236.548 276.715 236.875C276.715 237.203 276.776 237.512 276.899 237.799C277.021 238.086 277.185 238.339 277.389 238.556C277.593 238.773 277.828 238.944 278.09 239.067C278.353 239.19 278.631 239.251 278.923 239.251H278.922Z" fill="white"/>
</svg>
