<svg width="163" height="66" viewBox="0 0 163 66" fill="none" xmlns="http://www.w3.org/2000/svg">
<path d="M50.8424 0H0V22.0663H50.8424V0Z" fill="#A9DDB1"/>
<path d="M38.0568 21.9664H12.5857V44.0327H38.0568V21.9664Z" fill="#94CC9D"/>
<path d="M38.0568 43.9329H12.5857V65.9992H38.0568V43.9329Z" fill="#80BE8A"/>
<path d="M55.8367 0H84.6041C96.7903 0 106.679 9.88491 106.679 22.0663H55.8367V0Z" fill="#A9DDB1"/>
<path d="M106.679 21.9664H55.8367V44.0327H106.679V21.9664Z" fill="#94CC9D"/>
<path d="M55.8367 43.9329H106.679C106.679 56.1143 96.7903 65.9992 84.6041 65.9992H55.8367V43.9329Z" fill="#80BE8A"/>
<path d="M133.749 0H162.516V22.0663H111.674C111.574 9.88491 121.562 0 133.749 0Z" fill="#A9DDB1"/>
<path d="M137.045 21.9664H111.574V44.0327H137.045V21.9664Z" fill="#94CC9D"/>
<path d="M111.574 43.9329H162.416V65.9992H133.649C121.562 66.0991 111.574 56.2142 111.574 43.9329Z" fill="#80BE8A"/>
</svg>
